GajrajOne-Regular.ufo
<glyph name="exclam" format="1">
  <advance width="300"/>
  <unicode hex="0021"/>
  <outline>
    <contour>
      <point x="30" y="665" type="line"/>
      <point x="68" y="213" type="line"/>
      <point x="232" y="213" type="line"/>
      <point x="270" y="665" type="line"/>
    </contour>
    <contour>
      <point x="230" y="128" type="line"/>
      <point x="150" y="128" type="line" smooth="yes"/>
      <point x="137" y="128"/>
      <point x="70" y="125"/>
      <point x="70" y="109" type="curve" smooth="yes"/>
      <point x="70" y="0" type="line"/>
      <point x="150" y="0" type="line" smooth="yes"/>
      <point x="163" y="0"/>
      <point x="230" y="3"/>
      <point x="230" y="19" type="curve" smooth="yes"/>
    </contour>
  </outline>
</glyph>
<glyph name="quotedbl" format="1">
  <advance width="420"/>
  <unicode hex="0022"/>
  <outline>
    <contour>
      <point x="30" y="472" type="line"/>
      <point x="180" y="472" type="line"/>
      <point x="180" y="697" type="line" smooth="yes"/>
      <point x="180" y="712"/>
      <point x="117" y="715"/>
      <point x="105" y="715" type="curve" smooth="yes"/>
      <point x="30" y="715" type="line"/>
    </contour>
    <contour>
      <point x="240" y="472" type="line"/>
      <point x="390" y="472" type="line"/>
      <point x="390" y="697" type="line" smooth="yes"/>
      <point x="390" y="712"/>
      <point x="327" y="715"/>
      <point x="315" y="715" type="curve" smooth="yes"/>
      <point x="240" y="715" type="line"/>
    </contour>
  </outline>
</glyph>
<glyph name="numbersign" format="1">
  <advance width="647"/>
  <unicode hex="0023"/>
  <outline>
    <contour>
      <point x="202" y="700" type="line"/>
      <point x="174" y="500" type="line"/>
      <point x="67" y="500" type="line"/>
      <point x="67" y="433" type="line"/>
      <point x="165" y="433" type="line"/>
      <point x="142" y="268" type="line"/>
      <point x="30" y="268" type="line"/>
      <point x="30" y="201" type="line"/>
      <point x="132" y="201" type="line"/>
      <point x="104" y="0" type="line"/>
      <point x="224" y="0" type="line"/>
      <point x="252" y="201" type="line"/>
      <point x="362" y="201" type="line"/>
      <point x="334" y="0" type="line"/>
      <point x="454" y="0" type="line"/>
      <point x="482" y="201" type="line"/>
      <point x="580" y="201" type="line"/>
      <point x="580" y="268" type="line"/>
      <point x="492" y="268" type="line"/>
      <point x="515" y="433" type="line"/>
      <point x="617" y="433" type="line"/>
      <point x="617" y="500" type="line"/>
      <point x="524" y="500" type="line"/>
      <point x="552" y="700" type="line"/>
      <point x="432" y="700" type="line"/>
      <point x="404" y="500" type="line"/>
      <point x="294" y="500" type="line"/>
      <point x="322" y="700" type="line"/>
    </contour>
    <contour>
      <point x="262" y="268" type="line"/>
      <point x="285" y="433" type="line"/>
      <point x="395" y="433" type="line"/>
      <point x="372" y="268" type="line"/>
    </contour>
  </outline>
</glyph>
<glyph name="dollar" format="1">
  <advance width="631"/>
  <unicode hex="0024"/>
  <outline>
    <contour>
      <point x="583" y="631.2" type="line"/>
      <point x="402.856" y="631.2" type="line"/>
      <point x="403.987" y="671.141"/>
      <point x="404.973" y="711.038"/>
      <point x="406" y="751" type="curve"/>
      <point x="266" y="751" type="line"/>
      <point x="267.027" y="711.038"/>
      <point x="268.013" y="671.141"/>
      <point x="269.144" y="631.2" type="curve"/>
      <point x="173" y="631.2" type="line" smooth="yes"/>
      <point x="152.3" y="631.2"/>
      <point x="43" y="626.4"/>
      <point x="43" y="600" type="curve" smooth="yes"/>
      <point x="43" y="321" type="line" smooth="yes"/>
      <point x="43" y="285.7"/>
      <point x="214.6" y="289.8"/>
      <point x="242.5" y="289.8" type="curve" smooth="yes"/>
      <point x="331" y="289.8" type="line"/>
      <point x="331" y="62.2" type="line"/>
      <point x="41" y="62.2" type="line"/>
      <point x="41" y="-0.2" type="line"/>
      <point x="259.144" y="-0.2" type="line"/>
      <point x="258.013" y="-40.1407"/>
      <point x="257.027" y="-80.0381"/>
      <point x="256" y="-120" type="curve"/>
      <point x="396" y="-120" type="line"/>
      <point x="394.973" y="-80.0381"/>
      <point x="393.987" y="-40.1407"/>
      <point x="392.856" y="-0.2" type="curve"/>
      <point x="461" y="-0.2" type="line" smooth="yes"/>
      <point x="481.7" y="-0.2"/>
      <point x="591" y="4.6"/>
      <point x="591" y="31" type="curve" smooth="yes"/>
      <point x="591" y="321" type="line" smooth="yes"/>
      <point x="591" y="356.3"/>
      <point x="419.4" y="352.2"/>
      <point x="391.5" y="352.2" type="curve" smooth="yes"/>
      <point x="303" y="352.2" type="line"/>
      <point x="303" y="568.8" type="line"/>
      <point x="583" y="568.8" type="line"/>
    </contour>
  </outline>
</glyph>
<glyph name="percent" format="1">
  <advance width="961"/>
  <unicode hex="0025"/>
  <outline>
    <contour>
      <point x="651" y="668" type="line"/>
      <point x="192" y="3" type="line"/>
      <point x="310" y="-3" type="line"/>
      <point x="769" y="663" type="line"/>
    </contour>
    <contour>
      <point x="30" y="356" type="line" smooth="yes"/>
      <point x="30" y="340"/>
      <point x="97" y="337"/>
      <point x="110" y="337" type="curve" smooth="yes"/>
      <point x="302" y="337" type="line" smooth="yes"/>
      <point x="315" y="337"/>
      <point x="382" y="340"/>
      <point x="382" y="356" type="curve" smooth="yes"/>
      <point x="382" y="646" type="line" smooth="yes"/>
      <point x="382" y="662"/>
      <point x="315" y="665"/>
      <point x="302" y="665" type="curve" smooth="yes"/>
      <point x="110" y="665" type="line" smooth="yes"/>
      <point x="97" y="665"/>
      <point x="30" y="662"/>
      <point x="30" y="646" type="curve" smooth="yes"/>
    </contour>
    <contour>
      <point x="190" y="375" type="line"/>
      <point x="190" y="627" type="line"/>
      <point x="222" y="627" type="line"/>
      <point x="222" y="375" type="line"/>
    </contour>
    <contour>
      <point x="579" y="19" type="line" smooth="yes"/>
      <point x="579" y="3"/>
      <point x="646" y="0"/>
      <point x="659" y="0" type="curve" smooth="yes"/>
      <point x="851" y="0" type="line" smooth="yes"/>
      <point x="864" y="0"/>
      <point x="931" y="3"/>
      <point x="931" y="19" type="curve" smooth="yes"/>
      <point x="931" y="309" type="line" smooth="yes"/>
      <point x="931" y="325"/>
      <point x="864" y="328"/>
      <point x="851" y="328" type="curve" smooth="yes"/>
      <point x="659" y="328" type="line" smooth="yes"/>
      <point x="646" y="328"/>
      <point x="579" y="325"/>
      <point x="579" y="309" type="curve" smooth="yes"/>
    </contour>
    <contour>
      <point x="739" y="38" type="line"/>
      <point x="739" y="290" type="line"/>
      <point x="771" y="290" type="line"/>
      <point x="771" y="38" type="line"/>
    </contour>
  </outline>
</glyph>
<glyph name="ampersand" format="1">
  <advance width="866"/>
  <unicode hex="0026"/>
  <outline>
    <contour>
      <point x="488" y="428" type="line"/>
      <point x="628" y="428" type="line" smooth="yes"/>
      <point x="650" y="428"/>
      <point x="768" y="434"/>
      <point x="768" y="462" type="curve" smooth="yes"/>
      <point x="768" y="631" type="line" smooth="yes"/>
      <point x="768" y="659"/>
      <point x="650" y="665"/>
      <point x="628" y="665" type="curve" smooth="yes"/>
      <point x="298" y="665" type="line" smooth="yes"/>
      <point x="276" y="665"/>
      <point x="158" y="659"/>
      <point x="158" y="631" type="curve" smooth="yes"/>
      <point x="158" y="461" type="line" smooth="yes"/>
      <point x="158" y="392"/>
      <point x="215" y="352"/>
      <point x="260" y="309" type="curve" smooth="yes"/>
      <point x="280" y="290" type="line"/>
      <point x="170" y="290" type="line" smooth="yes"/>
      <point x="148" y="290"/>
      <point x="30" y="284"/>
      <point x="30" y="256" type="curve" smooth="yes"/>
      <point x="30" y="34" type="line" smooth="yes"/>
      <point x="30" y="6"/>
      <point x="148" y="0"/>
      <point x="170" y="0" type="curve" smooth="yes"/>
      <point x="380" y="0" type="line" smooth="yes"/>
      <point x="402" y="0"/>
      <point x="520" y="6"/>
      <point x="520" y="34" type="curve" smooth="yes"/>
      <point x="520" y="57" type="line"/>
      <point x="535" y="42"/>
      <point x="553" y="23"/>
      <point x="567" y="14" type="curve" smooth="yes"/>
      <point x="596" y="-3"/>
      <point x="662" y="-7"/>
      <point x="696" y="-7" type="curve" smooth="yes"/>
      <point x="718" y="-7"/>
      <point x="836" y="-1"/>
      <point x="836" y="27" type="curve" smooth="yes"/>
      <point x="836" y="36"/>
      <point x="792" y="74"/>
      <point x="784" y="82" type="curve" smooth="yes"/>
      <point x="536" y="320" type="line" smooth="yes"/>
      <point x="500" y="354"/>
      <point x="451" y="389"/>
      <point x="440" y="440" type="curve" smooth="yes"/>
      <point x="435" y="462"/>
      <point x="438" y="485"/>
      <point x="438" y="508" type="curve" smooth="yes"/>
      <point x="438" y="597" type="line"/>
      <point x="488" y="597" type="line"/>
    </contour>
    <contour>
      <point x="310" y="68" type="line"/>
      <point x="310" y="261" type="line"/>
      <point x="509" y="68" type="line"/>
      <point x="509" y="68"/>
      <point x="510" y="67"/>
      <point x="510" y="67" type="curve"/>
      <point x="463" y="67"/>
      <point x="417" y="68"/>
      <point x="370" y="68" type="curve" smooth="yes"/>
    </contour>
  </outline>
</glyph>
<glyph name="quotesingle" format="1">
  <advance width="210"/>
  <unicode hex="0027"/>
  <outline>
    <contour>
      <point x="30" y="472" type="line"/>
      <point x="180" y="472" type="line"/>
      <point x="180" y="697" type="line" smooth="yes"/>
      <point x="180" y="712"/>
      <point x="117" y="715"/>
      <point x="105" y="715" type="curve" smooth="yes"/>
      <point x="30" y="715" type="line"/>
    </contour>
  </outline>
</glyph>
<glyph name="parenleft" format="1">
  <advance width="323"/>
  <unicode hex="0028"/>
  <outline>
    <contour>
      <point x="78" y="696" type="line"/>
      <point x="50" y="566"/>
      <point x="30" y="434"/>
      <point x="30" y="300" type="curve" smooth="yes"/>
      <point x="30" y="172"/>
      <point x="49" y="44"/>
      <point x="78" y="-81" type="curve"/>
      <point x="318" y="-81" type="line"/>
      <point x="289" y="43"/>
      <point x="270" y="173"/>
      <point x="270" y="300" type="curve" smooth="yes"/>
      <point x="270" y="433"/>
      <point x="290" y="567"/>
      <point x="318" y="696" type="curve"/>
    </contour>
  </outline>
</glyph>
<glyph name="parenright" format="1">
  <advance width="328"/>
  <unicode hex="0029"/>
  <outline>
    <contour>
      <point x="250" y="696" type="line"/>
      <point x="278" y="566"/>
      <point x="298" y="434"/>
      <point x="298" y="300" type="curve" smooth="yes"/>
      <point x="298" y="172"/>
      <point x="279" y="44"/>
      <point x="250" y="-81" type="curve"/>
      <point x="10" y="-81" type="line"/>
      <point x="39" y="43"/>
      <point x="58" y="173"/>
      <point x="58" y="300" type="curve" smooth="yes"/>
      <point x="58" y="433"/>
      <point x="38" y="567"/>
      <point x="10" y="696" type="curve"/>
    </contour>
  </outline>
</glyph>
<glyph name="asterisk" format="1">
  <advance width="546"/>
  <unicode hex="002A"/>
  <outline>
    <contour>
      <point x="207" y="748" type="line"/>
      <point x="231" y="574" type="line"/>
      <point x="72" y="650" type="line"/>
      <point x="30" y="523" type="line"/>
      <point x="202" y="492" type="line"/>
      <point x="81" y="366" type="line"/>
      <point x="190" y="287" type="line"/>
      <point x="273" y="442" type="line"/>
      <point x="356" y="287" type="line"/>
      <point x="465" y="366" type="line"/>
      <point x="343" y="493" type="line"/>
      <point x="516" y="524" type="line"/>
      <point x="475" y="651" type="line"/>
      <point x="318" y="576" type="line"/>
      <point x="341" y="748" type="line"/>
    </contour>
  </outline>
</glyph>
<glyph name="plus" format="1">
  <advance width="520"/>
  <unicode hex="002B"/>
  <outline>
    <contour>
      <point x="30" y="209.4" type="line"/>
      <point x="180" y="209.4" type="line"/>
      <point x="180" y="48" type="line"/>
      <point x="340" y="48" type="line"/>
      <point x="340" y="209.4" type="line"/>
      <point x="490" y="209.4" type="line"/>
      <point x="490" y="276.6" type="line"/>
      <point x="340" y="276.6" type="line"/>
      <point x="340" y="438" type="line"/>
      <point x="180" y="438" type="line"/>
      <point x="180" y="276.6" type="line"/>
      <point x="30" y="276.6" type="line"/>
    </contour>
  </outline>
</glyph>
<glyph name="comma" format="1">
  <advance width="221"/>
  <unicode hex="002C"/>
  <outline>
    <contour>
      <point x="40" y="74" type="line"/>
      <point x="30" y="-121" type="line"/>
      <point x="180" y="-121" type="line"/>
      <point x="190" y="79" type="line" smooth="yes"/>
      <point x="190.8" y="94"/>
      <point x="126.6" y="97"/>
      <point x="115" y="97" type="curve" smooth="yes"/>
      <point x="40" y="97" type="line"/>
    </contour>
  </outline>
</glyph>
<glyph name="hyphen" format="1">
  <advance width="360"/>
  <unicode hex="002D"/>
  <outline>
    <contour>
      <point x="30" y="209" type="line"/>
      <point x="330" y="209" type="line"/>
      <point x="330" y="277" type="line"/>
      <point x="30" y="277" type="line"/>
    </contour>
  </outline>
</glyph>
<glyph name="period" format="1">
  <advance width="220"/>
  <unicode hex="002E"/>
  <outline>
    <contour>
      <point x="190" y="128" type="line"/>
      <point x="110" y="128" type="line" smooth="yes"/>
      <point x="97" y="128"/>
      <point x="30" y="125"/>
      <point x="30" y="109" type="curve" smooth="yes"/>
      <point x="30" y="0" type="line"/>
      <point x="110" y="0" type="line" smooth="yes"/>
      <point x="123" y="0"/>
      <point x="190" y="3"/>
      <point x="190" y="19" type="curve" smooth="yes"/>
    </contour>
  </outline>
</glyph>
<glyph name="slash" format="1">
  <advance width="460"/>
  <unicode hex="002F"/>
  <outline>
    <contour>
      <point x="320" y="666" type="line"/>
      <point x="20" y="-59" type="line"/>
      <point x="140" y="-61" type="line"/>
      <point x="440" y="664" type="line"/>
    </contour>
  </outline>
</glyph>
<glyph name="zero" format="1">
  <advance width="680"/>
  <unicode hex="0030"/>
  <outline>
    <contour>
      <point x="30" y="34" type="line" smooth="yes"/>
      <point x="30" y="6"/>
      <point x="148" y="0"/>
      <point x="170" y="0" type="curve" smooth="yes"/>
      <point x="510" y="0" type="line" smooth="yes"/>
      <point x="532" y="0"/>
      <point x="650" y="6"/>
      <point x="650" y="34" type="curve" smooth="yes"/>
      <point x="650" y="631" type="line" smooth="yes"/>
      <point x="650" y="659"/>
      <point x="532" y="665"/>
      <point x="510" y="665" type="curve" smooth="yes"/>
      <point x="170" y="665" type="line" smooth="yes"/>
      <point x="148" y="665"/>
      <point x="30" y="659"/>
      <point x="30" y="631" type="curve" smooth="yes"/>
    </contour>
    <contour>
      <point x="310" y="68" type="line"/>
      <point x="310" y="597" type="line"/>
      <point x="370" y="597" type="line"/>
      <point x="370" y="68" type="line"/>
    </contour>
  </outline>
</glyph>
<glyph name="one" format="1">
  <advance width="410"/>
  <unicode hex="0031"/>
  <outline>
    <contour>
      <point x="380" y="-2" type="line"/>
      <point x="380" y="631" type="line" smooth="yes"/>
      <point x="380" y="659.4"/>
      <point x="262.3" y="664.6"/>
      <point x="240" y="664.6" type="curve" smooth="yes"/>
      <point x="20" y="664.6" type="line"/>
      <point x="20" y="597.4" type="line"/>
      <point x="100" y="597.4" type="line"/>
      <point x="100" y="-2" type="line"/>
    </contour>
  </outline>
</glyph>
<glyph name="two" format="1">
  <advance width="610"/>
  <unicode hex="0032"/>
  <outline>
    <contour>
      <point x="580" y="67" type="line"/>
      <point x="310" y="67" type="line"/>
      <point x="310" y="195" type="line"/>
      <point x="389" y="227"/>
      <point x="478" y="259"/>
      <point x="555" y="295" type="curve"/>
      <point x="561" y="298"/>
      <point x="572" y="303"/>
      <point x="572" y="311" type="curve" smooth="yes"/>
      <point x="572" y="632" type="line" smooth="yes"/>
      <point x="572" y="660"/>
      <point x="454" y="665"/>
      <point x="432" y="665" type="curve" smooth="yes"/>
      <point x="42" y="665" type="line"/>
      <point x="42" y="598" type="line"/>
      <point x="292" y="598" type="line"/>
      <point x="292" y="320" type="line"/>
      <point x="213" y="288"/>
      <point x="124" y="256"/>
      <point x="47" y="220" type="curve"/>
      <point x="41" y="217"/>
      <point x="30" y="212"/>
      <point x="30" y="204" type="curve" smooth="yes"/>
      <point x="30" y="34" type="line" smooth="yes"/>
      <point x="30" y="5"/>
      <point x="148" y="0"/>
      <point x="170" y="0" type="curve" smooth="yes"/>
      <point x="580" y="0" type="line"/>
    </contour>
  </outline>
</glyph>
<glyph name="three" format="1">
  <advance width="590"/>
  <unicode hex="0033"/>
  <outline>
    <contour>
      <point x="60" y="298" type="line"/>
      <point x="249" y="298" type="line"/>
      <point x="281" y="277"/>
      <point x="280" y="243"/>
      <point x="280" y="209" type="curve" smooth="yes"/>
      <point x="280" y="130" type="line" smooth="yes"/>
      <point x="280" y="107"/>
      <point x="278" y="87"/>
      <point x="265" y="68" type="curve"/>
      <point x="30" y="68" type="line"/>
      <point x="30" y="0" type="line"/>
      <point x="340" y="0" type="line" smooth="yes"/>
      <point x="417" y="0"/>
      <point x="560" y="8"/>
      <point x="560" y="114" type="curve" smooth="yes"/>
      <point x="560" y="233" type="line" smooth="yes"/>
      <point x="560" y="314"/>
      <point x="482" y="322"/>
      <point x="420" y="326" type="curve"/>
      <point x="420" y="337" type="line"/>
      <point x="481" y="342"/>
      <point x="555" y="350"/>
      <point x="555" y="429" type="curve" smooth="yes"/>
      <point x="555" y="632" type="line" smooth="yes"/>
      <point x="555" y="660"/>
      <point x="437" y="665"/>
      <point x="415" y="665" type="curve" smooth="yes"/>
      <point x="40" y="665" type="line"/>
      <point x="40" y="598" type="line"/>
      <point x="275" y="598" type="line"/>
      <point x="275" y="494" type="line" smooth="yes"/>
      <point x="275" y="452"/>
      <point x="284" y="390"/>
      <point x="244" y="365" type="curve"/>
      <point x="60" y="365" type="line"/>
    </contour>
  </outline>
</glyph>
<glyph name="four" format="1">
  <advance width="700"/>
  <unicode hex="0034"/>
  <outline>
    <contour>
      <point x="20" y="665" type="line"/>
      <point x="20" y="256" type="line" smooth="yes"/>
      <point x="20" y="228"/>
      <point x="138" y="222"/>
      <point x="160" y="222" type="curve" smooth="yes"/>
      <point x="390" y="222" type="line"/>
      <point x="390" y="0" type="line"/>
      <point x="670" y="0" type="line"/>
      <point x="670" y="665" type="line"/>
      <point x="390" y="665" type="line"/>
      <point x="390" y="290" type="line"/>
      <point x="300" y="290" type="line"/>
      <point x="300" y="665" type="line"/>
    </contour>
  </outline>
</glyph>
<glyph name="five" format="1">
  <advance width="610"/>
  <unicode hex="0035"/>
  <outline>
    <contour>
      <point x="570" y="664.6" type="line"/>
      <point x="344" y="665" type="line"/>
      <point x="64" y="665" type="line"/>
      <point x="40" y="315" type="line"/>
      <point x="297.44" y="315" type="line"/>
      <point x="299.325" y="309.913"/>
      <point x="300" y="304.458"/>
      <point x="300" y="299" type="curve" smooth="yes"/>
      <point x="300" y="84" type="line" smooth="yes"/>
      <point x="300" y="78.4"/>
      <point x="299.3" y="72.8"/>
      <point x="297.3" y="67.6" type="curve"/>
      <point x="30" y="67.6" type="line"/>
      <point x="30" y="0.4" type="line"/>
      <point x="390" y="0.4" type="line" smooth="yes"/>
      <point x="446.3" y="0.4"/>
      <point x="580" y="3.8"/>
      <point x="580" y="84" type="curve" smooth="yes"/>
      <point x="580" y="299" type="line" smooth="yes"/>
      <point x="580" y="379.2"/>
      <point x="446.3" y="382.6"/>
      <point x="390" y="382.6" type="curve" smooth="yes"/>
      <point x="324.635" y="382.6" type="line"/>
      <point x="339.365" y="597.4" type="line"/>
      <point x="570" y="597.4" type="line"/>
    </contour>
  </outline>
</glyph>
<glyph name="six" format="1">
  <advance width="680"/>
  <unicode hex="0036"/>
  <outline>
    <contour>
      <point x="640" y="665" type="line"/>
      <point x="170" y="665" type="line" smooth="yes"/>
      <point x="148" y="665"/>
      <point x="30" y="660"/>
      <point x="30" y="632" type="curve" smooth="yes"/>
      <point x="30" y="34" type="line" smooth="yes"/>
      <point x="30" y="6"/>
      <point x="148" y="0"/>
      <point x="170" y="0" type="curve" smooth="yes"/>
      <point x="510" y="0" type="line" smooth="yes"/>
      <point x="532" y="0"/>
      <point x="650" y="5"/>
      <point x="650" y="34" type="curve" smooth="yes"/>
      <point x="650" y="393" type="line" smooth="yes"/>
      <point x="650" y="426"/>
      <point x="506" y="427"/>
      <point x="480" y="427" type="curve" smooth="yes"/>
      <point x="447" y="427"/>
      <point x="326" y="426"/>
      <point x="310" y="397" type="curve"/>
      <point x="310" y="598" type="line"/>
      <point x="640" y="598" type="line"/>
    </contour>
    <contour>
      <point x="310" y="67" type="line"/>
      <point x="310" y="359" type="line"/>
      <point x="370" y="359" type="line"/>
      <point x="370" y="67" type="line"/>
    </contour>
  </outline>
</glyph>
<glyph name="seven" format="1">
  <advance width="580"/>
  <unicode hex="0037"/>
  <outline>
    <contour>
      <point x="30" y="597" type="line"/>
      <point x="270" y="597" type="line"/>
      <point x="90" y="0" type="line"/>
      <point x="370" y="0" type="line"/>
      <point x="518" y="489" type="line" smooth="yes"/>
      <point x="524" y="508"/>
      <point x="560" y="623"/>
      <point x="560" y="631" type="curve" smooth="yes"/>
      <point x="560" y="659"/>
      <point x="442" y="665"/>
      <point x="420" y="665" type="curve" smooth="yes"/>
      <point x="30" y="665" type="line"/>
    </contour>
  </outline>
</glyph>
<glyph name="eight" format="1">
  <advance width="700"/>
  <unicode hex="0038"/>
  <outline>
    <contour>
      <point x="247" y="347" type="line"/>
      <point x="85" y="293" type="line"/>
      <point x="75" y="290"/>
      <point x="30" y="278"/>
      <point x="30" y="264" type="curve" smooth="yes"/>
      <point x="30" y="34" type="line" smooth="yes"/>
      <point x="30" y="5"/>
      <point x="148" y="0"/>
      <point x="170" y="0" type="curve" smooth="yes"/>
      <point x="530" y="0" type="line" smooth="yes"/>
      <point x="552" y="0"/>
      <point x="670" y="5"/>
      <point x="670" y="34" type="curve" smooth="yes"/>
      <point x="670" y="260" type="line" smooth="yes"/>
      <point x="670" y="288"/>
      <point x="552" y="294"/>
      <point x="530" y="294" type="curve" smooth="yes"/>
      <point x="431" y="294" type="line"/>
      <point x="605" y="352" type="line"/>
      <point x="615" y="355"/>
      <point x="660" y="367"/>
      <point x="660" y="381" type="curve" smooth="yes"/>
      <point x="660" y="632" type="line" smooth="yes"/>
      <point x="660" y="660"/>
      <point x="542" y="665"/>
      <point x="520" y="665" type="curve" smooth="yes"/>
      <point x="180" y="665" type="line" smooth="yes"/>
      <point x="158" y="665"/>
      <point x="40" y="660"/>
      <point x="40" y="632" type="curve" smooth="yes"/>
      <point x="40" y="381" type="line" smooth="yes"/>
      <point x="40" y="353"/>
      <point x="158" y="347"/>
      <point x="180" y="347" type="curve" smooth="yes"/>
    </contour>
    <contour>
      <point x="320" y="372" type="line"/>
      <point x="320" y="598" type="line"/>
      <point x="380" y="598" type="line"/>
      <point x="380" y="392" type="line"/>
    </contour>
    <contour>
      <point x="310" y="67" type="line"/>
      <point x="310" y="253" type="line"/>
      <point x="390" y="280" type="line"/>
      <point x="390" y="67" type="line"/>
    </contour>
  </outline>
</glyph>
<glyph name="nine" format="1">
  <advance width="680"/>
  <unicode hex="0039"/>
  <outline>
    <contour>
      <point x="40" y="0" type="line"/>
      <point x="510" y="0" type="line" smooth="yes"/>
      <point x="532" y="0"/>
      <point x="650" y="6"/>
      <point x="650" y="34" type="curve" smooth="yes"/>
      <point x="650" y="632" type="line" smooth="yes"/>
      <point x="650" y="660"/>
      <point x="532" y="665"/>
      <point x="510" y="665" type="curve" smooth="yes"/>
      <point x="170" y="665" type="line" smooth="yes"/>
      <point x="148" y="665"/>
      <point x="30" y="660"/>
      <point x="30" y="632" type="curve" smooth="yes"/>
      <point x="30" y="235" type="line" smooth="yes"/>
      <point x="30" y="202"/>
      <point x="175" y="201"/>
      <point x="201" y="201" type="curve" smooth="yes"/>
      <point x="234" y="201"/>
      <point x="354" y="202"/>
      <point x="370" y="231" type="curve"/>
      <point x="370" y="67" type="line"/>
      <point x="40" y="67" type="line"/>
    </contour>
    <contour>
      <point x="310" y="269" type="line"/>
      <point x="310" y="598" type="line"/>
      <point x="370" y="598" type="line"/>
      <point x="370" y="269" type="line"/>
    </contour>
  </outline>
</glyph>
<glyph name="colon" format="1">
  <advance width="260"/>
  <unicode hex="003A"/>
  <outline>
    <contour>
      <point x="210" y="454.2" type="line"/>
      <point x="130" y="454.2" type="line" smooth="yes"/>
      <point x="117.3" y="454.2"/>
      <point x="50" y="451.2"/>
      <point x="50" y="435" type="curve" smooth="yes"/>
      <point x="50" y="325.8" type="line"/>
      <point x="130" y="325.8" type="line" smooth="yes"/>
      <point x="142.7" y="325.8"/>
      <point x="210" y="328.8"/>
      <point x="210" y="345" type="curve" smooth="yes"/>
    </contour>
    <contour>
      <point x="210" y="138.2" type="line"/>
      <point x="130" y="138.2" type="line" smooth="yes"/>
      <point x="117.3" y="138.2"/>
      <point x="50" y="135.2"/>
      <point x="50" y="119" type="curve" smooth="yes"/>
      <point x="50" y="9.8" type="line"/>
      <point x="130" y="9.8" type="line" smooth="yes"/>
      <point x="142.7" y="9.8"/>
      <point x="210" y="12.8"/>
      <point x="210" y="29" type="curve" smooth="yes"/>
    </contour>
  </outline>
</glyph>
<glyph name="semicolon" format="1">
  <advance width="308"/>
  <unicode hex="003B"/>
  <outline>
    <contour>
      <point x="70" y="326" type="line"/>
      <point x="150" y="326" type="line" smooth="yes"/>
      <point x="163" y="326"/>
      <point x="230" y="329"/>
      <point x="230" y="345" type="curve" smooth="yes"/>
      <point x="230" y="454" type="line"/>
      <point x="150" y="454" type="line" smooth="yes"/>
      <point x="137" y="454"/>
      <point x="70" y="451"/>
      <point x="70" y="435" type="curve" smooth="yes"/>
    </contour>
    <contour>
      <point x="75" y="74" type="line"/>
      <point x="65" y="-121" type="line"/>
      <point x="215" y="-121" type="line"/>
      <point x="225" y="79" type="line" smooth="yes"/>
      <point x="225.8" y="94"/>
      <point x="161.6" y="97"/>
      <point x="150" y="97" type="curve" smooth="yes"/>
      <point x="75" y="97" type="line"/>
    </contour>
  </outline>
</glyph>
<glyph name="less" format="1">
  <advance width="637"/>
  <unicode hex="003C"/>
  <outline>
    <contour>
      <point x="267" y="250" type="line"/>
      <point x="607" y="490" type="line"/>
      <point x="381" y="510" type="line"/>
      <point x="50" y="277" type="line" smooth="yes"/>
      <point x="43" y="272"/>
      <point x="20" y="258"/>
      <point x="20" y="250" type="curve" smooth="yes"/>
      <point x="20" y="242"/>
      <point x="43" y="228"/>
      <point x="50" y="223" type="curve" smooth="yes"/>
      <point x="381" y="-10" type="line"/>
      <point x="607" y="10" type="line"/>
    </contour>
  </outline>
</glyph>
<glyph name="equal" format="1">
  <advance width="480"/>
  <unicode hex="003D"/>
  <outline>
    <contour>
      <point x="30" y="309" type="line"/>
      <point x="450" y="309" type="line"/>
      <point x="450" y="377" type="line"/>
      <point x="30" y="377" type="line"/>
    </contour>
    <contour>
      <point x="30" y="109" type="line"/>
      <point x="450" y="109" type="line"/>
      <point x="450" y="177" type="line"/>
      <point x="30" y="177" type="line"/>
    </contour>
  </outline>
</glyph>
<glyph name="greater" format="1">
  <advance width="637"/>
  <unicode hex="003E"/>
  <outline>
    <contour>
      <point x="30" y="10" type="line"/>
      <point x="256" y="-10" type="line"/>
      <point x="587" y="223" type="line" smooth="yes"/>
      <point x="594" y="228"/>
      <point x="617" y="242"/>
      <point x="617" y="250" type="curve" smooth="yes"/>
      <point x="617" y="258"/>
      <point x="594" y="272"/>
      <point x="587" y="277" type="curve" smooth="yes"/>
      <point x="256" y="510" type="line"/>
      <point x="30" y="490" type="line"/>
      <point x="370" y="250" type="line"/>
    </contour>
  </outline>
</glyph>
<glyph name="question" format="1">
  <advance width="520"/>
  <unicode hex="003F"/>
  <outline>
    <contour>
      <point x="40" y="212" type="line"/>
      <point x="350" y="212" type="line" smooth="yes"/>
      <point x="372" y="212"/>
      <point x="490" y="218"/>
      <point x="490" y="246" type="curve" smooth="yes"/>
      <point x="490" y="631" type="line" smooth="yes"/>
      <point x="490" y="659"/>
      <point x="372" y="665"/>
      <point x="350" y="665" type="curve" smooth="yes"/>
      <point x="30" y="665" type="line"/>
      <point x="30" y="597" type="line"/>
      <point x="210" y="597" type="line"/>
      <point x="210" y="280" type="line"/>
      <point x="180" y="280" type="line" smooth="yes"/>
      <point x="153" y="280"/>
      <point x="54" y="275"/>
      <point x="41" y="250" type="curve"/>
      <point x="39" y="247"/>
      <point x="40" y="241"/>
      <point x="40" y="238" type="curve" smooth="yes"/>
    </contour>
    <contour>
      <point x="40" y="0" type="line"/>
      <point x="120" y="0" type="line" smooth="yes"/>
      <point x="133" y="0"/>
      <point x="200" y="3"/>
      <point x="200" y="19" type="curve" smooth="yes"/>
      <point x="200" y="128" type="line"/>
      <point x="120" y="128" type="line" smooth="yes"/>
      <point x="107" y="128"/>
      <point x="40" y="125"/>
      <point x="40" y="109" type="curve" smooth="yes"/>
    </contour>
  </outline>
</glyph>
<glyph name="at" format="1">
  <advance width="1090"/>
  <unicode hex="0040"/>
  <outline>
    <contour>
      <point x="790" y="-122" type="line"/>
      <point x="115" y="-122" type="line"/>
      <point x="111" y="-117"/>
      <point x="110" y="-110"/>
      <point x="110" y="-105" type="curve" smooth="yes"/>
      <point x="110" y="563" type="line" smooth="yes"/>
      <point x="110" y="571"/>
      <point x="112" y="580"/>
      <point x="121" y="580" type="curve" smooth="yes"/>
      <point x="969" y="580" type="line" smooth="yes"/>
      <point x="979" y="580"/>
      <point x="980" y="571"/>
      <point x="980" y="563" type="curve" smooth="yes"/>
      <point x="980" y="85" type="line" smooth="yes"/>
      <point x="980" y="78"/>
      <point x="978" y="68"/>
      <point x="969" y="68" type="curve" smooth="yes"/>
      <point x="872" y="68" type="line"/>
      <point x="872" y="424" type="line" smooth="yes"/>
      <point x="872" y="452"/>
      <point x="763" y="458"/>
      <point x="732" y="458" type="curve" smooth="yes"/>
      <point x="362" y="458" type="line" smooth="yes"/>
      <point x="340" y="458"/>
      <point x="222" y="452"/>
      <point x="222" y="424" type="curve" smooth="yes"/>
      <point x="222" y="34" type="line" smooth="yes"/>
      <point x="222" y="6"/>
      <point x="340" y="0"/>
      <point x="362" y="0" type="curve" smooth="yes"/>
      <point x="454" y="0" type="line" smooth="yes"/>
      <point x="481" y="0"/>
      <point x="581" y="5"/>
      <point x="593" y="30" type="curve"/>
      <point x="604" y="6"/>
      <point x="711" y="0"/>
      <point x="732" y="0" type="curve" smooth="yes"/>
      <point x="960" y="0" type="line" smooth="yes"/>
      <point x="1013" y="0"/>
      <point x="1060" y="26"/>
      <point x="1060" y="84" type="curve" smooth="yes"/>
      <point x="1060" y="564" type="line" smooth="yes"/>
      <point x="1060" y="615"/>
      <point x="1019" y="648"/>
      <point x="970" y="648" type="curve" smooth="yes"/>
      <point x="120" y="648" type="line" smooth="yes"/>
      <point x="71" y="648"/>
      <point x="30" y="615"/>
      <point x="30" y="564" type="curve" smooth="yes"/>
      <point x="30" y="-106" type="line" smooth="yes"/>
      <point x="30" y="-157"/>
      <point x="71" y="-190"/>
      <point x="120" y="-190" type="curve" smooth="yes"/>
      <point x="830" y="-190" type="line" smooth="yes"/>
      <point x="849" y="-190"/>
      <point x="870" y="-177"/>
      <point x="870" y="-156" type="curve" smooth="yes"/>
      <point x="870" y="-57" type="line"/>
      <point x="790" y="-57" type="line"/>
    </contour>
    <contour>
      <point x="502" y="68" type="line"/>
      <point x="502" y="390" type="line"/>
      <point x="592" y="390" type="line"/>
      <point x="592" y="68" type="line"/>
    </contour>
  </outline>
</glyph>
<glyph name="A" format="1">
  <advance width="780"/>
  <unicode hex="0041"/>
  <outline>
    <contour>
      <point x="320" y="0" type="line"/>
      <point x="320" y="271" type="line"/>
      <point x="460" y="271" type="line"/>
      <point x="460" y="0" type="line"/>
      <point x="750" y="0" type="line"/>
      <point x="750" y="630" type="line" smooth="yes"/>
      <point x="750" y="659"/>
      <point x="628" y="665"/>
      <point x="605" y="665" type="curve" smooth="yes"/>
      <point x="175" y="665" type="line" smooth="yes"/>
      <point x="152" y="665"/>
      <point x="30" y="659"/>
      <point x="30" y="630" type="curve" smooth="yes"/>
      <point x="30" y="0" type="line"/>
    </contour>
    <contour>
      <point x="320" y="341" type="line"/>
      <point x="320" y="595" type="line"/>
      <point x="460" y="595" type="line"/>
      <point x="460" y="341" type="line"/>
    </contour>
    <contour>
      <point x="605" y="0" type="move" name="bottom"/>
    </contour>
    <contour>
      <point x="390" y="665" type="move" name="top"/>
    </contour>
  </outline>
</glyph>
<glyph name="C" format="1">
  <advance width="615"/>
  <unicode hex="0043"/>
  <outline>
    <contour>
      <point x="585" y="70" type="line"/>
      <point x="320" y="70" type="line"/>
      <point x="320" y="595" type="line"/>
      <point x="585" y="595" type="line"/>
      <point x="585" y="665" type="line"/>
      <point x="175" y="665" type="line" smooth="yes"/>
      <point x="152" y="665"/>
      <point x="30" y="659"/>
      <point x="30" y="630" type="curve" smooth="yes"/>
      <point x="30" y="35" type="line" smooth="yes"/>
      <point x="30" y="6"/>
      <point x="152" y="0"/>
      <point x="175" y="0" type="curve" smooth="yes"/>
      <point x="585" y="0" type="line"/>
    </contour>
    <contour>
      <point x="328" y="0" type="move" name="bottom"/>
    </contour>
    <contour>
      <point x="308" y="665" type="move" name="top"/>
    </contour>
  </outline>
</glyph>
<glyph name="D" format="1">
  <advance width="781"/>
  <unicode hex="0044"/>
  <outline>
    <contour>
      <point x="30" y="0" type="line"/>
      <point x="526" y="0" type="line" smooth="yes"/>
      <point x="604" y="0"/>
      <point x="751" y="7"/>
      <point x="751" y="115" type="curve" smooth="yes"/>
      <point x="751" y="550" type="line" smooth="yes"/>
      <point x="751" y="658"/>
      <point x="604" y="665"/>
      <point x="526" y="665" type="curve" smooth="yes"/>
      <point x="30" y="665" type="line"/>
    </contour>
    <contour>
      <point x="320" y="70" type="line"/>
      <point x="320" y="595" type="line"/>
      <point x="447" y="595" type="line"/>
      <point x="457" y="582"/>
      <point x="461" y="566"/>
      <point x="461" y="550" type="curve" smooth="yes"/>
      <point x="461" y="115" type="line" smooth="yes"/>
      <point x="461" y="99"/>
      <point x="457" y="83"/>
      <point x="447" y="70" type="curve"/>
    </contour>
    <contour>
      <point x="391" y="665" type="move" name="top"/>
    </contour>
  </outline>
</glyph>
<glyph name="F" format="1">
  <advance width="595"/>
  <unicode hex="0046"/>
  <outline>
    <contour>
      <point x="320" y="0" type="line"/>
      <point x="320" y="291" type="line"/>
      <point x="564" y="291" type="line"/>
      <point x="564" y="361" type="line"/>
      <point x="320" y="361" type="line"/>
      <point x="320" y="595" type="line"/>
      <point x="575" y="595" type="line"/>
      <point x="575" y="665" type="line"/>
      <point x="175" y="665" type="line" smooth="yes"/>
      <point x="152" y="665"/>
      <point x="30" y="659"/>
      <point x="30" y="630" type="curve" smooth="yes"/>
      <point x="30" y="0" type="line"/>
    </contour>
  </outline>
</glyph>
<glyph name="G" format="1">
  <advance width="760"/>
  <unicode hex="0047"/>
  <outline>
    <contour>
      <point x="715" y="664.8" type="line"/>
      <point x="175" y="664.8" type="line" smooth="yes"/>
      <point x="151.9" y="664.8"/>
      <point x="30" y="659.4"/>
      <point x="30" y="630" type="curve" smooth="yes"/>
      <point x="30" y="35" type="line" smooth="yes"/>
      <point x="30" y="5.6"/>
      <point x="151.9" y="0.2"/>
      <point x="175" y="0.2" type="curve" smooth="yes"/>
      <point x="585" y="0.2" type="line" smooth="yes"/>
      <point x="608.1" y="0.2"/>
      <point x="730" y="5.6"/>
      <point x="730" y="35" type="curve" smooth="yes"/>
      <point x="730" y="360" type="line"/>
      <point x="440" y="360" type="line"/>
      <point x="440" y="69.8" type="line"/>
      <point x="320" y="69.8" type="line"/>
      <point x="320" y="595.2" type="line"/>
      <point x="715" y="595.2" type="line"/>
    </contour>
  </outline>
</glyph>
<glyph name="I" format="1">
  <advance width="350"/>
  <unicode hex="0049"/>
  <outline>
    <contour>
      <point x="30" y="665" type="line"/>
      <point x="30" y="0" type="line"/>
      <point x="320" y="0" type="line"/>
      <point x="320" y="665" type="line"/>
    </contour>
    <contour>
      <point x="175" y="0" type="move" name="bottom"/>
    </contour>
    <contour>
      <point x="175" y="665" type="move" name="top"/>
    </contour>
  </outline>
</glyph>
<glyph name="J" format="1">
  <advance width="382"/>
  <unicode hex="004A"/>
  <outline>
    <contour>
      <point x="62" y="665" type="line"/>
      <point x="62" y="470"/>
      <point x="62" y="276"/>
      <point x="62" y="81" type="curve" smooth="yes"/>
      <point x="62" y="28"/>
      <point x="51.2" y="8.9"/>
      <point x="34" y="-39" type="curve" smooth="yes"/>
      <point x="-10" y="-162" type="line"/>
      <point x="278" y="-168" type="line"/>
      <point x="323" y="-45" type="line" smooth="yes"/>
      <point x="336.5" y="-8.2"/>
      <point x="352" y="26"/>
      <point x="352" y="66" type="curve" smooth="yes"/>
      <point x="352" y="665" type="line"/>
    </contour>
    <contour>
      <point x="207" y="665" type="move" name="top"/>
    </contour>
  </outline>
</glyph>
<glyph name="K" format="1">
  <advance width="750"/>
  <unicode hex="004B"/>
  <outline>
    <contour>
      <point x="320" y="0" type="line"/>
      <point x="320" y="280" type="line"/>
      <point x="568" y="337" type="line" smooth="yes"/>
      <point x="590" y="342"/>
      <point x="654" y="352"/>
      <point x="668" y="369" type="curve"/>
      <point x="671" y="373"/>
      <point x="681" y="429"/>
      <point x="683" y="439" type="curve" smooth="yes"/>
      <point x="730" y="663" type="line"/>
      <point x="440" y="667" type="line"/>
      <point x="383" y="391" type="line"/>
      <point x="320" y="377" type="line"/>
      <point x="320" y="665" type="line"/>
      <point x="30" y="665" type="line"/>
      <point x="30" y="0" type="line"/>
    </contour>
    <contour>
      <point x="710" y="0" type="line"/>
      <point x="710" y="255" type="line" smooth="yes"/>
      <point x="710" y="284"/>
      <point x="588" y="290"/>
      <point x="565" y="290" type="curve" smooth="yes"/>
      <point x="420" y="290" type="line"/>
      <point x="420" y="0" type="line"/>
    </contour>
    <contour>
      <point x="380" y="0" type="move" name="bottom"/>
    </contour>
    <contour>
      <point x="380" y="665" type="move" name="top"/>
    </contour>
  </outline>
</glyph>
<glyph name="M" format="1">
  <advance width="1130"/>
  <unicode hex="004D"/>
  <outline>
    <contour>
      <point x="1100" y="0" type="line"/>
      <point x="1100" y="630" type="line" smooth="yes"/>
      <point x="1100" y="659"/>
      <point x="978" y="665"/>
      <point x="955" y="665" type="curve" smooth="yes"/>
      <point x="853" y="665" type="line" smooth="yes"/>
      <point x="826" y="665"/>
      <point x="721" y="660"/>
      <point x="709" y="635" type="curve"/>
      <point x="697" y="660"/>
      <point x="587" y="665"/>
      <point x="565" y="665" type="curve" smooth="yes"/>
      <point x="175" y="665" type="line" smooth="yes"/>
      <point x="152" y="665"/>
      <point x="30" y="659"/>
      <point x="30" y="630" type="curve" smooth="yes"/>
      <point x="30" y="0" type="line"/>
      <point x="320" y="0" type="line"/>
      <point x="320" y="595" type="line"/>
      <point x="420" y="595" type="line"/>
      <point x="420" y="0" type="line"/>
      <point x="710" y="0" type="line"/>
      <point x="710" y="595" type="line"/>
      <point x="810" y="595" type="line"/>
      <point x="810" y="0" type="line"/>
    </contour>
  </outline>
</glyph>
<glyph name="N" format="1">
  <advance width="773"/>
  <unicode hex="004E"/>
  <outline>
    <contour>
      <point x="320" y="0" type="line"/>
      <point x="320" y="595" type="line"/>
      <point x="451" y="595" type="line"/>
      <point x="457" y="579"/>
      <point x="453" y="417"/>
      <point x="453" y="387" type="curve" smooth="yes"/>
      <point x="453" y="0" type="line"/>
      <point x="743" y="0" type="line"/>
      <point x="743" y="580" type="line" smooth="yes"/>
      <point x="743" y="661"/>
      <point x="605" y="665"/>
      <point x="548" y="665" type="curve" smooth="yes"/>
      <point x="175" y="665" type="line" smooth="yes"/>
      <point x="152" y="665"/>
      <point x="30" y="659"/>
      <point x="30" y="630" type="curve" smooth="yes"/>
      <point x="30" y="0" type="line"/>
    </contour>
    <contour>
      <point x="387" y="0" type="move" name="bottom"/>
    </contour>
    <contour>
      <point x="387" y="665" type="move" name="top"/>
    </contour>
  </outline>
</glyph>
<glyph name="O" format="1">
  <advance width="781"/>
  <unicode hex="004F"/>
  <outline>
    <contour>
      <point x="606" y="0.2" type="line" smooth="yes"/>
      <point x="629.1" y="0.2"/>
      <point x="751" y="5.6"/>
      <point x="751" y="35" type="curve" smooth="yes"/>
      <point x="751" y="630" type="line" smooth="yes"/>
      <point x="751" y="659.4"/>
      <point x="629.1" y="664.8"/>
      <point x="606" y="664.8" type="curve" smooth="yes"/>
      <point x="175" y="664.8" type="line" smooth="yes"/>
      <point x="151.9" y="664.8"/>
      <point x="30" y="659.4"/>
      <point x="30" y="630" type="curve" smooth="yes"/>
      <point x="30" y="35" type="line" smooth="yes"/>
      <point x="30" y="5.6"/>
      <point x="151.9" y="0.2"/>
      <point x="175" y="0.2" type="curve" smooth="yes"/>
    </contour>
    <contour>
      <point x="320" y="69.8" type="line"/>
      <point x="320" y="595.2" type="line"/>
      <point x="461" y="595.2" type="line"/>
      <point x="461" y="69.8" type="line"/>
    </contour>
    <contour>
      <point x="391" y="0" type="move" name="bottom"/>
    </contour>
    <contour>
      <point x="391" y="665" type="move" name="top"/>
    </contour>
  </outline>
</glyph>
<glyph name="P" format="1">
  <advance width="740"/>
  <unicode hex="0050"/>
  <outline>
    <contour>
      <point x="320" y="0" type="line"/>
      <point x="320" y="194.2" type="line"/>
      <point x="565" y="194.2" type="line" smooth="yes"/>
      <point x="588.1" y="194.2"/>
      <point x="710" y="199.6"/>
      <point x="710" y="229" type="curve" smooth="yes"/>
      <point x="710" y="630" type="line" smooth="yes"/>
      <point x="710" y="659.4"/>
      <point x="588.1" y="664.8"/>
      <point x="565" y="664.8" type="curve" smooth="yes"/>
      <point x="175" y="664.8" type="line" smooth="yes"/>
      <point x="151.9" y="664.8"/>
      <point x="30" y="659.4"/>
      <point x="30" y="630" type="curve" smooth="yes"/>
      <point x="30" y="0" type="line"/>
    </contour>
    <contour>
      <point x="320" y="263.8" type="line"/>
      <point x="320" y="595.2" type="line"/>
      <point x="420" y="595.2" type="line"/>
      <point x="420" y="263.8" type="line"/>
    </contour>
  </outline>
</glyph>
<glyph name="Q" format="1">
  <advance width="780"/>
  <unicode hex="0051"/>
  <outline>
    <contour>
      <point x="760" y="70" type="line"/>
      <point x="620" y="70" type="line"/>
      <point x="620" y="80" type="line"/>
      <point x="660" y="82"/>
      <point x="750" y="90"/>
      <point x="750" y="115" type="curve" smooth="yes"/>
      <point x="750" y="630" type="line" smooth="yes"/>
      <point x="750" y="659"/>
      <point x="628" y="665"/>
      <point x="605" y="665" type="curve" smooth="yes"/>
      <point x="175" y="665" type="line" smooth="yes"/>
      <point x="152" y="665"/>
      <point x="30" y="659"/>
      <point x="30" y="630" type="curve" smooth="yes"/>
      <point x="30" y="35" type="line" smooth="yes"/>
      <point x="30" y="6"/>
      <point x="152" y="0"/>
      <point x="175" y="0" type="curve" smooth="yes"/>
      <point x="760" y="0" type="line"/>
    </contour>
    <contour>
      <point x="320" y="70" type="line"/>
      <point x="320" y="595" type="line"/>
      <point x="460" y="595" type="line"/>
      <point x="460" y="70" type="line"/>
    </contour>
  </outline>
</glyph>
<glyph name="R" format="1">
  <advance width="778"/>
  <unicode hex="0052"/>
  <outline>
    <contour>
      <point x="320" y="0" type="line"/>
      <point x="320" y="296" type="line"/>
      <point x="353" y="222"/>
      <point x="447" y="24"/>
      <point x="460" y="-5" type="curve"/>
      <point x="748" y="5" type="line"/>
      <point x="603" y="316" type="line"/>
      <point x="621" y="323"/>
      <point x="720" y="353"/>
      <point x="720" y="371" type="curve" smooth="yes"/>
      <point x="720" y="630" type="line" smooth="yes"/>
      <point x="720" y="659"/>
      <point x="598" y="665"/>
      <point x="575" y="665" type="curve" smooth="yes"/>
      <point x="175" y="665" type="line" smooth="yes"/>
      <point x="152" y="665"/>
      <point x="30" y="659"/>
      <point x="30" y="630" type="curve" smooth="yes"/>
      <point x="30" y="0" type="line"/>
    </contour>
    <contour>
      <point x="430" y="381" type="line"/>
      <point x="401" y="369"/>
      <point x="345" y="354"/>
      <point x="320" y="338" type="curve"/>
      <point x="320" y="595" type="line"/>
      <point x="430" y="595" type="line"/>
    </contour>
    <contour>
      <point x="389" y="0" type="move" name="bottom"/>
    </contour>
    <contour>
      <point x="389" y="665" type="move" name="top"/>
    </contour>
  </outline>
</glyph>
<glyph name="S" format="1">
  <advance width="690"/>
  <unicode hex="0053"/>
  <outline>
    <contour>
      <point x="645" y="665" type="line"/>
      <point x="175" y="665" type="line" smooth="yes"/>
      <point x="152" y="665"/>
      <point x="30" y="659"/>
      <point x="30" y="630" type="curve" smooth="yes"/>
      <point x="30" y="335" type="line" smooth="yes"/>
      <point x="30" y="306"/>
      <point x="152" y="300"/>
      <point x="175" y="300" type="curve" smooth="yes"/>
      <point x="370" y="300" type="line"/>
      <point x="370" y="70" type="line"/>
      <point x="35" y="70" type="line"/>
      <point x="35" y="0" type="line"/>
      <point x="515" y="0" type="line" smooth="yes"/>
      <point x="538" y="0"/>
      <point x="660" y="6"/>
      <point x="660" y="35" type="curve" smooth="yes"/>
      <point x="660" y="335" type="line" smooth="yes"/>
      <point x="660" y="364"/>
      <point x="538" y="370"/>
      <point x="515" y="370" type="curve" smooth="yes"/>
      <point x="320" y="370" type="line"/>
      <point x="320" y="595" type="line"/>
      <point x="645" y="595" type="line"/>
    </contour>
    <contour>
      <point x="345" y="0" type="move" name="bottom"/>
    </contour>
    <contour>
      <point x="345" y="665" type="move" name="top"/>
    </contour>
  </outline>
</glyph>
<glyph name="T" format="1">
  <advance width="640"/>
  <unicode hex="0054"/>
  <outline>
    <contour>
      <point x="465" y="0" type="line"/>
      <point x="465" y="595" type="line"/>
      <point x="620" y="595" type="line"/>
      <point x="620" y="665" type="line"/>
      <point x="20" y="665" type="line"/>
      <point x="20" y="595" type="line"/>
      <point x="175" y="595" type="line"/>
      <point x="175" y="0" type="line"/>
    </contour>
    <contour>
      <point x="320" y="0" type="move" name="bottom"/>
    </contour>
    <contour>
      <point x="320" y="665" type="move" name="top"/>
    </contour>
  </outline>
</glyph>
<glyph name="U" format="1">
  <advance width="772"/>
  <unicode hex="0055"/>
  <outline>
    <contour>
      <point x="451" y="665" type="line"/>
      <point x="450.4" y="466.6"/>
      <point x="450.3" y="268.2"/>
      <point x="450" y="69.8" type="curve"/>
      <point x="320" y="69.8" type="line"/>
      <point x="320" y="665" type="line"/>
      <point x="30" y="665" type="line"/>
      <point x="30" y="35" type="line" smooth="yes"/>
      <point x="30" y="5.6"/>
      <point x="152" y="0.2"/>
      <point x="175" y="0.2" type="curve" smooth="yes"/>
      <point x="595" y="0.2" type="line" smooth="yes"/>
      <point x="617.919" y="0.2"/>
      <point x="738.491" y="4.82214"/>
      <point x="740" y="35" type="curve" smooth="yes"/>
      <point x="742.5" y="102"/>
      <point x="740.3" y="169.6"/>
      <point x="740.3" y="236.7" type="curve" smooth="yes"/>
      <point x="740.3" y="379.4"/>
      <point x="740.5" y="522.2"/>
      <point x="741" y="665" type="curve"/>
    </contour>
    <contour>
      <point x="385" y="0" type="move" name="bottom"/>
    </contour>
    <contour>
      <point x="385" y="665" type="move" name="top"/>
    </contour>
  </outline>
</glyph>
<glyph name="V" format="1">
  <advance width="780"/>
  <unicode hex="0056"/>
  <outline>
    <contour>
      <point x="30" y="665" type="line"/>
      <point x="30" y="35" type="line" smooth="yes"/>
      <point x="30" y="6"/>
      <point x="152" y="0"/>
      <point x="175" y="0" type="curve" smooth="yes"/>
      <point x="470" y="0" type="line" smooth="yes"/>
      <point x="507" y="0"/>
      <point x="569" y="4"/>
      <point x="601" y="20" type="curve" smooth="yes"/>
      <point x="605" y="22"/>
      <point x="609" y="24"/>
      <point x="612" y="27" type="curve"/>
      <point x="631" y="47"/>
      <point x="646" y="71"/>
      <point x="663" y="93" type="curve" smooth="yes"/>
      <point x="691" y="129"/>
      <point x="721" y="165"/>
      <point x="748" y="202" type="curve"/>
      <point x="749" y="204"/>
      <point x="750" y="206"/>
      <point x="750" y="208" type="curve"/>
      <point x="750" y="665" type="line"/>
      <point x="460" y="665" type="line"/>
      <point x="460" y="211" type="line"/>
      <point x="350" y="70" type="line"/>
      <point x="320" y="70" type="line"/>
      <point x="320" y="665" type="line"/>
    </contour>
  </outline>
</glyph>
<glyph name="W" format="1">
  <advance width="1130"/>
  <unicode hex="0057"/>
  <outline>
    <contour>
      <point x="810" y="665" type="line"/>
      <point x="810" y="622.025"/>
      <point x="810.038" y="579.056"/>
      <point x="810.094" y="536.091" type="curve" smooth="yes"/>
      <point x="810.506" y="278.309" type="line" smooth="yes"/>
      <point x="810.563" y="235.344"/>
      <point x="810.6" y="192.375"/>
      <point x="810.6" y="149.4" type="curve" smooth="yes"/>
      <point x="810.6" y="134.6"/>
      <point x="811.7" y="80.8"/>
      <point x="807.8" y="70" type="curve"/>
      <point x="710" y="70" type="line"/>
      <point x="710" y="665" type="line"/>
      <point x="420" y="665" type="line"/>
      <point x="420" y="69.8" type="line"/>
      <point x="322.3" y="69.8" type="line"/>
      <point x="316.5" y="85.5"/>
      <point x="320" y="247.7"/>
      <point x="320" y="278.3" type="curve" smooth="yes"/>
      <point x="320" y="665" type="line"/>
      <point x="30" y="665" type="line"/>
      <point x="30" y="85" type="line" smooth="yes"/>
      <point x="30" y="3.6"/>
      <point x="168" y="0.2"/>
      <point x="225" y="0.2" type="curve" smooth="yes"/>
      <point x="565" y="0.2" type="line" smooth="yes"/>
      <point x="587.32" y="0.2"/>
      <point x="701.853" y="5.23695"/>
      <point x="710.2" y="30.5" type="curve"/>
      <point x="723.4" y="5"/>
      <point x="826.2" y="0.2"/>
      <point x="854" y="0.2" type="curve" smooth="yes"/>
      <point x="905" y="0.2" type="line" smooth="yes"/>
      <point x="962" y="0.2"/>
      <point x="1100" y="3.6"/>
      <point x="1100" y="85" type="curve" smooth="yes"/>
      <point x="1100" y="665" type="line"/>
    </contour>
    <contour>
      <point x="565" y="665" type="move" name="top"/>
    </contour>
  </outline>
</glyph>
<glyph name="X" format="1">
  <advance width="780"/>
  <unicode hex="0058"/>
  <outline>
    <contour>
      <point x="40" y="665" type="line"/>
      <point x="40" y="410" type="line" smooth="yes"/>
      <point x="40" y="381"/>
      <point x="162" y="375"/>
      <point x="185" y="375" type="curve" smooth="yes"/>
      <point x="330" y="375" type="line"/>
      <point x="330" y="665" type="line"/>
    </contour>
    <contour>
      <point x="320" y="0" type="line"/>
      <point x="320" y="274" type="line"/>
      <point x="651" y="339" type="line"/>
      <point x="668" y="342"/>
      <point x="750" y="354"/>
      <point x="750" y="375" type="curve" smooth="yes"/>
      <point x="750" y="665" type="line"/>
      <point x="460" y="665" type="line"/>
      <point x="460" y="391" type="line"/>
      <point x="129" y="326" type="line"/>
      <point x="112" y="323"/>
      <point x="30" y="311"/>
      <point x="30" y="290" type="curve" smooth="yes"/>
      <point x="30" y="0" type="line"/>
    </contour>
    <contour>
      <point x="740" y="0" type="line"/>
      <point x="740" y="255" type="line" smooth="yes"/>
      <point x="740" y="284"/>
      <point x="618" y="290"/>
      <point x="595" y="290" type="curve" smooth="yes"/>
      <point x="450" y="290" type="line"/>
      <point x="450" y="0" type="line"/>
    </contour>
  </outline>
</glyph>
<glyph name="Y" format="1">
  <advance width="790"/>
  <unicode hex="0059"/>
  <outline>
    <contour>
      <point x="547" y="0" type="line"/>
      <point x="547" y="177" type="line"/>
      <point x="679" y="215" type="line"/>
      <point x="694" y="219"/>
      <point x="760" y="232"/>
      <point x="760" y="251" type="curve" smooth="yes"/>
      <point x="760" y="665" type="line"/>
      <point x="470" y="665" type="line"/>
      <point x="470" y="264" type="line"/>
      <point x="338" y="226" type="line"/>
      <point x="323" y="222"/>
      <point x="257" y="209"/>
      <point x="257" y="190" type="curve" smooth="yes"/>
      <point x="257" y="0" type="line"/>
    </contour>
    <contour>
      <point x="30" y="665" type="line"/>
      <point x="30" y="290" type="line" smooth="yes"/>
      <point x="30" y="261"/>
      <point x="152" y="255"/>
      <point x="175" y="255" type="curve" smooth="yes"/>
      <point x="320" y="255" type="line"/>
      <point x="320" y="665" type="line"/>
    </contour>
    <contour>
      <point x="395" y="665" type="move" name="top"/>
    </contour>
  </outline>
</glyph>
<glyph name="Z" format="1">
  <advance width="654"/>
  <unicode hex="005A"/>
  <outline>
    <contour>
      <point x="52" y="593" type="line"/>
      <point x="305.1" y="593" type="line"/>
      <point x="276.9" y="536"/>
      <point x="31" y="41.4"/>
      <point x="30.7" y="36" type="curve" smooth="yes"/>
      <point x="29.3" y="5.4"/>
      <point x="156.1" y="0"/>
      <point x="179" y="0" type="curve" smooth="yes"/>
      <point x="619" y="0" type="line"/>
      <point x="622.4" y="72" type="line"/>
      <point x="349.3" y="72" type="line"/>
      <point x="377.5" y="129"/>
      <point x="623.4" y="623.6"/>
      <point x="623.7" y="629" type="curve" smooth="yes"/>
      <point x="625.1" y="659.6"/>
      <point x="498.3" y="665"/>
      <point x="475.4" y="665" type="curve" smooth="yes"/>
      <point x="55.4" y="665" type="line"/>
    </contour>
    <contour>
      <point x="327" y="665" type="move" name="top"/>
    </contour>
  </outline>
</glyph>
<glyph name="bracketleft" format="1">
  <advance width="405"/>
  <unicode hex="005B"/>
  <outline>
    <contour>
      <point x="375" y="-20" type="line"/>
      <point x="270" y="-20" type="line"/>
      <point x="270" y="635" type="line"/>
      <point x="375" y="635" type="line"/>
      <point x="375" y="695" type="line"/>
      <point x="150" y="695" type="line" smooth="yes"/>
      <point x="130.4" y="695"/>
      <point x="30" y="690.3"/>
      <point x="30" y="665" type="curve" smooth="yes"/>
      <point x="30" y="-50" type="line" smooth="yes"/>
      <point x="30" y="-75.3"/>
      <point x="130.4" y="-80"/>
      <point x="150" y="-80" type="curve" smooth="yes"/>
      <point x="375" y="-80" type="line"/>
    </contour>
  </outline>
</glyph>
<glyph name="backslash" format="1">
  <advance width="460"/>
  <unicode hex="005C"/>
  <outline>
    <contour>
      <point x="140" y="666" type="line"/>
      <point x="440" y="-59" type="line"/>
      <point x="320" y="-61" type="line"/>
      <point x="20" y="664" type="line"/>
    </contour>
  </outline>
</glyph>
<glyph name="bracketright" format="1">
  <advance width="405"/>
  <unicode hex="005D"/>
  <outline>
    <contour>
      <point x="30" y="-80" type="line"/>
      <point x="255" y="-80" type="line" smooth="yes"/>
      <point x="275" y="-80"/>
      <point x="375" y="-75"/>
      <point x="375" y="-50" type="curve" smooth="yes"/>
      <point x="375" y="665" type="line" smooth="yes"/>
      <point x="375" y="690"/>
      <point x="275" y="695"/>
      <point x="255" y="695" type="curve" smooth="yes"/>
      <point x="30" y="695" type="line"/>
      <point x="30" y="635" type="line"/>
      <point x="135" y="635" type="line"/>
      <point x="135" y="-20" type="line"/>
      <point x="30" y="-20" type="line"/>
    </contour>
  </outline>
</glyph>
<glyph name="asciicircum" format="1">
  <advance width="504"/>
  <unicode hex="005E"/>
  <outline>
    <contour>
      <point x="169" y="481" type="line"/>
      <point x="252" y="624" type="line"/>
      <point x="336" y="480" type="line"/>
      <point x="474" y="484" type="line"/>
      <point x="361" y="680" type="line" smooth="yes"/>
      <point x="354" y="692"/>
      <point x="306" y="694"/>
      <point x="292" y="694" type="curve" smooth="yes"/>
      <point x="212" y="694" type="line" smooth="yes"/>
      <point x="198" y="694"/>
      <point x="150" y="692"/>
      <point x="143" y="680" type="curve" smooth="yes"/>
      <point x="30" y="485" type="line"/>
    </contour>
  </outline>
</glyph>
<glyph name="underscore" format="1">
  <advance width="560"/>
  <unicode hex="005F"/>
  <outline>
    <contour>
      <point x="30" y="-68" type="line"/>
      <point x="530" y="-68" type="line"/>
      <point x="530" y="0" type="line"/>
      <point x="30" y="0" type="line"/>
    </contour>
  </outline>
</glyph>
<glyph name="grave" format="1">
  <advance width="352"/>
  <unicode hex="0060"/>
  <outline>
    <contour>
      <point x="301" y="747" type="line"/>
      <point x="321" y="817" type="line"/>
      <point x="54" y="890" type="line"/>
      <point x="30" y="812" type="line"/>
    </contour>
    <contour>
      <point x="197" y="665" type="move" name="_top"/>
    </contour>
  </outline>
</glyph>
<glyph name="a" format="1">
  <advance width="706"/>
  <unicode hex="0061"/>
  <outline>
    <contour>
      <point x="49" y="432" type="line"/>
      <point x="399" y="432" type="line"/>
      <point x="399" y="309" type="line"/>
      <point x="399" y="310.039"/>
      <point x="398.99" y="312.01"/>
      <point x="398" y="313" type="curve"/>
      <point x="384" y="338"/>
      <point x="287" y="343"/>
      <point x="259" y="343" type="curve" smooth="yes"/>
      <point x="170" y="343" type="line" smooth="yes"/>
      <point x="148" y="343"/>
      <point x="30" y="337"/>
      <point x="30" y="309" type="curve" smooth="yes"/>
      <point x="30" y="34" type="line" smooth="yes"/>
      <point x="30" y="6"/>
      <point x="148" y="0"/>
      <point x="170" y="0" type="curve" smooth="yes"/>
      <point x="539" y="0" type="line" smooth="yes"/>
      <point x="561" y="0"/>
      <point x="679" y="6"/>
      <point x="679" y="34" type="curve" smooth="yes"/>
      <point x="679" y="466" type="line" smooth="yes"/>
      <point x="679" y="494"/>
      <point x="561" y="500"/>
      <point x="539" y="500" type="curve" smooth="yes"/>
      <point x="49" y="500" type="line"/>
    </contour>
    <contour>
      <point x="399" y="275" type="line"/>
      <point x="399" y="68" type="line"/>
      <point x="310" y="68" type="line"/>
      <point x="310" y="275" type="line"/>
    </contour>
    <contour>
      <point x="355" y="500" type="move" name="top"/>
    </contour>
  </outline>
</glyph>
<glyph name="b" format="1">
  <advance width="700"/>
  <unicode hex="0062"/>
  <outline>
    <contour>
      <point x="30" y="665" type="line"/>
      <point x="30" y="34" type="line" smooth="yes"/>
      <point x="30" y="5.6"/>
      <point x="147.7" y="0.4"/>
      <point x="170" y="0.4" type="curve" smooth="yes"/>
      <point x="530" y="0.4" type="line" smooth="yes"/>
      <point x="552.3" y="0.4"/>
      <point x="670" y="5.6"/>
      <point x="670" y="34" type="curve" smooth="yes"/>
      <point x="670" y="466" type="line" smooth="yes"/>
      <point x="670" y="494.4"/>
      <point x="552.3" y="499.6"/>
      <point x="530" y="499.6" type="curve" smooth="yes"/>
      <point x="448" y="499.6" type="line" smooth="yes"/>
      <point x="421.084" y="499.6"/>
      <point x="326.142" y="495.256"/>
      <point x="310" y="471.688" type="curve"/>
      <point x="310" y="665" type="line"/>
    </contour>
    <contour>
      <point x="310" y="67.6" type="line"/>
      <point x="310" y="432" type="line"/>
      <point x="390" y="432" type="line"/>
      <point x="390" y="67.6" type="line"/>
    </contour>
  </outline>
</glyph>
<glyph name="c" format="1">
  <advance width="560"/>
  <unicode hex="0063"/>
  <outline>
    <contour>
      <point x="530" y="500" type="line"/>
      <point x="170" y="500" type="line" smooth="yes"/>
      <point x="148" y="500"/>
      <point x="30" y="494"/>
      <point x="30" y="466" type="curve" smooth="yes"/>
      <point x="30" y="34" type="line" smooth="yes"/>
      <point x="30" y="6"/>
      <point x="148" y="0"/>
      <point x="170" y="0" type="curve" smooth="yes"/>
      <point x="530" y="0" type="line"/>
      <point x="530" y="68" type="line"/>
      <point x="310" y="68" type="line"/>
      <point x="310" y="432" type="line"/>
      <point x="530" y="432" type="line"/>
    </contour>
    <contour>
      <point x="280" y="0" type="move" name="bottom"/>
    </contour>
    <contour>
      <point x="300" y="500" type="move" name="top"/>
    </contour>
  </outline>
</glyph>
<glyph name="d" format="1">
  <advance width="700"/>
  <unicode hex="0064"/>
  <outline>
    <contour>
      <point x="390" y="665" type="line"/>
      <point x="390" y="470" type="line"/>
      <point x="376" y="495"/>
      <point x="279" y="500"/>
      <point x="251" y="500" type="curve" smooth="yes"/>
      <point x="170" y="500" type="line" smooth="yes"/>
      <point x="148" y="500"/>
      <point x="30" y="494"/>
      <point x="30" y="466" type="curve" smooth="yes"/>
      <point x="30" y="34" type="line" smooth="yes"/>
      <point x="30" y="6"/>
      <point x="148" y="0"/>
      <point x="170" y="0" type="curve" smooth="yes"/>
      <point x="530" y="0" type="line" smooth="yes"/>
      <point x="552" y="0"/>
      <point x="670" y="6"/>
      <point x="670" y="34" type="curve" smooth="yes"/>
      <point x="670" y="665" type="line"/>
    </contour>
    <contour>
      <point x="310" y="68" type="line"/>
      <point x="310" y="432" type="line"/>
      <point x="390" y="432" type="line"/>
      <point x="390" y="68" type="line"/>
    </contour>
  </outline>
</glyph>
<glyph name="e" format="1">
  <advance width="700"/>
  <unicode hex="0065"/>
  <outline>
    <contour>
      <point x="660" y="68" type="line"/>
      <point x="310" y="68" type="line"/>
      <point x="310" y="172" type="line"/>
      <point x="324" y="147"/>
      <point x="421" y="142"/>
      <point x="449" y="142" type="curve" smooth="yes"/>
      <point x="530" y="142" type="line" smooth="yes"/>
      <point x="552" y="142"/>
      <point x="670" y="148"/>
      <point x="670" y="176" type="curve" smooth="yes"/>
      <point x="670" y="466" type="line" smooth="yes"/>
      <point x="670" y="494"/>
      <point x="552" y="500"/>
      <point x="530" y="500" type="curve" smooth="yes"/>
      <point x="170" y="500" type="line" smooth="yes"/>
      <point x="148" y="500"/>
      <point x="30" y="494"/>
      <point x="30" y="466" type="curve" smooth="yes"/>
      <point x="30" y="34" type="line" smooth="yes"/>
      <point x="30" y="6"/>
      <point x="148" y="0"/>
      <point x="170" y="0" type="curve" smooth="yes"/>
      <point x="660" y="0" type="line"/>
    </contour>
    <contour>
      <point x="310" y="210" type="line"/>
      <point x="310" y="432" type="line"/>
      <point x="390" y="432" type="line"/>
      <point x="390" y="210" type="line"/>
    </contour>
    <contour>
      <point x="350" y="0" type="move" name="bottom"/>
    </contour>
    <contour>
      <point x="350" y="500" type="move" name="top"/>
    </contour>
  </outline>
</glyph>
<glyph name="f" format="1">
  <advance width="540"/>
  <unicode hex="0066"/>
  <outline>
    <contour>
      <point x="20" y="413.4" type="line"/>
      <point x="90" y="413.4" type="line"/>
      <point x="90" y="0" type="line"/>
      <point x="370" y="0" type="line"/>
      <point x="370" y="413.4" type="line"/>
      <point x="510" y="413.4" type="line"/>
      <point x="510" y="480.6" type="line"/>
      <point x="350" y="480.6" type="line"/>
      <point x="350" y="597.3" type="line"/>
      <point x="510" y="597.3" type="line"/>
      <point x="510" y="664.8" type="line"/>
      <point x="215" y="664.8" type="line" smooth="yes"/>
      <point x="193" y="664.8"/>
      <point x="80" y="659.5"/>
      <point x="80" y="631" type="curve" smooth="yes"/>
      <point x="80" y="524" type="line" smooth="yes"/>
      <point x="80" y="495.5"/>
      <point x="193" y="490.3"/>
      <point x="215" y="490.3" type="curve"/>
      <point x="215" y="480.6" type="line"/>
      <point x="20" y="480.6" type="line"/>
    </contour>
  </outline>
</glyph>
<glyph name="g" format="1">
  <advance width="725"/>
  <unicode hex="0067"/>
  <outline>
    <contour>
      <point x="310" y="-107" type="line"/>
      <point x="310" y="-27" type="line"/>
      <point x="170" y="-27" type="line" smooth="yes"/>
      <point x="148" y="-27"/>
      <point x="30" y="-33"/>
      <point x="30" y="-61" type="curve" smooth="yes"/>
      <point x="30" y="-141" type="line" smooth="yes"/>
      <point x="30" y="-169"/>
      <point x="148" y="-175"/>
      <point x="170" y="-175" type="curve" smooth="yes"/>
      <point x="530" y="-175" type="line" smooth="yes"/>
      <point x="552" y="-175"/>
      <point x="670" y="-169"/>
      <point x="670" y="-141" type="curve" smooth="yes"/>
      <point x="670" y="57" type="line" smooth="yes"/>
      <point x="670" y="85"/>
      <point x="552" y="91"/>
      <point x="530" y="91" type="curve" smooth="yes"/>
      <point x="310" y="91" type="line"/>
      <point x="310" y="141" type="line"/>
      <point x="530" y="141" type="line" smooth="yes"/>
      <point x="552" y="141"/>
      <point x="670" y="147"/>
      <point x="670" y="175" type="curve" smooth="yes"/>
      <point x="670" y="389" type="line" smooth="yes"/>
      <point x="670" y="413"/>
      <point x="585" y="421"/>
      <point x="546" y="423" type="curve"/>
      <point x="546" y="432" type="line"/>
      <point x="705" y="432" type="line"/>
      <point x="705" y="500" type="line"/>
      <point x="170" y="500" type="line" smooth="yes"/>
      <point x="148" y="500"/>
      <point x="30" y="494"/>
      <point x="30" y="466" type="curve" smooth="yes"/>
      <point x="30" y="293" type="line" smooth="yes"/>
      <point x="30" y="265"/>
      <point x="148" y="259"/>
      <point x="170" y="259" type="curve" smooth="yes"/>
      <point x="310" y="259" type="line"/>
      <point x="310" y="432" type="line"/>
      <point x="390" y="432" type="line"/>
      <point x="390" y="209" type="line"/>
      <point x="170" y="209" type="line" smooth="yes"/>
      <point x="148" y="209"/>
      <point x="30" y="203"/>
      <point x="30" y="175" type="curve" smooth="yes"/>
      <point x="30" y="57" type="line" smooth="yes"/>
      <point x="30" y="29"/>
      <point x="148" y="23"/>
      <point x="170" y="23" type="curve" smooth="yes"/>
      <point x="390" y="23" type="line"/>
      <point x="390" y="-107" type="line"/>
    </contour>
    <contour>
      <point x="378" y="500" type="move" name="top"/>
    </contour>
  </outline>
</glyph>
<glyph name="h" format="1">
  <advance width="700"/>
  <unicode hex="0068"/>
  <outline>
    <contour>
      <point x="310" y="0" type="line"/>
      <point x="310" y="432" type="line"/>
      <point x="390" y="432" type="line"/>
      <point x="390" y="0" type="line"/>
      <point x="670" y="0" type="line"/>
      <point x="670" y="466" type="line" smooth="yes"/>
      <point x="670" y="494"/>
      <point x="552" y="500"/>
      <point x="530" y="500" type="curve" smooth="yes"/>
      <point x="449" y="500" type="line" smooth="yes"/>
      <point x="423" y="500"/>
      <point x="322" y="494"/>
      <point x="310" y="470" type="curve"/>
      <point x="310" y="665" type="line"/>
      <point x="30" y="665" type="line"/>
      <point x="30" y="0" type="line"/>
    </contour>
    <contour>
      <point x="170" y="665" type="move" name="top"/>
    </contour>
  </outline>
</glyph>
<glyph name="i" format="1">
  <advance width="341"/>
  <unicode hex="0069"/>
  <outline>
    <contour>
      <point x="311" y="550" type="line"/>
      <point x="311" y="665" type="line"/>
      <point x="171" y="665" type="line" smooth="yes"/>
      <point x="149" y="665"/>
      <point x="31" y="659"/>
      <point x="31" y="631" type="curve" smooth="yes"/>
      <point x="31" y="550" type="line"/>
    </contour>
    <contour>
      <point x="30" y="500" type="line"/>
      <point x="30" y="0" type="line"/>
      <point x="310" y="0" type="line"/>
      <point x="310" y="500" type="line"/>
    </contour>
  </outline>
</glyph>
<glyph name="j" format="1">
  <advance width="350"/>
  <unicode hex="006A"/>
  <outline>
    <contour>
      <point x="319" y="551" type="line"/>
      <point x="319" y="664.6" type="line"/>
      <point x="179" y="664.6" type="line" smooth="yes"/>
      <point x="156.7" y="664.6"/>
      <point x="39" y="659.4"/>
      <point x="39" y="631" type="curve" smooth="yes"/>
      <point x="39" y="551" type="line"/>
    </contour>
    <contour>
      <point x="40" y="500" type="line"/>
      <point x="40" y="-97.4" type="line"/>
      <point x="-60" y="-97.4" type="line"/>
      <point x="-60" y="-164.6" type="line"/>
      <point x="180" y="-164.6" type="line" smooth="yes"/>
      <point x="202.3" y="-164.6"/>
      <point x="320" y="-159.4"/>
      <point x="320" y="-131" type="curve" smooth="yes"/>
      <point x="320" y="500" type="line"/>
    </contour>
  </outline>
</glyph>
<glyph name="k" format="1">
  <advance width="700"/>
  <unicode hex="006B"/>
  <outline>
    <contour>
      <point x="30" y="665" type="line"/>
      <point x="30" y="0" type="line"/>
      <point x="310" y="0" type="line"/>
      <point x="310" y="201" type="line"/>
      <point x="352" y="209"/>
      <point x="618" y="252"/>
      <point x="638" y="274" type="curve"/>
      <point x="642" y="278"/>
      <point x="666" y="474"/>
      <point x="670" y="499" type="curve"/>
      <point x="390" y="499" type="line"/>
      <point x="362" y="297" type="line"/>
      <point x="310" y="287" type="line"/>
      <point x="310" y="665" type="line"/>
    </contour>
    <contour>
      <point x="660" y="0" type="line"/>
      <point x="660" y="170" type="line" smooth="yes"/>
      <point x="660" y="198"/>
      <point x="542" y="204"/>
      <point x="520" y="204" type="curve" smooth="yes"/>
      <point x="380" y="204" type="line"/>
      <point x="380" y="0" type="line"/>
    </contour>
    <contour>
      <point x="350" y="0" type="move" name="bottom"/>
    </contour>
    <contour>
      <point x="170" y="665" type="move" name="top"/>
    </contour>
  </outline>
</glyph>
<glyph name="m" format="1">
  <advance width="1020"/>
  <unicode hex="006D"/>
  <outline>
    <contour>
      <point x="310" y="0" type="line"/>
      <point x="310" y="432" type="line"/>
      <point x="370" y="432" type="line"/>
      <point x="370" y="0" type="line"/>
      <point x="650" y="0" type="line"/>
      <point x="650" y="432" type="line"/>
      <point x="710" y="432" type="line"/>
      <point x="710" y="0" type="line"/>
      <point x="990" y="0" type="line"/>
      <point x="990" y="466" type="line" smooth="yes"/>
      <point x="990" y="494"/>
      <point x="872" y="500"/>
      <point x="850" y="500" type="curve" smooth="yes"/>
      <point x="787" y="500" type="line" smooth="yes"/>
      <point x="761" y="500"/>
      <point x="663" y="494"/>
      <point x="649" y="471" type="curve"/>
      <point x="636" y="495"/>
      <point x="531" y="500"/>
      <point x="510" y="500" type="curve" smooth="yes"/>
      <point x="170" y="500" type="line" smooth="yes"/>
      <point x="148" y="500"/>
      <point x="30" y="494"/>
      <point x="30" y="466" type="curve" smooth="yes"/>
      <point x="30" y="0" type="line"/>
    </contour>
  </outline>
</glyph>
<glyph name="n" format="1">
  <advance width="700"/>
  <unicode hex="006E"/>
  <outline>
    <contour>
      <point x="310" y="0" type="line"/>
      <point x="310" y="432" type="line"/>
      <point x="390" y="432" type="line"/>
      <point x="390" y="0" type="line"/>
      <point x="670" y="0" type="line"/>
      <point x="670" y="466" type="line" smooth="yes"/>
      <point x="670" y="494"/>
      <point x="552" y="500"/>
      <point x="530" y="500" type="curve" smooth="yes"/>
      <point x="30" y="500" type="line"/>
      <point x="30" y="0" type="line"/>
    </contour>
    <contour>
      <point x="350" y="0" type="move" name="bottom"/>
    </contour>
    <contour>
      <point x="350" y="500" type="move" name="top"/>
    </contour>
  </outline>
</glyph>
<glyph name="o" format="1">
  <advance width="700"/>
  <unicode hex="006F"/>
  <outline>
    <contour>
      <point x="530" y="0.4" type="line" smooth="yes"/>
      <point x="552.3" y="0.4"/>
      <point x="670" y="5.6"/>
      <point x="670" y="34" type="curve" smooth="yes"/>
      <point x="670" y="466" type="line" smooth="yes"/>
      <point x="670" y="494.4"/>
      <point x="552.3" y="499.6"/>
      <point x="530" y="499.6" type="curve" smooth="yes"/>
      <point x="170" y="499.6" type="line" smooth="yes"/>
      <point x="147.7" y="499.6"/>
      <point x="30" y="494.4"/>
      <point x="30" y="466" type="curve" smooth="yes"/>
      <point x="30" y="34" type="line" smooth="yes"/>
      <point x="30" y="5.6"/>
      <point x="147.7" y="0.4"/>
      <point x="170" y="0.4" type="curve" smooth="yes"/>
    </contour>
    <contour>
      <point x="310" y="67.6" type="line"/>
      <point x="310" y="432.4" type="line"/>
      <point x="390" y="432.4" type="line"/>
      <point x="390" y="67.6" type="line"/>
    </contour>
    <contour>
      <point x="350" y="500" type="move" name="top"/>
    </contour>
  </outline>
</glyph>
<glyph name="p" format="1">
  <advance width="700"/>
  <unicode hex="0070"/>
  <outline>
    <contour>
      <point x="310" y="-165" type="line"/>
      <point x="310" y="30.029" type="line"/>
      <point x="310.2" y="29.6" type="line"/>
      <point x="324.4" y="4.8"/>
      <point x="421.1" y="0.4"/>
      <point x="449" y="0.4" type="curve" smooth="yes"/>
      <point x="530" y="0.4" type="line" smooth="yes"/>
      <point x="552.3" y="0.4"/>
      <point x="670" y="5.6"/>
      <point x="670" y="34" type="curve" smooth="yes"/>
      <point x="670" y="466" type="line" smooth="yes"/>
      <point x="670" y="494.4"/>
      <point x="552.3" y="499.6"/>
      <point x="530" y="499.6" type="curve" smooth="yes"/>
      <point x="170" y="499.6" type="line" smooth="yes"/>
      <point x="147.7" y="499.6"/>
      <point x="30" y="494.4"/>
      <point x="30" y="466" type="curve" smooth="yes"/>
      <point x="30" y="-165" type="line"/>
    </contour>
    <contour>
      <point x="310" y="68" type="line"/>
      <point x="310" y="432.4" type="line"/>
      <point x="390" y="432.4" type="line"/>
      <point x="390" y="68" type="line"/>
    </contour>
  </outline>
</glyph>
<glyph name="q" format="1">
  <advance width="700"/>
  <unicode hex="0071"/>
  <outline>
    <contour>
      <point x="670" y="-165" type="line"/>
      <point x="670" y="466" type="line" smooth="yes"/>
      <point x="670" y="494.4"/>
      <point x="552.3" y="499.6"/>
      <point x="530" y="499.6" type="curve" smooth="yes"/>
      <point x="170" y="499.6" type="line" smooth="yes"/>
      <point x="147.7" y="499.6"/>
      <point x="30" y="494.4"/>
      <point x="30" y="466" type="curve" smooth="yes"/>
      <point x="30" y="34" type="line" smooth="yes"/>
      <point x="30" y="5.6"/>
      <point x="147.7" y="0.4"/>
      <point x="170" y="0.4" type="curve" smooth="yes"/>
      <point x="251" y="0.4" type="line" smooth="yes"/>
      <point x="278.4" y="0.4"/>
      <point x="376.3" y="4.9"/>
      <point x="390" y="30.0702" type="curve"/>
      <point x="390" y="-165" type="line"/>
    </contour>
    <contour>
      <point x="310" y="68" type="line"/>
      <point x="310" y="432.4" type="line"/>
      <point x="390" y="432.4" type="line"/>
      <point x="390" y="68" type="line"/>
    </contour>
  </outline>
</glyph>
<glyph name="r" format="1">
  <advance width="491"/>
  <unicode hex="0072"/>
  <outline>
    <contour>
      <point x="310" y="0" type="line"/>
      <point x="310" y="432" type="line"/>
      <point x="471" y="432" type="line"/>
      <point x="471" y="500" type="line"/>
      <point x="170" y="500" type="line" smooth="yes"/>
      <point x="148" y="500"/>
      <point x="30" y="494"/>
      <point x="30" y="466" type="curve" smooth="yes"/>
      <point x="30" y="0" type="line"/>
    </contour>
    <contour>
      <point x="170" y="0" type="move" name="bottom"/>
    </contour>
    <contour>
      <point x="251" y="500" type="move" name="top"/>
    </contour>
  </outline>
</glyph>
<glyph name="s" format="1">
  <advance width="639"/>
  <unicode hex="0073"/>
  <outline>
    <contour>
      <point x="594" y="499.6" type="line"/>
      <point x="170" y="499.6" type="line" smooth="yes"/>
      <point x="147.6" y="499.6"/>
      <point x="30" y="494.4"/>
      <point x="30" y="466" type="curve" smooth="yes"/>
      <point x="30" y="252" type="line" smooth="yes"/>
      <point x="30" y="221.2"/>
      <point x="150.509" y="218.575"/>
      <point x="197.921" y="218.4" type="curve"/>
      <point x="329" y="218.4" type="line"/>
      <point x="329" y="67.6" type="line"/>
      <point x="30" y="67.6" type="line"/>
      <point x="30" y="0.4" type="line"/>
      <point x="469" y="0.4" type="line" smooth="yes"/>
      <point x="491.4" y="0.4"/>
      <point x="609" y="5.6"/>
      <point x="609" y="34" type="curve" smooth="yes"/>
      <point x="609" y="252" type="line" smooth="yes"/>
      <point x="609" y="282.8"/>
      <point x="488.491" y="285.425"/>
      <point x="441.079" y="285.6" type="curve"/>
      <point x="310" y="285.6" type="line"/>
      <point x="310" y="432.4" type="line"/>
      <point x="594" y="432.4" type="line"/>
    </contour>
    <contour>
      <point x="320" y="0" type="move" name="bottom"/>
    </contour>
    <contour>
      <point x="320" y="500" type="move" name="top"/>
    </contour>
  </outline>
</glyph>
<glyph name="t" format="1">
  <advance width="530"/>
  <unicode hex="0074"/>
  <outline>
    <contour>
      <point x="30" y="412" type="line"/>
      <point x="223" y="412" type="line"/>
      <point x="223" y="402" type="line"/>
      <point x="184" y="400"/>
      <point x="100" y="393"/>
      <point x="100" y="369" type="curve" smooth="yes"/>
      <point x="100" y="34" type="line" smooth="yes"/>
      <point x="100" y="6"/>
      <point x="218" y="0"/>
      <point x="240" y="0" type="curve" smooth="yes"/>
      <point x="500" y="0" type="line"/>
      <point x="500" y="68" type="line"/>
      <point x="380" y="68" type="line"/>
      <point x="380" y="412" type="line"/>
      <point x="500" y="412" type="line"/>
      <point x="500" y="480" type="line"/>
      <point x="380" y="480" type="line"/>
      <point x="380" y="620" type="line"/>
      <point x="120" y="620" type="line"/>
      <point x="120" y="480" type="line"/>
      <point x="30" y="480" type="line"/>
    </contour>
    <contour>
      <point x="265" y="0" type="move" name="bottom"/>
    </contour>
  </outline>
</glyph>
<glyph name="u" format="1">
  <advance width="700"/>
  <unicode hex="0075"/>
  <outline>
    <contour>
      <point x="30" y="500" type="line"/>
      <point x="30" y="34" type="line" smooth="yes"/>
      <point x="30" y="6"/>
      <point x="148" y="0"/>
      <point x="170" y="0" type="curve" smooth="yes"/>
      <point x="530" y="0" type="line" smooth="yes"/>
      <point x="552" y="0"/>
      <point x="670" y="6"/>
      <point x="670" y="34" type="curve" smooth="yes"/>
      <point x="670" y="500" type="line"/>
      <point x="390" y="500" type="line"/>
      <point x="390" y="68" type="line"/>
      <point x="310" y="68" type="line"/>
      <point x="310" y="500" type="line"/>
    </contour>
    <contour>
      <point x="530" y="0" type="move" name="bottom"/>
    </contour>
    <contour>
      <point x="350" y="500" type="move" name="top"/>
    </contour>
  </outline>
</glyph>
<glyph name="v" format="1">
  <advance width="700"/>
  <unicode hex="0076"/>
  <outline>
    <contour>
      <point x="30" y="500" type="line"/>
      <point x="30" y="34" type="line" smooth="yes"/>
      <point x="30" y="6"/>
      <point x="148" y="0"/>
      <point x="170" y="0" type="curve" smooth="yes"/>
      <point x="444" y="0" type="line" smooth="yes"/>
      <point x="478" y="0"/>
      <point x="550.9" y="4.1"/>
      <point x="578" y="24" type="curve" smooth="yes"/>
      <point x="586" y="30"/>
      <point x="670" y="113"/>
      <point x="670" y="120" type="curve" smooth="yes"/>
      <point x="670" y="500" type="line"/>
      <point x="390" y="500" type="line"/>
      <point x="390" y="124" type="line"/>
      <point x="334" y="68" type="line"/>
      <point x="311" y="68" type="line"/>
      <point x="311" y="500" type="line"/>
    </contour>
  </outline>
</glyph>
<glyph name="w" format="1">
  <advance width="1020"/>
  <unicode hex="0077"/>
  <outline>
    <contour>
      <point x="370" y="500" type="line"/>
      <point x="370" y="68" type="line"/>
      <point x="310" y="68" type="line"/>
      <point x="310" y="500" type="line"/>
      <point x="30" y="500" type="line"/>
      <point x="30" y="34" type="line" smooth="yes"/>
      <point x="30" y="6"/>
      <point x="148" y="0"/>
      <point x="170" y="0" type="curve" smooth="yes"/>
      <point x="510" y="0" type="line" smooth="yes"/>
      <point x="531" y="0"/>
      <point x="638" y="6"/>
      <point x="649" y="30" type="curve"/>
      <point x="661" y="6"/>
      <point x="761" y="0"/>
      <point x="788" y="0" type="curve" smooth="yes"/>
      <point x="850" y="0" type="line" smooth="yes"/>
      <point x="872" y="0"/>
      <point x="990" y="6"/>
      <point x="990" y="34" type="curve" smooth="yes"/>
      <point x="990" y="500" type="line"/>
      <point x="710" y="500" type="line"/>
      <point x="710" y="68" type="line"/>
      <point x="650" y="68" type="line"/>
      <point x="650" y="500" type="line"/>
    </contour>
    <contour>
      <point x="510" y="500" type="move" name="top"/>
    </contour>
  </outline>
</glyph>
<glyph name="x" format="1">
  <advance width="690"/>
  <unicode hex="0078"/>
  <outline>
    <contour>
      <point x="380" y="500" type="line"/>
      <point x="380" y="297" type="line"/>
      <point x="209" y="268"/>
      <point x="30" y="245"/>
      <point x="30" y="220" type="curve" smooth="yes"/>
      <point x="30" y="0" type="line"/>
      <point x="310" y="0" type="line"/>
      <point x="310" y="203" type="line"/>
      <point x="481" y="232"/>
      <point x="660" y="255"/>
      <point x="660" y="280" type="curve" smooth="yes"/>
      <point x="660" y="500" type="line"/>
    </contour>
    <contour>
      <point x="40" y="500" type="line"/>
      <point x="40" y="330" type="line" smooth="yes"/>
      <point x="40" y="302"/>
      <point x="158" y="296"/>
      <point x="180" y="296" type="curve" smooth="yes"/>
      <point x="320" y="296" type="line"/>
      <point x="320" y="500" type="line"/>
    </contour>
    <contour>
      <point x="650" y="0" type="line"/>
      <point x="650" y="170" type="line" smooth="yes"/>
      <point x="650" y="198"/>
      <point x="532" y="204"/>
      <point x="510" y="204" type="curve" smooth="yes"/>
      <point x="370" y="204" type="line"/>
      <point x="370" y="0" type="line"/>
    </contour>
  </outline>
</glyph>
<glyph name="y" format="1">
  <advance width="700"/>
  <unicode hex="0079"/>
  <outline>
    <contour>
      <point x="30" y="500" type="line"/>
      <point x="30" y="34" type="line" smooth="yes"/>
      <point x="30" y="6"/>
      <point x="148" y="0"/>
      <point x="170" y="0" type="curve" smooth="yes"/>
      <point x="252" y="0" type="line" smooth="yes"/>
      <point x="277" y="0"/>
      <point x="374" y="5"/>
      <point x="390" y="28" type="curve"/>
      <point x="390" y="-97" type="line"/>
      <point x="32" y="-97" type="line"/>
      <point x="32" y="-165" type="line"/>
      <point x="530" y="-165" type="line" smooth="yes"/>
      <point x="552" y="-165"/>
      <point x="670" y="-159"/>
      <point x="670" y="-131" type="curve" smooth="yes"/>
      <point x="670" y="500" type="line"/>
      <point x="390" y="500" type="line"/>
      <point x="390" y="68" type="line"/>
      <point x="310" y="68" type="line"/>
      <point x="310" y="500" type="line"/>
    </contour>
    <contour>
      <point x="350" y="500" type="move" name="top"/>
    </contour>
  </outline>
</glyph>
<glyph name="z" format="1">
  <advance width="620"/>
  <unicode hex="007A"/>
  <outline>
    <contour>
      <point x="590" y="68" type="line"/>
      <point x="333" y="68" type="line"/>
      <point x="360" y="109"/>
      <point x="590" y="461"/>
      <point x="590" y="466" type="curve" smooth="yes"/>
      <point x="590" y="494"/>
      <point x="472" y="500"/>
      <point x="450" y="500" type="curve" smooth="yes"/>
      <point x="40" y="500" type="line"/>
      <point x="40" y="432" type="line"/>
      <point x="287" y="432" type="line"/>
      <point x="260" y="391"/>
      <point x="30" y="39"/>
      <point x="30" y="34" type="curve" smooth="yes"/>
      <point x="30" y="6"/>
      <point x="148" y="0"/>
      <point x="170" y="0" type="curve" smooth="yes"/>
      <point x="590" y="0" type="line"/>
    </contour>
    <contour>
      <point x="310" y="500" type="move" name="top"/>
    </contour>
  </outline>
</glyph>
<glyph name="braceleft" format="1">
  <advance width="398"/>
  <unicode hex="007B"/>
  <outline>
    <contour>
      <point x="378" y="695" type="line"/>
      <point x="248" y="695" type="line" smooth="yes"/>
      <point x="194" y="695"/>
      <point x="78" y="690"/>
      <point x="78" y="615" type="curve" smooth="yes"/>
      <point x="78" y="450" type="line" smooth="yes"/>
      <point x="78" y="410"/>
      <point x="74" y="337"/>
      <point x="20" y="337" type="curve"/>
      <point x="20" y="277" type="line"/>
      <point x="80" y="277"/>
      <point x="78" y="191"/>
      <point x="78" y="150" type="curve" smooth="yes"/>
      <point x="78" y="1" type="line" smooth="yes"/>
      <point x="78" y="-74"/>
      <point x="194" y="-79"/>
      <point x="248" y="-79" type="curve" smooth="yes"/>
      <point x="378" y="-79" type="line"/>
      <point x="378" y="-19" type="line"/>
      <point x="322" y="-19" type="line"/>
      <point x="315" y="-6"/>
      <point x="318" y="30"/>
      <point x="318" y="46" type="curve" smooth="yes"/>
      <point x="318" y="193" type="line" smooth="yes"/>
      <point x="318" y="266"/>
      <point x="252" y="293"/>
      <point x="192" y="303" type="curve"/>
      <point x="192" y="311" type="line"/>
      <point x="252" y="321"/>
      <point x="318" y="348"/>
      <point x="318" y="421" type="curve" smooth="yes"/>
      <point x="318" y="602" type="line" smooth="yes"/>
      <point x="318" y="612"/>
      <point x="317" y="626"/>
      <point x="322" y="635" type="curve"/>
      <point x="378" y="635" type="line"/>
    </contour>
  </outline>
</glyph>
<glyph name="bar" format="1">
  <advance width="210"/>
  <unicode hex="007C"/>
  <outline>
    <contour>
      <point x="50" y="695" type="line"/>
      <point x="50" y="-60" type="line"/>
      <point x="160" y="-60" type="line"/>
      <point x="160" y="695" type="line"/>
    </contour>
  </outline>
</glyph>
<glyph name="braceright" format="1">
  <advance width="398"/>
  <unicode hex="007D"/>
  <outline>
    <contour>
      <point x="80" y="481" type="line"/>
      <point x="80" y="421" type="line" smooth="yes"/>
      <point x="80" y="347.719"/>
      <point x="132.904" y="320.747"/>
      <point x="193" y="310.808" type="curve"/>
      <point x="193" y="303.192" type="line"/>
      <point x="132.904" y="293.253"/>
      <point x="80" y="266.281"/>
      <point x="80" y="193" type="curve" smooth="yes"/>
      <point x="80" y="45.7" type="line" smooth="yes"/>
      <point x="80" y="30"/>
      <point x="83" y="-6"/>
      <point x="75.7" y="-19" type="curve"/>
      <point x="20" y="-19" type="line"/>
      <point x="20" y="-79" type="line"/>
      <point x="150" y="-79" type="line" smooth="yes"/>
      <point x="203.7" y="-79"/>
      <point x="320" y="-74.4"/>
      <point x="320" y="1" type="curve" smooth="yes"/>
      <point x="319.952" y="150" type="line"/>
      <point x="319.483" y="189.172"/>
      <point x="315.364" y="229.7"/>
      <point x="344" y="261" type="curve" smooth="yes"/>
      <point x="355.9" y="274.1"/>
      <point x="361" y="277"/>
      <point x="378" y="277" type="curve"/>
      <point x="378" y="337" type="line"/>
      <point x="365" y="337" type="line"/>
      <point x="360.1" y="338.2"/>
      <point x="347.8" y="348.8"/>
      <point x="344" y="353" type="curve" smooth="yes"/>
      <point x="322.8" y="376.8"/>
      <point x="319" y="409"/>
      <point x="319" y="439" type="curve" smooth="yes"/>
      <point x="319" y="442.5"/>
      <point x="319.063" y="446"/>
      <point x="319.156" y="449.5" type="curve" smooth="yes"/>
      <point x="319.844" y="470.5" type="line"/>
      <point x="319.893" y="472.333"/>
      <point x="319.898" y="474.167"/>
      <point x="320" y="476" type="curve"/>
      <point x="320" y="615" type="line" smooth="yes"/>
      <point x="320" y="690.4"/>
      <point x="203.7" y="695"/>
      <point x="150" y="695" type="curve" smooth="yes"/>
      <point x="20" y="695" type="line"/>
      <point x="20" y="635" type="line"/>
      <point x="75.7" y="635" type="line"/>
      <point x="80.7" y="626.1"/>
      <point x="80.4" y="612.1"/>
      <point x="80.4" y="602.2" type="curve" smooth="yes"/>
    </contour>
  </outline>
</glyph>
<glyph name="asciitilde" format="1">
  <advance width="709"/>
  <unicode hex="007E"/>
  <outline>
    <contour>
      <point x="210" y="178" type="line"/>
      <point x="210" y="332" type="line"/>
      <point x="338" y="214"/>
      <point x="342" y="178"/>
      <point x="529" y="178" type="curve" smooth="yes"/>
      <point x="579" y="178"/>
      <point x="679" y="179"/>
      <point x="679" y="250" type="curve" smooth="yes"/>
      <point x="679" y="410" type="line"/>
      <point x="499" y="410" type="line"/>
      <point x="499" y="238" type="line"/>
      <point x="485" y="248"/>
      <point x="475" y="259"/>
      <point x="463" y="270" type="curve" smooth="yes"/>
      <point x="357" y="369"/>
      <point x="337" y="410"/>
      <point x="181" y="410" type="curve" smooth="yes"/>
      <point x="131" y="410"/>
      <point x="30" y="409"/>
      <point x="30" y="338" type="curve" smooth="yes"/>
      <point x="30" y="178" type="line"/>
    </contour>
  </outline>
</glyph>
<glyph name="exclamdown" format="1">
  <advance width="300"/>
  <unicode hex="00A1"/>
  <outline>
    <contour>
      <point x="70" y="510" type="line"/>
      <point x="150" y="510" type="line" smooth="yes"/>
      <point x="163" y="510"/>
      <point x="230" y="507"/>
      <point x="230" y="491" type="curve" smooth="yes"/>
      <point x="230" y="382" type="line"/>
      <point x="150" y="382" type="line" smooth="yes"/>
      <point x="137" y="382"/>
      <point x="70" y="385"/>
      <point x="70" y="401" type="curve" smooth="yes"/>
    </contour>
    <contour>
      <point x="30" y="-155" type="line"/>
      <point x="68" y="297" type="line"/>
      <point x="232" y="297" type="line"/>
      <point x="270" y="-155" type="line"/>
    </contour>
  </outline>
</glyph>
<glyph name="cent" format="1">
  <advance width="580"/>
  <unicode hex="00A2"/>
  <outline>
    <contour>
      <point x="530" y="500" type="line"/>
      <point x="376" y="500" type="line"/>
      <point x="379" y="645" type="line"/>
      <point x="279" y="645" type="line"/>
      <point x="282" y="500" type="line"/>
      <point x="170" y="500" type="line" smooth="yes"/>
      <point x="149" y="500"/>
      <point x="40" y="495"/>
      <point x="40" y="469" type="curve" smooth="yes"/>
      <point x="40" y="31" type="line" smooth="yes"/>
      <point x="40" y="5"/>
      <point x="149" y="0"/>
      <point x="170" y="0" type="curve" smooth="yes"/>
      <point x="282" y="0" type="line"/>
      <point x="279" y="-145" type="line"/>
      <point x="379" y="-145" type="line"/>
      <point x="376" y="0" type="line"/>
      <point x="530" y="0" type="line"/>
      <point x="530" y="62" type="line"/>
      <point x="300" y="62" type="line"/>
      <point x="300" y="438" type="line"/>
      <point x="530" y="438" type="line"/>
    </contour>
  </outline>
</glyph>
<glyph name="sterling" format="1">
  <advance width="577"/>
  <unicode hex="00A3"/>
  <outline>
    <contour>
      <point x="20" y="316" type="line"/>
      <point x="107" y="316" type="line"/>
      <point x="107" y="64" type="line"/>
      <point x="20" y="64" type="line"/>
      <point x="20" y="0" type="line"/>
      <point x="540" y="0" type="line"/>
      <point x="540" y="64" type="line"/>
      <point x="242" y="64" type="line"/>
      <point x="242" y="74" type="line"/>
      <point x="263" y="74"/>
      <point x="377" y="79"/>
      <point x="377" y="106" type="curve" smooth="yes"/>
      <point x="377" y="316" type="line"/>
      <point x="530" y="316" type="line"/>
      <point x="530" y="380" type="line"/>
      <point x="372" y="380" type="line"/>
      <point x="371" y="524" type="line" smooth="yes"/>
      <point x="371" y="544"/>
      <point x="371" y="592"/>
      <point x="375" y="601" type="curve"/>
      <point x="547" y="601" type="line"/>
      <point x="547" y="665" type="line"/>
      <point x="287" y="665" type="line" smooth="yes"/>
      <point x="231" y="665"/>
      <point x="102" y="662"/>
      <point x="102" y="583" type="curve" smooth="yes"/>
      <point x="102" y="422" type="line" smooth="yes"/>
      <point x="102" y="397"/>
      <point x="196" y="391"/>
      <point x="229" y="390" type="curve"/>
      <point x="229" y="380" type="line"/>
      <point x="20" y="380" type="line"/>
    </contour>
  </outline>
</glyph>
<glyph name="currency" format="1">
  <advance width="762"/>
  <unicode hex="00A4"/>
  <outline>
    <contour>
      <point x="658" y="604" type="line"/>
      <point x="571" y="496" type="line"/>
      <point x="550" y="499"/>
      <point x="529" y="500"/>
      <point x="521" y="500" type="curve" smooth="yes"/>
      <point x="241" y="500" type="line" smooth="yes"/>
      <point x="233" y="500"/>
      <point x="212" y="499"/>
      <point x="191" y="496" type="curve"/>
      <point x="104" y="604" type="line"/>
      <point x="30" y="540" type="line"/>
      <point x="141" y="451" type="line"/>
      <point x="141" y="179" type="line"/>
      <point x="30" y="90" type="line"/>
      <point x="104" y="26" type="line"/>
      <point x="191" y="134" type="line"/>
      <point x="212" y="131"/>
      <point x="233" y="130"/>
      <point x="241" y="130" type="curve" smooth="yes"/>
      <point x="521" y="130" type="line" smooth="yes"/>
      <point x="529" y="130"/>
      <point x="550" y="131"/>
      <point x="571" y="134" type="curve"/>
      <point x="658" y="26" type="line"/>
      <point x="732" y="90" type="line"/>
      <point x="621" y="179" type="line"/>
      <point x="621" y="451" type="line"/>
      <point x="732" y="540" type="line"/>
    </contour>
    <contour>
      <point x="341" y="190" type="line"/>
      <point x="341" y="440" type="line"/>
      <point x="421" y="440" type="line"/>
      <point x="421" y="190" type="line"/>
    </contour>
  </outline>
</glyph>
<glyph name="yen" format="1">
  <advance width="768"/>
  <unicode hex="00A5"/>
  <outline>
    <contour>
      <point x="502" y="0" type="line"/>
      <point x="502" y="54" type="line"/>
      <point x="556" y="52"/>
      <point x="610" y="51"/>
      <point x="663" y="50" type="curve"/>
      <point x="663" y="110" type="line"/>
      <point x="610" y="109"/>
      <point x="556" y="108"/>
      <point x="502" y="106" type="curve"/>
      <point x="502" y="153" type="line"/>
      <point x="556" y="151"/>
      <point x="610" y="150"/>
      <point x="663" y="149" type="curve"/>
      <point x="663" y="209" type="line"/>
      <point x="610" y="208"/>
      <point x="556" y="207"/>
      <point x="502" y="205" type="curve"/>
      <point x="502" y="212" type="line"/>
      <point x="644" y="287" type="line"/>
      <point x="656" y="293"/>
      <point x="715" y="323"/>
      <point x="715" y="347" type="curve" smooth="yes"/>
      <point x="715" y="665" type="line"/>
      <point x="455" y="665" type="line"/>
      <point x="455" y="338" type="line"/>
      <point x="313" y="263" type="line"/>
      <point x="301" y="257"/>
      <point x="242" y="232"/>
      <point x="242" y="219" type="curve" smooth="yes"/>
      <point x="242" y="206" type="line"/>
      <point x="196" y="207"/>
      <point x="149" y="209"/>
      <point x="103" y="209" type="curve"/>
      <point x="103" y="149" type="line"/>
      <point x="149" y="149"/>
      <point x="196" y="151"/>
      <point x="242" y="152" type="curve"/>
      <point x="242" y="107" type="line"/>
      <point x="196" y="108"/>
      <point x="149" y="110"/>
      <point x="103" y="110" type="curve"/>
      <point x="103" y="50" type="line"/>
      <point x="149" y="50"/>
      <point x="196" y="52"/>
      <point x="242" y="53" type="curve"/>
      <point x="242" y="0" type="line"/>
    </contour>
    <contour>
      <point x="30" y="665" type="line"/>
      <point x="30" y="321" type="line" smooth="yes"/>
      <point x="30" y="295"/>
      <point x="139" y="290"/>
      <point x="160" y="290" type="curve" smooth="yes"/>
      <point x="290" y="290" type="line"/>
      <point x="290" y="665" type="line"/>
    </contour>
  </outline>
</glyph>
<glyph name="brokenbar" format="1">
  <advance width="210"/>
  <unicode hex="00A6"/>
  <outline>
    <contour>
      <point x="50" y="695" type="line"/>
      <point x="50" y="385" type="line"/>
      <point x="160" y="385" type="line"/>
      <point x="160" y="695" type="line"/>
    </contour>
    <contour>
      <point x="50" y="250" type="line"/>
      <point x="50" y="-60" type="line"/>
      <point x="160" y="-60" type="line"/>
      <point x="160" y="250" type="line"/>
    </contour>
  </outline>
</glyph>
<glyph name="section" format="1">
  <advance width="680"/>
  <unicode hex="00A7"/>
  <outline>
    <contour>
      <point x="640" y="665" type="line"/>
      <point x="170" y="665" type="line" smooth="yes"/>
      <point x="148" y="665"/>
      <point x="30" y="659"/>
      <point x="30" y="631" type="curve" smooth="yes"/>
      <point x="30" y="461" type="line" smooth="yes"/>
      <point x="30" y="438"/>
      <point x="139" y="423"/>
      <point x="159" y="419" type="curve" smooth="yes"/>
      <point x="370" y="376" type="line"/>
      <point x="370" y="207" type="line"/>
      <point x="510" y="207" type="line" smooth="yes"/>
      <point x="532" y="207"/>
      <point x="650" y="213"/>
      <point x="650" y="241" type="curve" smooth="yes"/>
      <point x="650" y="391" type="line" smooth="yes"/>
      <point x="650" y="414"/>
      <point x="541" y="429"/>
      <point x="521" y="433" type="curve" smooth="yes"/>
      <point x="310" y="476" type="line"/>
      <point x="310" y="597" type="line"/>
      <point x="640" y="597" type="line"/>
    </contour>
    <contour>
      <point x="30" y="-100" type="line"/>
      <point x="510" y="-100" type="line" smooth="yes"/>
      <point x="532" y="-100"/>
      <point x="650" y="-94"/>
      <point x="650" y="-66" type="curve" smooth="yes"/>
      <point x="650" y="104" type="line" smooth="yes"/>
      <point x="650" y="127"/>
      <point x="541" y="142"/>
      <point x="521" y="146" type="curve" smooth="yes"/>
      <point x="310" y="189" type="line"/>
      <point x="310" y="358" type="line"/>
      <point x="170" y="358" type="line" smooth="yes"/>
      <point x="148" y="358"/>
      <point x="30" y="352"/>
      <point x="30" y="324" type="curve" smooth="yes"/>
      <point x="30" y="174" type="line" smooth="yes"/>
      <point x="30" y="151"/>
      <point x="139" y="136"/>
      <point x="159" y="132" type="curve" smooth="yes"/>
      <point x="370" y="89" type="line"/>
      <point x="370" y="-32" type="line"/>
      <point x="30" y="-32" type="line"/>
    </contour>
  </outline>
</glyph>
<glyph name="dieresis" format="1">
  <advance width="420"/>
  <unicode hex="00A8"/>
  <outline>
    <contour>
      <point x="389.6" y="848.8" type="line"/>
      <point x="330.1" y="848.8" type="line" smooth="yes"/>
      <point x="320.6" y="848.8"/>
      <point x="270.6" y="846.6"/>
      <point x="270.6" y="834.5" type="curve" smooth="yes"/>
      <point x="270.6" y="753.3" type="line"/>
      <point x="330.1" y="753.3" type="line" smooth="yes"/>
      <point x="339.6" y="753.3"/>
      <point x="389.6" y="755.5"/>
      <point x="389.6" y="767.6" type="curve" smooth="yes"/>
    </contour>
    <contour>
      <point x="149.6" y="848.8" type="line"/>
      <point x="90.1" y="848.8" type="line" smooth="yes"/>
      <point x="80.6" y="848.8"/>
      <point x="30.6" y="846.6"/>
      <point x="30.6" y="834.5" type="curve" smooth="yes"/>
      <point x="30.6" y="753.3" type="line"/>
      <point x="90.1" y="753.3" type="line" smooth="yes"/>
      <point x="99.6" y="753.3"/>
      <point x="149.6" y="755.5"/>
      <point x="149.6" y="767.6" type="curve" smooth="yes"/>
    </contour>
    <contour>
      <point x="210" y="665" type="move" name="_top"/>
    </contour>
  </outline>
</glyph>
<glyph name="copyright" format="1">
  <advance width="790"/>
  <unicode hex="00A9"/>
  <outline>
    <contour>
      <point x="760" y="581" type="line" smooth="yes"/>
      <point x="760" y="632"/>
      <point x="719" y="665"/>
      <point x="670" y="665" type="curve" smooth="yes"/>
      <point x="120" y="665" type="line" smooth="yes"/>
      <point x="71" y="665"/>
      <point x="30" y="632"/>
      <point x="30" y="581" type="curve" smooth="yes"/>
      <point x="30" y="84" type="line" smooth="yes"/>
      <point x="30" y="33"/>
      <point x="71" y="0"/>
      <point x="120" y="0" type="curve" smooth="yes"/>
      <point x="670" y="0" type="line" smooth="yes"/>
      <point x="719" y="0"/>
      <point x="760" y="33"/>
      <point x="760" y="84" type="curve" smooth="yes"/>
    </contour>
    <contour>
      <point x="680" y="85" type="line" smooth="yes"/>
      <point x="680" y="77"/>
      <point x="678" y="68"/>
      <point x="669" y="68" type="curve" smooth="yes"/>
      <point x="121" y="68" type="line"/>
      <point x="119" y="68"/>
      <point x="117" y="68"/>
      <point x="115" y="69" type="curve"/>
      <point x="115" y="69" type="line"/>
      <point x="114" y="70" type="line"/>
      <point x="111" y="74"/>
      <point x="110" y="79"/>
      <point x="110" y="85" type="curve" smooth="yes"/>
      <point x="110" y="580" type="line" smooth="yes"/>
      <point x="110" y="588"/>
      <point x="112" y="597"/>
      <point x="121" y="597" type="curve" smooth="yes"/>
      <point x="669" y="597" type="line"/>
      <point x="671" y="597"/>
      <point x="673" y="597"/>
      <point x="675" y="596" type="curve"/>
      <point x="675" y="596" type="line"/>
      <point x="676" y="595" type="line"/>
      <point x="679" y="591"/>
      <point x="680" y="586"/>
      <point x="680" y="580" type="curve" smooth="yes"/>
    </contour>
    <contour>
      <point x="570" y="500" type="line"/>
      <point x="320" y="500" type="line" smooth="yes"/>
      <point x="304" y="500"/>
      <point x="220" y="496"/>
      <point x="220" y="476" type="curve" smooth="yes"/>
      <point x="220" y="189" type="line" smooth="yes"/>
      <point x="220" y="169"/>
      <point x="304" y="165"/>
      <point x="320" y="165" type="curve" smooth="yes"/>
      <point x="570" y="165" type="line"/>
      <point x="570" y="213" type="line"/>
      <point x="420" y="213" type="line"/>
      <point x="420" y="452" type="line"/>
      <point x="570" y="452" type="line"/>
    </contour>
  </outline>
</glyph>
<glyph name="ordfeminine" format="1">
  <advance width="384"/>
  <unicode hex="00AA"/>
  <outline>
    <contour>
      <point x="39" y="544" type="line"/>
      <point x="214" y="544" type="line"/>
      <point x="214" y="483" type="line"/>
      <point x="214" y="497"/>
      <point x="155" y="500"/>
      <point x="144" y="500" type="curve" smooth="yes"/>
      <point x="100" y="500" type="line" smooth="yes"/>
      <point x="89" y="500"/>
      <point x="30" y="497"/>
      <point x="30" y="483" type="curve" smooth="yes"/>
      <point x="30" y="345" type="line" smooth="yes"/>
      <point x="30" y="331"/>
      <point x="89" y="328"/>
      <point x="100" y="328" type="curve" smooth="yes"/>
      <point x="284" y="328" type="line" smooth="yes"/>
      <point x="295" y="328"/>
      <point x="354" y="331"/>
      <point x="354" y="345" type="curve" smooth="yes"/>
      <point x="354" y="561" type="line" smooth="yes"/>
      <point x="354" y="575"/>
      <point x="295" y="578"/>
      <point x="284" y="578" type="curve" smooth="yes"/>
      <point x="39" y="578" type="line"/>
    </contour>
    <contour>
      <point x="214" y="466" type="line"/>
      <point x="214" y="362" type="line"/>
      <point x="170" y="362" type="line"/>
      <point x="170" y="466" type="line"/>
    </contour>
  </outline>
</glyph>
<glyph name="guillemotleft" format="1">
  <advance width="597"/>
  <unicode hex="00AB"/>
  <outline>
    <contour>
      <point x="180" y="426" type="line"/>
      <point x="164" y="406"/>
      <point x="26" y="225"/>
      <point x="26" y="222" type="curve" smooth="yes"/>
      <point x="26" y="219"/>
      <point x="164" y="38"/>
      <point x="180" y="18" type="curve"/>
      <point x="338" y="24" type="line"/>
      <point x="324" y="42"/>
      <point x="179" y="221"/>
      <point x="179" y="222" type="curve"/>
      <point x="179" y="223"/>
      <point x="324" y="402"/>
      <point x="338" y="420" type="curve"/>
    </contour>
    <contour>
      <point x="409" y="426" type="line"/>
      <point x="393" y="406"/>
      <point x="255" y="225"/>
      <point x="255" y="222" type="curve" smooth="yes"/>
      <point x="255" y="219"/>
      <point x="393" y="38"/>
      <point x="409" y="18" type="curve"/>
      <point x="567" y="24" type="line"/>
      <point x="553" y="42"/>
      <point x="408" y="221"/>
      <point x="408" y="222" type="curve"/>
      <point x="408" y="223"/>
      <point x="553" y="402"/>
      <point x="567" y="420" type="curve"/>
    </contour>
  </outline>
</glyph>
<glyph name="logicalnot" format="1">
  <advance width="516"/>
  <unicode hex="00AC"/>
  <outline>
    <contour>
      <point x="30" y="206" type="line"/>
      <point x="366" y="206" type="line"/>
      <point x="366" y="50" type="line"/>
      <point x="486" y="50" type="line"/>
      <point x="486" y="240" type="line" smooth="yes"/>
      <point x="486" y="265"/>
      <point x="445" y="273"/>
      <point x="426" y="273" type="curve" smooth="yes"/>
      <point x="30" y="273" type="line"/>
    </contour>
  </outline>
</glyph>
<glyph name="registered" format="1">
  <advance width="790"/>
  <unicode hex="00AE"/>
  <outline>
    <contour>
      <point x="760" y="581" type="line" smooth="yes"/>
      <point x="760" y="632"/>
      <point x="719" y="665"/>
      <point x="670" y="665" type="curve" smooth="yes"/>
      <point x="120" y="665" type="line" smooth="yes"/>
      <point x="71" y="665"/>
      <point x="30" y="632"/>
      <point x="30" y="581" type="curve" smooth="yes"/>
      <point x="30" y="84" type="line" smooth="yes"/>
      <point x="30" y="33"/>
      <point x="71" y="0"/>
      <point x="120" y="0" type="curve" smooth="yes"/>
      <point x="670" y="0" type="line" smooth="yes"/>
      <point x="719" y="0"/>
      <point x="760" y="33"/>
      <point x="760" y="84" type="curve" smooth="yes"/>
    </contour>
    <contour>
      <point x="680" y="85" type="line" smooth="yes"/>
      <point x="680" y="77"/>
      <point x="678" y="68"/>
      <point x="669" y="68" type="curve" smooth="yes"/>
      <point x="121" y="68" type="line" smooth="yes"/>
      <point x="111" y="68"/>
      <point x="110" y="76"/>
      <point x="110" y="85" type="curve" smooth="yes"/>
      <point x="110" y="580" type="line" smooth="yes"/>
      <point x="110" y="588"/>
      <point x="112" y="597"/>
      <point x="121" y="597" type="curve" smooth="yes"/>
      <point x="669" y="597" type="line" smooth="yes"/>
      <point x="679" y="597"/>
      <point x="680" y="589"/>
      <point x="680" y="580" type="curve" smooth="yes"/>
    </contour>
    <contour>
      <point x="358" y="165" type="line"/>
      <point x="358" y="325" type="line"/>
      <point x="366" y="305"/>
      <point x="426" y="179"/>
      <point x="434" y="163" type="curve"/>
      <point x="582" y="167" type="line"/>
      <point x="509" y="324" type="line"/>
      <point x="518" y="327"/>
      <point x="569" y="343"/>
      <point x="569" y="352" type="curve" smooth="yes"/>
      <point x="569" y="482" type="line" smooth="yes"/>
      <point x="569" y="497"/>
      <point x="506" y="500"/>
      <point x="494" y="500" type="curve" smooth="yes"/>
      <point x="283" y="500" type="line" smooth="yes"/>
      <point x="271" y="500"/>
      <point x="208" y="497"/>
      <point x="208" y="482" type="curve" smooth="yes"/>
      <point x="208" y="165" type="line"/>
    </contour>
    <contour>
      <point x="419" y="357" type="line"/>
      <point x="411" y="354"/>
      <point x="365" y="339"/>
      <point x="358" y="330" type="curve"/>
      <point x="358" y="464" type="line"/>
      <point x="419" y="464" type="line"/>
    </contour>
  </outline>
</glyph>
<glyph name="macron" format="1">
  <advance width="426"/>
  <unicode hex="00AF"/>
  <outline>
    <contour>
      <point x="30" y="769" type="line"/>
      <point x="396" y="769" type="line"/>
      <point x="396" y="837" type="line"/>
      <point x="30" y="837" type="line"/>
    </contour>
    <contour>
      <point x="213" y="665" type="move" name="_top"/>
    </contour>
  </outline>
</glyph>
<glyph name="degree" format="1">
  <advance width="390"/>
  <unicode hex="00B0"/>
  <outline>
    <contour>
      <point x="30" y="438" type="line" smooth="yes"/>
      <point x="30" y="423.8"/>
      <point x="88.9" y="421.2"/>
      <point x="100" y="421.2" type="curve" smooth="yes"/>
      <point x="290" y="421.2" type="line" smooth="yes"/>
      <point x="301.1" y="421.2"/>
      <point x="360" y="423.8"/>
      <point x="360" y="438" type="curve" smooth="yes"/>
      <point x="360" y="648" type="line" smooth="yes"/>
      <point x="360" y="662.2"/>
      <point x="301.1" y="664.8"/>
      <point x="290" y="664.8" type="curve" smooth="yes"/>
      <point x="100" y="664.8" type="line" smooth="yes"/>
      <point x="88.9" y="664.8"/>
      <point x="30" y="662.2"/>
      <point x="30" y="648" type="curve" smooth="yes"/>
    </contour>
    <contour>
      <point x="170" y="454.8" type="line"/>
      <point x="170" y="631.2" type="line"/>
      <point x="220" y="631.2" type="line"/>
      <point x="220" y="454.8" type="line"/>
    </contour>
  </outline>
</glyph>
<glyph name="plusminus" format="1">
  <advance width="520"/>
  <unicode hex="00B1"/>
  <outline>
    <contour>
      <point x="30" y="271" type="line"/>
      <point x="180" y="271" type="line"/>
      <point x="180" y="110" type="line"/>
      <point x="340" y="110" type="line"/>
      <point x="340" y="271" type="line"/>
      <point x="490" y="271" type="line"/>
      <point x="490" y="339" type="line"/>
      <point x="340" y="339" type="line"/>
      <point x="340" y="500" type="line"/>
      <point x="180" y="500" type="line"/>
      <point x="180" y="339" type="line"/>
      <point x="30" y="339" type="line"/>
    </contour>
    <contour>
      <point x="40" y="0" type="line"/>
      <point x="480" y="0" type="line"/>
      <point x="480" y="68" type="line"/>
      <point x="40" y="68" type="line"/>
    </contour>
  </outline>
</glyph>
<glyph name="two.superior" format="1">
  <advance width="335"/>
  <unicode hex="00B2"/>
  <outline>
    <contour>
      <point x="170" y="401" type="line"/>
      <point x="170" y="464" type="line"/>
      <point x="254" y="499" type="line"/>
      <point x="262" y="502"/>
      <point x="301" y="517"/>
      <point x="301" y="525" type="curve" smooth="yes"/>
      <point x="301" y="683" type="line" smooth="yes"/>
      <point x="301" y="697"/>
      <point x="242" y="700"/>
      <point x="231" y="700" type="curve" smooth="yes"/>
      <point x="36" y="700" type="line"/>
      <point x="36" y="666" type="line"/>
      <point x="161" y="666" type="line"/>
      <point x="161" y="528" type="line"/>
      <point x="77" y="493" type="line"/>
      <point x="69" y="490"/>
      <point x="30" y="476"/>
      <point x="30" y="466" type="curve" smooth="yes"/>
      <point x="30" y="384" type="line" smooth="yes"/>
      <point x="30" y="370"/>
      <point x="89" y="367"/>
      <point x="100" y="367" type="curve" smooth="yes"/>
      <point x="305" y="367" type="line"/>
      <point x="305" y="401" type="line"/>
    </contour>
  </outline>
</glyph>
<glyph name="three.superior" format="1">
  <advance width="325"/>
  <unicode hex="00B3"/>
  <outline>
    <contour>
      <point x="45" y="516" type="line"/>
      <point x="140" y="516" type="line"/>
      <point x="156" y="505"/>
      <point x="155" y="488"/>
      <point x="155" y="471" type="curve" smooth="yes"/>
      <point x="155" y="432" type="line" smooth="yes"/>
      <point x="155" y="421"/>
      <point x="154" y="411"/>
      <point x="148" y="401" type="curve"/>
      <point x="30" y="401" type="line"/>
      <point x="30" y="367" type="line"/>
      <point x="185" y="367" type="line" smooth="yes"/>
      <point x="223" y="367"/>
      <point x="295" y="371"/>
      <point x="295" y="424" type="curve" smooth="yes"/>
      <point x="295" y="483" type="line" smooth="yes"/>
      <point x="295" y="524"/>
      <point x="257" y="527"/>
      <point x="225" y="530" type="curve"/>
      <point x="225" y="536" type="line"/>
      <point x="255" y="537"/>
      <point x="293" y="544"/>
      <point x="293" y="582" type="curve" smooth="yes"/>
      <point x="293" y="683" type="line" smooth="yes"/>
      <point x="293" y="697"/>
      <point x="234" y="700"/>
      <point x="223" y="700" type="curve" smooth="yes"/>
      <point x="36" y="700" type="line"/>
      <point x="36" y="666" type="line"/>
      <point x="153" y="666" type="line"/>
      <point x="153" y="614" type="line" smooth="yes"/>
      <point x="153" y="593"/>
      <point x="157" y="563"/>
      <point x="137" y="550" type="curve"/>
      <point x="45" y="550" type="line"/>
    </contour>
  </outline>
</glyph>
<glyph name="acute" format="1">
  <advance width="352"/>
  <unicode hex="00B4"/>
  <outline>
    <contour>
      <point x="298.4" y="886.1" type="line"/>
      <point x="30.6" y="813" type="line"/>
      <point x="51.4" y="743" type="line"/>
      <point x="321.6" y="807.9" type="line"/>
    </contour>
    <contour>
      <point x="137" y="665" type="move" name="_top"/>
    </contour>
  </outline>
</glyph>
<glyph name="paragraph" format="1">
  <advance width="761"/>
  <unicode hex="00B6"/>
  <outline>
    <contour>
      <point x="730" y="596" type="line"/>
      <point x="730.2" y="624.5" type="line"/>
      <point x="730.2" y="626.201"/>
      <point x="730.221" y="628.141"/>
      <point x="730" y="630.026" type="curve"/>
      <point x="729.864" y="631" type="line"/>
      <point x="725.071" y="659.16"/>
      <point x="613.943" y="663.6"/>
      <point x="590" y="663.6" type="curve" smooth="yes"/>
      <point x="170" y="663.6" type="line" smooth="yes"/>
      <point x="147.6" y="663.6"/>
      <point x="30" y="658.4"/>
      <point x="30" y="630" type="curve" smooth="yes"/>
      <point x="30" y="198" type="line" smooth="yes"/>
      <point x="30" y="169.6"/>
      <point x="147.6" y="164.4"/>
      <point x="170" y="164.4" type="curve" smooth="yes"/>
      <point x="251" y="164.4" type="line" smooth="yes"/>
      <point x="261.814" y="164.4"/>
      <point x="284.767" y="165.209"/>
      <point x="309" y="167.777" type="curve"/>
      <point x="309" y="-165" type="line"/>
      <point x="509" y="-165" type="line"/>
      <point x="509" y="596" type="line"/>
      <point x="570" y="596" type="line"/>
      <point x="570" y="-165" type="line"/>
      <point x="730" y="-165" type="line"/>
    </contour>
  </outline>
</glyph>
<glyph name="periodcentered" format="1">
  <advance width="220"/>
  <unicode hex="00B7"/>
  <outline>
    <contour>
      <point x="30" y="269" type="line"/>
      <point x="110" y="269" type="line" smooth="yes"/>
      <point x="123" y="269"/>
      <point x="190" y="272"/>
      <point x="190" y="288" type="curve" smooth="yes"/>
      <point x="190" y="397" type="line"/>
      <point x="110" y="397" type="line" smooth="yes"/>
      <point x="97" y="397"/>
      <point x="30" y="394"/>
      <point x="30" y="378" type="curve" smooth="yes"/>
    </contour>
  </outline>
</glyph>
<glyph name="cedilla" format="1">
  <advance width="285"/>
  <unicode hex="00B8"/>
  <outline>
    <contour>
      <point x="24" y="33" type="line"/>
      <point x="20" y="-76" type="line" smooth="yes"/>
      <point x="19.4" y="-93.1"/>
      <point x="52.4" y="-98.5"/>
      <point x="65" y="-98.5" type="curve" smooth="yes"/>
      <point x="135" y="-98.5" type="line"/>
      <point x="135" y="-177.5" type="line"/>
      <point x="0" y="-177.5" type="line"/>
      <point x="0" y="-222.5" type="line"/>
      <point x="210" y="-222.5" type="line" smooth="yes"/>
      <point x="223.8" y="-222.5"/>
      <point x="285" y="-218.7"/>
      <point x="285" y="-200" type="curve" smooth="yes"/>
      <point x="285" y="-76" type="line" smooth="yes"/>
      <point x="285" y="-57.3"/>
      <point x="223.8" y="-53.5"/>
      <point x="210" y="-53.5" type="curve" smooth="yes"/>
      <point x="110.8" y="-53.5" type="line"/>
      <point x="114" y="33" type="line"/>
    </contour>
    <contour>
      <point x="77" y="0" type="move" name="_bottom"/>
    </contour>
  </outline>
</glyph>
<glyph name="one.superior" format="1">
  <advance width="230"/>
  <unicode hex="00B9"/>
  <outline>
    <contour>
      <point x="200" y="367" type="line"/>
      <point x="200" y="683" type="line" smooth="yes"/>
      <point x="200" y="697"/>
      <point x="141" y="700"/>
      <point x="130" y="700" type="curve" smooth="yes"/>
      <point x="20" y="700" type="line"/>
      <point x="20" y="666" type="line"/>
      <point x="60" y="666" type="line"/>
      <point x="60" y="367" type="line"/>
    </contour>
  </outline>
</glyph>
<glyph name="ordmasculine" format="1">
  <advance width="380"/>
  <unicode hex="00BA"/>
  <outline>
    <contour>
      <point x="30" y="345" type="line" smooth="yes"/>
      <point x="30" y="331"/>
      <point x="89" y="328"/>
      <point x="100" y="328" type="curve" smooth="yes"/>
      <point x="280" y="328" type="line" smooth="yes"/>
      <point x="291" y="328"/>
      <point x="350" y="331"/>
      <point x="350" y="345" type="curve" smooth="yes"/>
      <point x="350" y="561" type="line" smooth="yes"/>
      <point x="350" y="575"/>
      <point x="291" y="578"/>
      <point x="280" y="578" type="curve" smooth="yes"/>
      <point x="100" y="578" type="line" smooth="yes"/>
      <point x="89" y="578"/>
      <point x="30" y="575"/>
      <point x="30" y="561" type="curve" smooth="yes"/>
    </contour>
    <contour>
      <point x="170" y="362" type="line"/>
      <point x="170" y="544" type="line"/>
      <point x="210" y="544" type="line"/>
      <point x="210" y="362" type="line"/>
    </contour>
  </outline>
</glyph>
<glyph name="guillemotright" format="1">
  <advance width="601"/>
  <unicode hex="00BB"/>
  <outline>
    <contour>
      <point x="417" y="426" type="line"/>
      <point x="433" y="406"/>
      <point x="571" y="225"/>
      <point x="571" y="222" type="curve" smooth="yes"/>
      <point x="571" y="219"/>
      <point x="433" y="38"/>
      <point x="417" y="18" type="curve"/>
      <point x="259" y="24" type="line"/>
      <point x="273" y="42"/>
      <point x="418" y="221"/>
      <point x="418" y="222" type="curve"/>
      <point x="418" y="223"/>
      <point x="273" y="402"/>
      <point x="259" y="420" type="curve"/>
    </contour>
    <contour>
      <point x="188" y="426" type="line"/>
      <point x="204" y="406"/>
      <point x="342" y="225"/>
      <point x="342" y="222" type="curve" smooth="yes"/>
      <point x="342" y="219"/>
      <point x="204" y="38"/>
      <point x="188" y="18" type="curve"/>
      <point x="30" y="24" type="line"/>
      <point x="44" y="42"/>
      <point x="189" y="221"/>
      <point x="189" y="222" type="curve"/>
      <point x="189" y="223"/>
      <point x="44" y="402"/>
      <point x="30" y="420" type="curve"/>
    </contour>
  </outline>
</glyph>
<glyph name="AE" format="1">
  <advance width="1073"/>
  <unicode hex="00C6"/>
  <outline>
    <contour>
      <point x="320" y="0" type="line"/>
      <point x="350" y="271" type="line"/>
      <point x="458" y="271" type="line"/>
      <point x="458" y="35" type="line" smooth="yes"/>
      <point x="458" y="6"/>
      <point x="580" y="0"/>
      <point x="603" y="0" type="curve" smooth="yes"/>
      <point x="1043" y="0" type="line"/>
      <point x="1043" y="70" type="line"/>
      <point x="748" y="70" type="line"/>
      <point x="748" y="300" type="line"/>
      <point x="1033" y="300" type="line"/>
      <point x="1033" y="370" type="line"/>
      <point x="748" y="370" type="line"/>
      <point x="748" y="595" type="line"/>
      <point x="1043" y="595" type="line"/>
      <point x="1043" y="665" type="line"/>
      <point x="603" y="665" type="line" smooth="yes"/>
      <point x="588" y="665"/>
      <point x="533" y="662"/>
      <point x="495" y="653" type="curve"/>
      <point x="458" y="663"/>
      <point x="403" y="665"/>
      <point x="384" y="665" type="curve" smooth="yes"/>
      <point x="245" y="665" type="line" smooth="yes"/>
      <point x="220" y="665"/>
      <point x="103" y="660"/>
      <point x="100" y="632" type="curve" smooth="yes"/>
      <point x="30" y="0" type="line"/>
    </contour>
    <contour>
      <point x="358" y="341" type="line"/>
      <point x="386" y="597" type="line"/>
      <point x="458" y="597" type="line"/>
      <point x="458" y="341" type="line"/>
    </contour>
  </outline>
</glyph>
<glyph name="multiply" format="1">
  <advance width="458"/>
  <unicode hex="00D7"/>
  <outline>
    <contour>
      <point x="104" y="65" type="line"/>
      <point x="147" y="109"/>
      <point x="187" y="155"/>
      <point x="229" y="200" type="curve"/>
      <point x="271" y="155"/>
      <point x="311" y="109"/>
      <point x="354" y="65" type="curve"/>
      <point x="428" y="129" type="line"/>
      <point x="417" y="140"/>
      <point x="405" y="151"/>
      <point x="393" y="162" type="curve" smooth="yes"/>
      <point x="323" y="226" type="line" smooth="yes"/>
      <point x="311" y="237"/>
      <point x="300" y="248"/>
      <point x="288" y="259" type="curve"/>
      <point x="300" y="270"/>
      <point x="311" y="281"/>
      <point x="323" y="292" type="curve" smooth="yes"/>
      <point x="393" y="356" type="line" smooth="yes"/>
      <point x="405" y="367"/>
      <point x="417" y="378"/>
      <point x="428" y="389" type="curve"/>
      <point x="354" y="453" type="line"/>
      <point x="311" y="409"/>
      <point x="271" y="363"/>
      <point x="229" y="318" type="curve"/>
      <point x="187" y="363"/>
      <point x="147" y="409"/>
      <point x="104" y="453" type="curve"/>
      <point x="30" y="389" type="line"/>
      <point x="42" y="378"/>
      <point x="53" y="367"/>
      <point x="65" y="356" type="curve" smooth="yes"/>
      <point x="135" y="292" type="line" smooth="yes"/>
      <point x="147" y="281"/>
      <point x="159" y="270"/>
      <point x="170" y="259" type="curve"/>
      <point x="159" y="248"/>
      <point x="147" y="237"/>
      <point x="135" y="226" type="curve" smooth="yes"/>
      <point x="65" y="162" type="line" smooth="yes"/>
      <point x="53" y="151"/>
      <point x="42" y="140"/>
      <point x="30" y="129" type="curve"/>
    </contour>
  </outline>
</glyph>
<glyph name="Oslash" format="1">
  <advance width="781"/>
  <unicode hex="00D8"/>
  <outline>
    <component base="O"/>
    <contour>
      <point x="515" y="734" type="line"/>
      <point x="210" y="-51" type="line"/>
      <point x="266" y="-69" type="line"/>
      <point x="571" y="716" type="line"/>
    </contour>
    <contour>
      <point x="391" y="0" type="move" name="bottom"/>
    </contour>
    <contour>
      <point x="391" y="665" type="move" name="top"/>
    </contour>
  </outline>
</glyph>
<glyph name="Thorn" format="1">
  <advance width="700"/>
  <unicode hex="00DE"/>
  <outline>
    <contour>
      <point x="310" y="0" type="line"/>
      <point x="310" y="147" type="line"/>
      <point x="530" y="147" type="line" smooth="yes"/>
      <point x="552" y="147"/>
      <point x="670" y="153"/>
      <point x="670" y="181" type="curve" smooth="yes"/>
      <point x="670" y="486" type="line" smooth="yes"/>
      <point x="670" y="514"/>
      <point x="552" y="520"/>
      <point x="530" y="520" type="curve" smooth="yes"/>
      <point x="310" y="520" type="line"/>
      <point x="310" y="665" type="line"/>
      <point x="30" y="665" type="line"/>
      <point x="30" y="0" type="line"/>
    </contour>
    <contour>
      <point x="310" y="215" type="line"/>
      <point x="310" y="452" type="line"/>
      <point x="390" y="452" type="line"/>
      <point x="390" y="215" type="line"/>
    </contour>
  </outline>
</glyph>
<glyph name="germandbls" format="1">
  <advance width="765"/>
  <unicode hex="00DF"/>
  <outline>
    <contour>
      <point x="315" y="0" type="line"/>
      <point x="315" y="50"/>
      <point x="314.938" y="100.063"/>
      <point x="314.844" y="150.156" type="curve" smooth="yes"/>
      <point x="314.156" y="450.844" type="line" smooth="yes"/>
      <point x="314.063" y="500.938"/>
      <point x="314" y="551"/>
      <point x="314" y="601" type="curve" smooth="yes"/>
      <point x="314" y="618"/>
      <point x="315" y="654"/>
      <point x="330" y="666" type="curve"/>
      <point x="421" y="666" type="line"/>
      <point x="439" y="650"/>
      <point x="436" y="607"/>
      <point x="436" y="585" type="curve" smooth="yes"/>
      <point x="436" y="490" type="line" smooth="yes"/>
      <point x="436" y="458"/>
      <point x="434.9" y="424.1"/>
      <point x="403.553" y="404.8" type="curve"/>
      <point x="345" y="404.8" type="line"/>
      <point x="345" y="335.2" type="line"/>
      <point x="422.465" y="335.2" type="line"/>
      <point x="455" y="314"/>
      <point x="455" y="282"/>
      <point x="455" y="248" type="curve" smooth="yes"/>
      <point x="455" y="113" type="line" smooth="yes"/>
      <point x="455" y="93"/>
      <point x="454" y="74"/>
      <point x="441" y="58" type="curve"/>
      <point x="345" y="58" type="line"/>
      <point x="345" y="24" type="line" smooth="yes"/>
      <point x="345" y="-7"/>
      <point x="476" y="-10"/>
      <point x="500" y="-10" type="curve" smooth="yes"/>
      <point x="579" y="-10"/>
      <point x="735" y="-8"/>
      <point x="735" y="104" type="curve" smooth="yes"/>
      <point x="735" y="270" type="line" smooth="yes"/>
      <point x="735" y="299"/>
      <point x="723.8" y="321.8"/>
      <point x="700" y="339" type="curve" smooth="yes"/>
      <point x="674.739" y="357.318"/>
      <point x="609.915" y="362.203"/>
      <point x="560" y="363.511" type="curve"/>
      <point x="560" y="377.148" type="line"/>
      <point x="625.024" y="380.026"/>
      <point x="716" y="383.74"/>
      <point x="716" y="470" type="curve" smooth="yes"/>
      <point x="716" y="620" type="line" smooth="yes"/>
      <point x="716" y="726"/>
      <point x="573" y="734"/>
      <point x="496" y="734" type="curve" smooth="yes"/>
      <point x="255" y="734" type="line" smooth="yes"/>
      <point x="178" y="734"/>
      <point x="35" y="726"/>
      <point x="35" y="620" type="curve" smooth="yes"/>
      <point x="35" y="0" type="line"/>
    </contour>
  </outline>
</glyph>
<glyph name="ae" format="1">
  <advance width="1069"/>
  <unicode hex="00E6"/>
  <outline>
    <contour>
      <point x="1029" y="68" type="line"/>
      <point x="679" y="68" type="line"/>
      <point x="679" y="172" type="line"/>
      <point x="691" y="148"/>
      <point x="791" y="142"/>
      <point x="818" y="142" type="curve" smooth="yes"/>
      <point x="899" y="142" type="line" smooth="yes"/>
      <point x="921" y="142"/>
      <point x="1039" y="148"/>
      <point x="1039" y="176" type="curve" smooth="yes"/>
      <point x="1039" y="466" type="line" smooth="yes"/>
      <point x="1039" y="494"/>
      <point x="921" y="500"/>
      <point x="899" y="500" type="curve" smooth="yes"/>
      <point x="818" y="500" type="line" smooth="yes"/>
      <point x="792" y="500"/>
      <point x="691" y="494"/>
      <point x="679" y="469" type="curve"/>
      <point x="671" y="494"/>
      <point x="560" y="500"/>
      <point x="539" y="500" type="curve" smooth="yes"/>
      <point x="49" y="500" type="line"/>
      <point x="49" y="432" type="line"/>
      <point x="399" y="432" type="line"/>
      <point x="399" y="304" type="line"/>
      <point x="399" y="342"/>
      <point x="286" y="344"/>
      <point x="259" y="344" type="curve" smooth="yes"/>
      <point x="170" y="344" type="line" smooth="yes"/>
      <point x="148" y="344"/>
      <point x="30" y="338"/>
      <point x="30" y="310" type="curve" smooth="yes"/>
      <point x="30" y="34" type="line" smooth="yes"/>
      <point x="30" y="6"/>
      <point x="148" y="0"/>
      <point x="170" y="0" type="curve" smooth="yes"/>
      <point x="260" y="0" type="line" smooth="yes"/>
      <point x="286" y="0"/>
      <point x="387" y="6"/>
      <point x="399" y="31" type="curve"/>
      <point x="407" y="6"/>
      <point x="518" y="0"/>
      <point x="539" y="0" type="curve" smooth="yes"/>
      <point x="1029" y="0" type="line"/>
    </contour>
    <contour>
      <point x="679" y="210" type="line"/>
      <point x="679" y="432" type="line"/>
      <point x="759" y="432" type="line"/>
      <point x="759" y="210" type="line"/>
    </contour>
    <contour>
      <point x="399" y="276" type="line"/>
      <point x="399" y="68" type="line"/>
      <point x="310" y="68" type="line"/>
      <point x="310" y="276" type="line"/>
    </contour>
    <contour>
      <point x="-745" y="500" type="move" name="top"/>
    </contour>
  </outline>
</glyph>
<glyph name="eth" format="1">
  <advance width="720"/>
  <unicode hex="00F0"/>
  <outline>
    <contour>
      <point x="170" y="665" type="line"/>
      <point x="430" y="665" type="line" smooth="yes"/>
      <point x="501" y="665"/>
      <point x="628" y="658"/>
      <point x="647" y="574" type="curve"/>
      <point x="704" y="582" type="line"/>
      <point x="710" y="536" type="line"/>
      <point x="650" y="528" type="line"/>
      <point x="650" y="34" type="line" smooth="yes"/>
      <point x="650" y="6"/>
      <point x="532" y="0"/>
      <point x="510" y="0" type="curve" smooth="yes"/>
      <point x="170" y="0" type="line" smooth="yes"/>
      <point x="148" y="0"/>
      <point x="30" y="6"/>
      <point x="30" y="34" type="curve" smooth="yes"/>
      <point x="30" y="394" type="line" smooth="yes"/>
      <point x="30" y="427"/>
      <point x="174" y="428"/>
      <point x="200" y="428" type="curve" smooth="yes"/>
      <point x="232" y="428"/>
      <point x="354" y="427"/>
      <point x="370" y="398" type="curve"/>
      <point x="370" y="488" type="line"/>
      <point x="290" y="477" type="line"/>
      <point x="284" y="523" type="line"/>
      <point x="370" y="535" type="line"/>
      <point x="370" y="536"/>
      <point x="370" y="536"/>
      <point x="370" y="537" type="curve"/>
      <point x="370" y="561"/>
      <point x="370" y="576"/>
      <point x="356" y="597" type="curve"/>
      <point x="170" y="597" type="line"/>
    </contour>
    <contour>
      <point x="310" y="68" type="line"/>
      <point x="370" y="68" type="line"/>
      <point x="370" y="360" type="line"/>
      <point x="310" y="360" type="line"/>
    </contour>
  </outline>
</glyph>
<glyph name="divide" format="1">
  <advance width="520"/>
  <unicode hex="00F7"/>
  <outline>
    <contour>
      <point x="330" y="463" type="line"/>
      <point x="260" y="463" type="line" smooth="yes"/>
      <point x="249" y="463"/>
      <point x="190" y="460"/>
      <point x="190" y="446" type="curve" smooth="yes"/>
      <point x="190" y="349" type="line"/>
      <point x="260" y="349" type="line" smooth="yes"/>
      <point x="271" y="349"/>
      <point x="330" y="352"/>
      <point x="330" y="366" type="curve" smooth="yes"/>
    </contour>
    <contour>
      <point x="30" y="209" type="line"/>
      <point x="490" y="209" type="line"/>
      <point x="490" y="277" type="line"/>
      <point x="30" y="277" type="line"/>
    </contour>
    <contour>
      <point x="330" y="137" type="line"/>
      <point x="260" y="137" type="line" smooth="yes"/>
      <point x="249" y="137"/>
      <point x="190" y="134"/>
      <point x="190" y="120" type="curve" smooth="yes"/>
      <point x="190" y="23" type="line"/>
      <point x="260" y="23" type="line" smooth="yes"/>
      <point x="271" y="23"/>
      <point x="330" y="26"/>
      <point x="330" y="40" type="curve" smooth="yes"/>
    </contour>
  </outline>
</glyph>
<glyph name="oslash" format="1">
  <advance width="700"/>
  <unicode hex="00F8"/>
  <outline>
    <component base="o"/>
    <contour>
      <point x="442" y="569" type="line"/>
      <point x="201" y="-51" type="line"/>
      <point x="257" y="-69" type="line"/>
      <point x="498" y="551" type="line"/>
    </contour>
    <contour>
      <point x="350" y="500" type="move" name="top"/>
    </contour>
  </outline>
</glyph>
<glyph name="thorn" format="1">
  <advance width="700"/>
  <unicode hex="00FE"/>
  <outline>
    <contour>
      <point x="310" y="-165" type="line"/>
      <point x="310" y="30" type="line"/>
      <point x="322" y="6"/>
      <point x="422" y="0"/>
      <point x="449" y="0" type="curve" smooth="yes"/>
      <point x="530" y="0" type="line" smooth="yes"/>
      <point x="552" y="0"/>
      <point x="670" y="6"/>
      <point x="670" y="34" type="curve" smooth="yes"/>
      <point x="670" y="466" type="line" smooth="yes"/>
      <point x="670" y="494"/>
      <point x="552" y="500"/>
      <point x="530" y="500" type="curve" smooth="yes"/>
      <point x="449" y="500" type="line" smooth="yes"/>
      <point x="423" y="500"/>
      <point x="322" y="494"/>
      <point x="310" y="470" type="curve"/>
      <point x="310" y="665" type="line"/>
      <point x="30" y="665" type="line"/>
      <point x="30" y="-165" type="line"/>
    </contour>
    <contour>
      <point x="310" y="68" type="line"/>
      <point x="310" y="432" type="line"/>
      <point x="390" y="432" type="line"/>
      <point x="390" y="68" type="line"/>
    </contour>
  </outline>
</glyph>
<glyph name="dcaron" format="1">
  <advance width="950"/>
  <unicode hex="010F"/>
  <outline>
    <component base="d"/>
    <contour>
      <point x="770" y="452" type="line"/>
      <point x="920" y="452" type="line"/>
      <point x="920" y="677" type="line" smooth="yes"/>
      <point x="920" y="692.2"/>
      <point x="856.9" y="695"/>
      <point x="845" y="695" type="curve" smooth="yes"/>
      <point x="770" y="695" type="line"/>
    </contour>
  </outline>
</glyph>
<glyph name="dcroat" format="1">
  <advance width="730"/>
  <unicode hex="0111"/>
  <outline>
    <component base="d"/>
    <contour>
      <point x="300" y="546" type="line"/>
      <point x="720" y="546" type="line"/>
      <point x="720" y="594" type="line"/>
      <point x="300" y="594" type="line"/>
    </contour>
  </outline>
</glyph>
<glyph name="gcommaaccent" format="1">
  <advance width="725"/>
  <unicode hex="0123"/>
  <outline>
    <component base="g"/>
    <contour>
      <point x="422" y="564" type="line"/>
      <point x="484" y="754" type="line"/>
      <point x="394" y="778" type="line"/>
      <point x="326" y="590" type="line"/>
    </contour>
    <contour>
      <point x="378" y="500" type="move" name="top"/>
    </contour>
  </outline>
</glyph>
<glyph name="hbar" format="1">
  <advance width="730"/>
  <unicode hex="0127"/>
  <outline>
    <component base="h" xOffset="30"/>
    <contour>
      <point x="10" y="546" type="line"/>
      <point x="430" y="546" type="line"/>
      <point x="430" y="594" type="line"/>
      <point x="10" y="594" type="line"/>
    </contour>
    <contour>
      <point x="200" y="665" type="move" name="top"/>
    </contour>
  </outline>
</glyph>
<glyph name="kgreenlandic" format="1">
  <advance width="700"/>
  <unicode hex="0138"/>
  <outline>
    <contour>
      <point x="30" y="500" type="line"/>
      <point x="30" y="0" type="line"/>
      <point x="310" y="0" type="line"/>
      <point x="310" y="201" type="line"/>
      <point x="503" y="238" type="line"/>
      <point x="530" y="244"/>
      <point x="638" y="264"/>
      <point x="641" y="283" type="curve"/>
      <point x="670" y="501" type="line"/>
      <point x="390" y="501" type="line"/>
      <point x="362" y="297" type="line"/>
      <point x="310" y="287" type="line"/>
      <point x="310" y="500" type="line"/>
    </contour>
    <contour>
      <point x="660" y="0" type="line"/>
      <point x="660" y="170" type="line" smooth="yes"/>
      <point x="660" y="198"/>
      <point x="542" y="204"/>
      <point x="520" y="204" type="curve" smooth="yes"/>
      <point x="380" y="204" type="line"/>
      <point x="380" y="0" type="line"/>
    </contour>
    <contour>
      <point x="350" y="0" type="move" name="bottom"/>
    </contour>
  </outline>
</glyph>
<glyph name="Lcaron" format="1">
  <advance width="595"/>
  <unicode hex="013D"/>
  <outline>
    <component base="L"/>
    <contour>
      <point x="422" y="452" type="line"/>
      <point x="572" y="452" type="line"/>
      <point x="572" y="677" type="line" smooth="yes"/>
      <point x="572" y="692"/>
      <point x="509" y="695"/>
      <point x="497" y="695" type="curve" smooth="yes"/>
      <point x="422" y="695" type="line"/>
    </contour>
    <contour>
      <point x="303" y="0" type="move" name="bottom"/>
    </contour>
    <contour>
      <point x="175" y="665" type="move" name="top"/>
    </contour>
  </outline>
</glyph>
<glyph name="lcaron" format="1">
  <advance width="580"/>
  <unicode hex="013E"/>
  <outline>
    <contour>
      <point x="310" y="0" type="line"/>
      <point x="310" y="695" type="line"/>
      <point x="30" y="695" type="line"/>
      <point x="30" y="0" type="line"/>
    </contour>
    <contour>
      <point x="410" y="452" type="line"/>
      <point x="560" y="452" type="line"/>
      <point x="560" y="677" type="line" smooth="yes"/>
      <point x="560" y="692"/>
      <point x="497" y="695"/>
      <point x="485" y="695" type="curve" smooth="yes"/>
      <point x="410" y="695" type="line"/>
    </contour>
    <contour>
      <point x="170" y="0" type="move" name="bottom"/>
    </contour>
    <contour>
      <point x="170" y="695" type="move" name="top"/>
    </contour>
  </outline>
</glyph>
<glyph name="Eng" format="1">
  <advance width="773"/>
  <unicode hex="014A"/>
  <outline>
    <contour>
      <point x="320" y="0" type="line"/>
      <point x="320" y="595" type="line"/>
      <point x="451" y="595" type="line"/>
      <point x="453" y="590"/>
      <point x="453" y="585"/>
      <point x="453" y="580" type="curve" smooth="yes"/>
      <point x="453" y="30" type="line" smooth="yes"/>
      <point x="453" y="-13"/>
      <point x="415" y="-76"/>
      <point x="396" y="-115" type="curve"/>
      <point x="684" y="-125" type="line"/>
      <point x="705" y="-82"/>
      <point x="743" y="-17"/>
      <point x="743" y="30" type="curve" smooth="yes"/>
      <point x="743" y="580" type="line" smooth="yes"/>
      <point x="743" y="661"/>
      <point x="605" y="665"/>
      <point x="548" y="665" type="curve" smooth="yes"/>
      <point x="175" y="665" type="line" smooth="yes"/>
      <point x="152" y="665"/>
      <point x="30" y="659"/>
      <point x="30" y="630" type="curve" smooth="yes"/>
      <point x="30" y="0" type="line"/>
    </contour>
    <contour>
      <point x="394" y="-50" type="move" name="bottom"/>
    </contour>
    <contour>
      <point x="598" y="665" type="move" name="top"/>
    </contour>
  </outline>
</glyph>
<glyph name="eng" format="1">
  <advance width="700"/>
  <unicode hex="014B"/>
  <outline>
    <contour>
      <point x="310" y="0" type="line"/>
      <point x="310" y="432" type="line"/>
      <point x="390" y="432" type="line"/>
      <point x="390" y="15" type="line" smooth="yes"/>
      <point x="390" y="11"/>
      <point x="390" y="4"/>
      <point x="387" y="-3" type="curve"/>
      <point x="329" y="-126" type="line"/>
      <point x="608" y="-134" type="line"/>
      <point x="667" y="-4" type="line"/>
      <point x="670" y="2"/>
      <point x="670" y="7"/>
      <point x="670" y="10" type="curve" smooth="yes"/>
      <point x="670" y="466" type="line" smooth="yes"/>
      <point x="670" y="494"/>
      <point x="552" y="500"/>
      <point x="530" y="500" type="curve" smooth="yes"/>
      <point x="30" y="500" type="line"/>
      <point x="30" y="0" type="line"/>
    </contour>
    <contour>
      <point x="350" y="0" type="move" name="bottom"/>
    </contour>
    <contour>
      <point x="401" y="500" type="move" name="top"/>
    </contour>
  </outline>
</glyph>
<glyph name="OE" format="1">
  <advance width="1426"/>
  <unicode hex="0152"/>
  <outline>
    <component base="E" xOffset="431"/>
    <contour>
      <point x="320" y="70" type="line"/>
      <point x="320" y="595" type="line"/>
      <point x="463" y="595" type="line"/>
      <point x="463" y="624" type="line" smooth="yes"/>
      <point x="463" y="627"/>
      <point x="464" y="632"/>
      <point x="462" y="635" type="curve"/>
      <point x="449" y="660"/>
      <point x="346" y="665"/>
      <point x="318" y="665" type="curve" smooth="yes"/>
      <point x="175" y="665" type="line" smooth="yes"/>
      <point x="152" y="665"/>
      <point x="30" y="659"/>
      <point x="30" y="630" type="curve" smooth="yes"/>
      <point x="30" y="35" type="line" smooth="yes"/>
      <point x="30" y="6"/>
      <point x="152" y="0"/>
      <point x="175" y="0" type="curve" smooth="yes"/>
      <point x="318" y="0" type="line" smooth="yes"/>
      <point x="345" y="0"/>
      <point x="450" y="5"/>
      <point x="462" y="30" type="curve" smooth="yes"/>
      <point x="464" y="34"/>
      <point x="463" y="39"/>
      <point x="463" y="43" type="curve" smooth="yes"/>
      <point x="463" y="70" type="line"/>
    </contour>
    <contour>
      <point x="1104" y="0" type="move" name="bottom"/>
    </contour>
    <contour>
      <point x="1124" y="665" type="move" name="top"/>
    </contour>
  </outline>
</glyph>
<glyph name="oe" format="1">
  <advance width="1060"/>
  <unicode hex="0153"/>
  <outline>
    <component base="e" xOffset="360"/>
    <contour>
      <point x="391" y="433" type="line"/>
      <point x="391" y="461" type="line" smooth="yes"/>
      <point x="391" y="464"/>
      <point x="391.4" y="467.2"/>
      <point x="390" y="470" type="curve" smooth="yes"/>
      <point x="377.4" y="495.2"/>
      <point x="278" y="500"/>
      <point x="251" y="500" type="curve" smooth="yes"/>
      <point x="170" y="500" type="line" smooth="yes"/>
      <point x="148" y="500"/>
      <point x="30" y="494"/>
      <point x="30" y="466" type="curve" smooth="yes"/>
      <point x="30" y="34" type="line" smooth="yes"/>
      <point x="30" y="6"/>
      <point x="148" y="0"/>
      <point x="170" y="0" type="curve" smooth="yes"/>
      <point x="251" y="0" type="line" smooth="yes"/>
      <point x="277" y="0"/>
      <point x="377.6" y="6.2"/>
      <point x="390" y="30" type="curve" smooth="yes"/>
      <point x="391.7" y="33.2"/>
      <point x="391" y="38"/>
      <point x="391" y="42" type="curve" smooth="yes"/>
      <point x="391" y="68" type="line"/>
      <point x="310" y="68" type="line"/>
      <point x="310" y="433" type="line"/>
    </contour>
    <contour>
      <point x="1050" y="0" type="move" name="bottom"/>
    </contour>
    <contour>
      <point x="1050" y="500" type="move" name="top"/>
    </contour>
  </outline>
</glyph>
<glyph name="tcaron" format="1">
  <advance width="740"/>
  <unicode hex="0165"/>
  <outline>
    <component base="t"/>
    <contour>
      <point x="560" y="452" type="line"/>
      <point x="710" y="452" type="line"/>
      <point x="710" y="677" type="line" smooth="yes"/>
      <point x="710" y="692"/>
      <point x="647" y="695"/>
      <point x="635" y="695" type="curve" smooth="yes"/>
      <point x="560" y="695" type="line"/>
    </contour>
    <contour>
      <point x="265" y="0" type="move" name="bottom"/>
    </contour>
  </outline>
</glyph>
<glyph name="Tbar" format="1">
  <advance width="640"/>
  <unicode hex="0166"/>
  <outline>
    <component base="T"/>
    <contour>
      <point x="86" y="346" type="line"/>
      <point x="546" y="346" type="line"/>
      <point x="546" y="394" type="line"/>
      <point x="86" y="394" type="line"/>
    </contour>
  </outline>
</glyph>
<glyph name="tbar" format="1">
  <advance width="530"/>
  <unicode hex="0167"/>
  <outline>
    <component base="t"/>
    <contour>
      <point x="30" y="246" type="line"/>
      <point x="490" y="246" type="line"/>
      <point x="490" y="294" type="line"/>
      <point x="30" y="294" type="line"/>
    </contour>
    <contour>
      <point x="265" y="0" type="move" name="bottom"/>
    </contour>
  </outline>
</glyph>
<glyph name="longs" format="1">
  <advance width="400"/>
  <unicode hex="017F"/>
  <outline>
    <contour>
      <point x="310" y="0" type="line"/>
      <point x="310" y="47"/>
      <point x="309.962" y="93.9938"/>
      <point x="309.906" y="140.984" type="curve" smooth="yes"/>
      <point x="309.494" y="422.916" type="line" smooth="yes"/>
      <point x="309.438" y="469.906"/>
      <point x="309.4" y="516.9"/>
      <point x="309.4" y="563.9" type="curve" smooth="yes"/>
      <point x="309.4" y="588.6"/>
      <point x="309.7" y="606.2"/>
      <point x="324.5" y="627.1" type="curve"/>
      <point x="325" y="627.4" type="line"/>
      <point x="400" y="627.4" type="line"/>
      <point x="400" y="694.6" type="line"/>
      <point x="250" y="694.6" type="line" smooth="yes"/>
      <point x="172.8" y="694.6"/>
      <point x="30" y="687.2"/>
      <point x="30" y="581" type="curve" smooth="yes"/>
      <point x="30" y="0" type="line"/>
    </contour>
  </outline>
</glyph>
<glyph name="florin" format="1">
  <advance width="585"/>
  <unicode hex="0192"/>
  <outline>
    <contour>
      <point x="67" y="363" type="line"/>
      <point x="136" y="363" type="line"/>
      <point x="110" y="-17" type="line"/>
      <point x="24" y="-17" type="line"/>
      <point x="20" y="-85" type="line"/>
      <point x="246" y="-85" type="line" smooth="yes"/>
      <point x="268" y="-85"/>
      <point x="386" y="-79"/>
      <point x="388" y="-51" type="curve" smooth="yes"/>
      <point x="416" y="363" type="line"/>
      <point x="557" y="363" type="line"/>
      <point x="562" y="431" type="line"/>
      <point x="401" y="431" type="line"/>
      <point x="411" y="547" type="line"/>
      <point x="571" y="547" type="line"/>
      <point x="575" y="615" type="line"/>
      <point x="270" y="615" type="line" smooth="yes"/>
      <point x="248" y="615"/>
      <point x="135" y="609"/>
      <point x="133" y="581" type="curve" smooth="yes"/>
      <point x="125" y="474" type="line" smooth="yes"/>
      <point x="123" y="446"/>
      <point x="233" y="440"/>
      <point x="257" y="440" type="curve"/>
      <point x="256" y="431" type="line"/>
      <point x="72" y="431" type="line"/>
    </contour>
  </outline>
</glyph>
<glyph name="dotlessj" format="1">
  <advance width="350"/>
  <unicode hex="0237"/>
  <outline>
    <contour>
      <point x="40" y="500" type="line"/>
      <point x="40" y="-97" type="line"/>
      <point x="-50" y="-97" type="line"/>
      <point x="-50" y="-164" type="line"/>
      <point x="180" y="-165" type="line" smooth="yes"/>
      <point x="202" y="-165"/>
      <point x="320" y="-159"/>
      <point x="320" y="-131" type="curve" smooth="yes"/>
      <point x="320" y="500" type="line"/>
    </contour>
    <contour>
      <point x="181" y="500" type="move" name="top"/>
    </contour>
  </outline>
</glyph>
<glyph name="circumflex" format="1">
  <advance width="456"/>
  <unicode hex="02C6"/>
  <outline>
    <contour>
      <point x="59.5" y="739.1" type="line"/>
      <point x="227.9" y="793.9" type="line"/>
      <point x="284.4" y="776.5"/>
      <point x="340.3" y="757.4"/>
      <point x="396.5" y="739.1" type="curve"/>
      <point x="425.5" y="810.9" type="line"/>
      <point x="302.1" y="851.2" type="line" smooth="yes"/>
      <point x="278.8" y="858.8"/>
      <point x="252.5" y="871.2"/>
      <point x="228" y="871.2" type="curve" smooth="yes"/>
      <point x="203.5" y="871.2"/>
      <point x="177.2" y="858.8"/>
      <point x="153.9" y="851.2" type="curve" smooth="yes"/>
      <point x="30.5" y="810.9" type="line"/>
    </contour>
    <contour>
      <point x="228" y="665" type="move" name="_top"/>
    </contour>
  </outline>
</glyph>
<glyph name="caron" format="1">
  <advance width="456"/>
  <unicode hex="02C7"/>
  <outline>
    <contour>
      <point x="60" y="861" type="line"/>
      <point x="228" y="806" type="line"/>
      <point x="284" y="824"/>
      <point x="340" y="843"/>
      <point x="397" y="861" type="curve"/>
      <point x="426" y="789" type="line"/>
      <point x="302" y="749" type="line" smooth="yes"/>
      <point x="279" y="741"/>
      <point x="253" y="729"/>
      <point x="228" y="729" type="curve" smooth="yes"/>
      <point x="204" y="729"/>
      <point x="177" y="741"/>
      <point x="154" y="749" type="curve" smooth="yes"/>
      <point x="31" y="789" type="line"/>
    </contour>
    <contour>
      <point x="228" y="665" type="move" name="_top"/>
    </contour>
  </outline>
</glyph>
<glyph name="dotaccent" format="1">
  <advance width="180"/>
  <unicode hex="02D9"/>
  <outline>
    <contour>
      <point x="149.6" y="848.8" type="line"/>
      <point x="90.1" y="848.8" type="line" smooth="yes"/>
      <point x="80.6" y="848.8"/>
      <point x="30.6" y="846.6"/>
      <point x="30.6" y="834.5" type="curve" smooth="yes"/>
      <point x="30.6" y="753.3" type="line"/>
      <point x="90.1" y="753.3" type="line" smooth="yes"/>
      <point x="99.6" y="753.3"/>
      <point x="149.6" y="755.5"/>
      <point x="149.6" y="767.6" type="curve" smooth="yes"/>
    </contour>
    <contour>
      <point x="90" y="665" type="move" name="_top"/>
    </contour>
  </outline>
</glyph>
<glyph name="ring" format="1">
  <advance width="310"/>
  <unicode hex="02DA"/>
  <outline>
    <contour>
      <point x="205" y="732" type="line" smooth="yes"/>
      <point x="227" y="732"/>
      <point x="280" y="733"/>
      <point x="280" y="765" type="curve" smooth="yes"/>
      <point x="280" y="855" type="line" smooth="yes"/>
      <point x="280" y="887"/>
      <point x="227" y="888"/>
      <point x="205" y="888" type="curve" smooth="yes"/>
      <point x="105" y="888" type="line" smooth="yes"/>
      <point x="83" y="888"/>
      <point x="30" y="887"/>
      <point x="30" y="855" type="curve" smooth="yes"/>
      <point x="30" y="765" type="line" smooth="yes"/>
      <point x="30" y="733"/>
      <point x="83" y="732"/>
      <point x="105" y="732" type="curve" smooth="yes"/>
    </contour>
    <contour>
      <point x="169" y="758" type="curve"/>
      <point x="141" y="758" type="line"/>
      <point x="140" y="760"/>
      <point x="140" y="763"/>
      <point x="140" y="765" type="curve" smooth="yes"/>
      <point x="140" y="855" type="line" smooth="yes"/>
      <point x="140" y="857"/>
      <point x="140" y="860"/>
      <point x="141" y="862" type="curve"/>
      <point x="169" y="862" type="line"/>
      <point x="170" y="860"/>
      <point x="170" y="857"/>
      <point x="170" y="855" type="curve" smooth="yes"/>
      <point x="170" y="765" type="line" smooth="yes"/>
      <point x="170" y="763"/>
      <point x="170" y="760"/>
    </contour>
    <contour>
      <point x="155" y="665" type="move" name="_top"/>
    </contour>
  </outline>
</glyph>
<glyph name="ogonek" format="1">
  <advance width="258"/>
  <unicode hex="02DB"/>
  <outline>
    <contour>
      <point x="56" y="17" type="line"/>
      <point x="51" y="-1"/>
      <point x="30" y="-76"/>
      <point x="30" y="-87" type="curve" smooth="yes"/>
      <point x="30" y="-200" type="line" smooth="yes"/>
      <point x="30" y="-219"/>
      <point x="91" y="-223"/>
      <point x="105" y="-223" type="curve" smooth="yes"/>
      <point x="228" y="-223" type="line"/>
      <point x="228" y="-178" type="line"/>
      <point x="180" y="-178" type="line"/>
      <point x="180" y="-88" type="line" smooth="yes"/>
      <point x="180" y="-79"/>
      <point x="203" y="1"/>
      <point x="207" y="17" type="curve"/>
    </contour>
    <contour>
      <point x="129" y="0" type="move" name="_bottom"/>
    </contour>
  </outline>
</glyph>
<glyph name="tilde" format="1">
  <advance width="466"/>
  <unicode hex="02DC"/>
  <outline>
    <contour>
      <point x="140" y="735" type="line"/>
      <point x="140" y="825" type="line"/>
      <point x="215" y="763"/>
      <point x="231" y="733"/>
      <point x="336" y="733" type="curve" smooth="yes"/>
      <point x="369" y="733"/>
      <point x="436" y="732"/>
      <point x="436" y="779" type="curve" smooth="yes"/>
      <point x="436" y="869" type="line"/>
      <point x="326" y="869" type="line"/>
      <point x="326" y="852"/>
      <point x="326" y="835"/>
      <point x="326" y="818" type="curve" smooth="yes"/>
      <point x="326" y="809"/>
      <point x="326" y="778"/>
      <point x="324" y="770" type="curve"/>
      <point x="313" y="776"/>
      <point x="306" y="784"/>
      <point x="297" y="792" type="curve" smooth="yes"/>
      <point x="225" y="852"/>
      <point x="214" y="872"/>
      <point x="121" y="872" type="curve" smooth="yes"/>
      <point x="90" y="872"/>
      <point x="30" y="868"/>
      <point x="30" y="825" type="curve" smooth="yes"/>
      <point x="30" y="735" type="line"/>
    </contour>
    <contour>
      <point x="233" y="665" type="move" name="_top"/>
    </contour>
  </outline>
</glyph>
<glyph name="hungarumlaut" format="1">
  <advance width="487"/>
  <unicode hex="02DD"/>
  <outline>
    <contour>
      <point x="339" y="881" type="line"/>
      <point x="205" y="737" type="line"/>
      <point x="309" y="731" type="line"/>
      <point x="457" y="875" type="line"/>
    </contour>
    <contour>
      <point x="153" y="881" type="line"/>
      <point x="30" y="737" type="line"/>
      <point x="134" y="731" type="line"/>
      <point x="271" y="875" type="line"/>
    </contour>
    <contour>
      <point x="173" y="665" type="move" name="_top"/>
    </contour>
  </outline>
</glyph>
<glyph name="commaaccentcomb" format="1">
  <advance width="221"/>
  <unicode hex="0326"/>
  <outline>
    <contour>
      <point x="39.8" y="-53" type="line"/>
      <point x="30" y="-248" type="line"/>
      <point x="180" y="-248" type="line"/>
      <point x="190" y="-48" type="line" smooth="yes"/>
      <point x="190.8" y="-33"/>
      <point x="126.6" y="-30"/>
      <point x="115" y="-30" type="curve" smooth="yes"/>
      <point x="40" y="-30" type="line"/>
    </contour>
    <contour>
      <point x="110" y="30" type="move" name="_bottom"/>
    </contour>
  </outline>
</glyph>
<glyph name="Delta" format="1">
  <advance width="871"/>
  <unicode hex="0394"/>
  <outline>
    <contour>
      <point x="711" y="0.4" type="line" smooth="yes"/>
      <point x="733.4" y="0.4"/>
      <point x="851" y="5.6"/>
      <point x="851" y="34" type="curve" smooth="yes"/>
      <point x="851" y="47.4"/>
      <point x="824.7" y="140.1"/>
      <point x="819.4" y="161.7" type="curve" smooth="yes"/>
      <point x="713.6" y="585.5" type="line" smooth="yes"/>
      <point x="711.1" y="595.7"/>
      <point x="704.6" y="632.4"/>
      <point x="698.7" y="638.3" type="curve" smooth="yes"/>
      <point x="676.2" y="660.6"/>
      <point x="594" y="664.6"/>
      <point x="562" y="664.6" type="curve" smooth="yes"/>
      <point x="309" y="664.6" type="line" smooth="yes"/>
      <point x="277" y="664.6"/>
      <point x="194.8" y="660.6"/>
      <point x="172.3" y="638.3" type="curve" smooth="yes"/>
      <point x="166.4" y="632.4"/>
      <point x="159.9" y="595.7"/>
      <point x="157.4" y="585.5" type="curve" smooth="yes"/>
      <point x="51.6" y="161.7" type="line" smooth="yes"/>
      <point x="46.3" y="140.1"/>
      <point x="20" y="47.4"/>
      <point x="20" y="34" type="curve" smooth="yes"/>
      <point x="20" y="5.6"/>
      <point x="137.6" y="0.4"/>
      <point x="160" y="0.4" type="curve" smooth="yes"/>
    </contour>
    <contour>
      <point x="308.6" y="67.6" type="line"/>
      <point x="435.5" y="576" type="line"/>
      <point x="562.4" y="67.6" type="line"/>
    </contour>
  </outline>
</glyph>
<glyph name="Omega" format="1">
  <advance width="791"/>
  <unicode hex="03A9"/>
  <outline>
    <contour>
      <point x="771" y="68" type="line"/>
      <point x="551" y="68" type="line"/>
      <point x="551" y="78" type="line"/>
      <point x="634" y="80"/>
      <point x="751" y="96"/>
      <point x="751" y="192" type="curve" smooth="yes"/>
      <point x="751" y="631" type="line" smooth="yes"/>
      <point x="751" y="659"/>
      <point x="633" y="665"/>
      <point x="611" y="665" type="curve" smooth="yes"/>
      <point x="180" y="665" type="line" smooth="yes"/>
      <point x="158" y="665"/>
      <point x="40" y="659"/>
      <point x="40" y="631" type="curve" smooth="yes"/>
      <point x="40" y="192" type="line" smooth="yes"/>
      <point x="40" y="96"/>
      <point x="157" y="80"/>
      <point x="240" y="78" type="curve"/>
      <point x="240" y="68" type="line"/>
      <point x="20" y="68" type="line"/>
      <point x="20" y="0" type="line"/>
      <point x="320" y="0" type="line"/>
      <point x="320" y="597" type="line"/>
      <point x="471" y="597" type="line"/>
      <point x="471" y="0" type="line"/>
      <point x="771" y="0" type="line"/>
    </contour>
  </outline>
</glyph>
<glyph name="mu" format="1">
  <advance width="700"/>
  <unicode hex="03BC"/>
  <outline>
    <contour>
      <point x="390" y="500" type="line"/>
      <point x="390" y="68" type="line"/>
      <point x="310" y="68" type="line"/>
      <point x="310" y="500" type="line"/>
      <point x="30" y="500" type="line"/>
      <point x="30" y="-165" type="line"/>
      <point x="310" y="-165" type="line"/>
      <point x="310" y="30" type="line"/>
      <point x="322" y="6"/>
      <point x="422" y="0"/>
      <point x="449" y="0" type="curve" smooth="yes"/>
      <point x="530" y="0" type="line" smooth="yes"/>
      <point x="552" y="0"/>
      <point x="670" y="6"/>
      <point x="670" y="34" type="curve" smooth="yes"/>
      <point x="670" y="500" type="line"/>
    </contour>
  </outline>
</glyph>
<glyph name="uni0900" format="1">
  <unicode hex="0900"/>
  <outline>
    <contour>
      <point x="-69" y="786.4" type="line"/>
      <point x="-69" y="707" type="line"/>
      <point x="-68.9" y="701.4" type="line"/>
      <point x="-68.4" y="690.1"/>
      <point x="-18.5" y="687.6"/>
      <point x="-9" y="687.6" type="curve" smooth="yes"/>
      <point x="51" y="687.6" type="line"/>
      <point x="51" y="767" type="line"/>
      <point x="50.9" y="772.6" type="line"/>
      <point x="50.4" y="783.9"/>
      <point x="0.5" y="786.4"/>
      <point x="-9" y="786.4" type="curve" smooth="yes"/>
    </contour>
    <contour>
      <point x="4252" y="-135" type="line"/>
      <point x="4250" y="-107"/>
      <point x="4251.1" y="-76"/>
      <point x="4245" y="-48" type="curve" smooth="yes"/>
      <point x="4232.1" y="11"/>
      <point x="4164" y="24"/>
      <point x="4112" y="24" type="curve" smooth="yes"/>
      <point x="3862" y="24" type="line" smooth="yes"/>
      <point x="3810" y="24"/>
      <point x="3741.9" y="11"/>
      <point x="3729" y="-48" type="curve" smooth="yes"/>
      <point x="3722.9" y="-76"/>
      <point x="3724" y="-107"/>
      <point x="3722" y="-135" type="curve"/>
      <point x="3882" y="-137" type="line"/>
      <point x="3884" y="-112"/>
      <point x="3884" y="-56"/>
      <point x="3895" y="-36" type="curve"/>
      <point x="4079" y="-36" type="line"/>
      <point x="4090" y="-56"/>
      <point x="4090" y="-112"/>
      <point x="4092" y="-137" type="curve"/>
    </contour>
  </outline>
</glyph>
<glyph name="Chandrabindu.dv" format="1">
  <unicode hex="0901"/>
  <outline>
    <contour>
      <point x="-50" y="913" type="line"/>
      <point x="-110" y="913" type="line" smooth="yes"/>
      <point x="-119" y="913"/>
      <point x="-169" y="911"/>
      <point x="-170" y="900" type="curve"/>
      <point x="-170" y="815" type="line"/>
      <point x="-110" y="815" type="line" smooth="yes"/>
      <point x="-101" y="815"/>
      <point x="-51" y="817"/>
      <point x="-50" y="828" type="curve"/>
    </contour>
    <contour>
      <point x="-380" y="850" type="line"/>
      <point x="-378" y="822"/>
      <point x="-379" y="791"/>
      <point x="-373" y="763" type="curve" smooth="yes"/>
      <point x="-360" y="704"/>
      <point x="-292" y="691"/>
      <point x="-240" y="691" type="curve" smooth="yes"/>
      <point x="10" y="691" type="line" smooth="yes"/>
      <point x="62" y="691"/>
      <point x="130" y="704"/>
      <point x="143" y="763" type="curve" smooth="yes"/>
      <point x="149" y="791"/>
      <point x="148" y="822"/>
      <point x="150" y="850" type="curve"/>
      <point x="-10" y="852" type="line"/>
      <point x="-12" y="827"/>
      <point x="-12" y="771"/>
      <point x="-23" y="751" type="curve"/>
      <point x="-207" y="751" type="line"/>
      <point x="-218" y="771"/>
      <point x="-218" y="827"/>
      <point x="-220" y="852" type="curve"/>
    </contour>
  </outline>
</glyph>
<glyph name="Bindu.dv" format="1">
  <unicode hex="0902"/>
  <outline>
    <contour>
      <point x="70" y="820.8" type="line"/>
      <point x="0" y="820.8" type="line" smooth="yes"/>
      <point x="-11.1" y="820.8"/>
      <point x="-70" y="818.2"/>
      <point x="-70" y="804" type="curve" smooth="yes"/>
      <point x="-70" y="717.2" type="line"/>
      <point x="0" y="717.2" type="line" smooth="yes"/>
      <point x="11.1" y="717.2"/>
      <point x="70" y="719.8"/>
      <point x="70" y="734" type="curve" smooth="yes"/>
    </contour>
  </outline>
</glyph>
<glyph name="Visarga.dv" format="1">
  <advance width="280"/>
  <unicode hex="0903"/>
  <outline>
    <contour>
      <point x="230" y="500" type="line"/>
      <point x="140" y="500" type="line" smooth="yes"/>
      <point x="126" y="500"/>
      <point x="50" y="496"/>
      <point x="50" y="478" type="curve" smooth="yes"/>
      <point x="50" y="386" type="line"/>
      <point x="140" y="386" type="line" smooth="yes"/>
      <point x="154" y="386"/>
      <point x="230" y="390"/>
      <point x="230" y="408" type="curve" smooth="yes"/>
    </contour>
    <contour>
      <point x="230" y="194" type="line"/>
      <point x="140" y="194" type="line" smooth="yes"/>
      <point x="126" y="194"/>
      <point x="50" y="190"/>
      <point x="50" y="172" type="curve" smooth="yes"/>
      <point x="50" y="80" type="line"/>
      <point x="140" y="80" type="line" smooth="yes"/>
      <point x="154" y="80"/>
      <point x="230" y="84"/>
      <point x="230" y="102" type="curve" smooth="yes"/>
    </contour>
  </outline>
</glyph>
<glyph name="vowelShortA.dv" format="1">
  <advance width="980"/>
  <unicode hex="0904"/>
  <outline>
    <contour>
      <point x="620" y="578.8" type="line"/>
      <point x="670" y="578.8" type="line"/>
      <point x="670" y="305.161" type="line"/>
      <point x="557.165" y="305" type="line"/>
      <point x="540.386" y="324.7"/>
      <point x="453.903" y="328.965"/>
      <point x="431.766" y="329.19" type="curve"/>
      <point x="432" y="334.018" type="line"/>
      <point x="492.517" y="344.064"/>
      <point x="550" y="370.361"/>
      <point x="550" y="438" type="curve" smooth="yes"/>
      <point x="550" y="560" type="line" smooth="yes"/>
      <point x="550" y="636.4"/>
      <point x="429" y="640"/>
      <point x="375" y="640" type="curve" smooth="yes"/>
      <point x="80" y="640" type="line"/>
      <point x="80" y="580" type="line"/>
      <point x="295.7" y="580" type="line"/>
      <point x="299" y="573.9"/>
      <point x="300" y="566.8"/>
      <point x="300" y="560" type="curve" smooth="yes"/>
      <point x="300" y="438" type="line" smooth="yes"/>
      <point x="300" y="420.5"/>
      <point x="295" y="400.7"/>
      <point x="282.3" y="388" type="curve"/>
      <point x="100" y="388" type="line"/>
      <point x="100" y="328" type="line"/>
      <point x="300" y="328" type="line"/>
      <point x="300.066" y="266.8" type="line"/>
      <point x="300.073" y="265.261"/>
      <point x="300.071" y="263.724"/>
      <point x="300.078" y="262.184" type="curve"/>
      <point x="300.422" y="200.316" type="line" smooth="yes"/>
      <point x="300.469" y="190.006"/>
      <point x="300.5" y="179.7"/>
      <point x="300.5" y="169.4" type="curve" smooth="yes"/>
      <point x="300.5" y="149.8"/>
      <point x="297.9" y="126"/>
      <point x="283.3" y="111.2" type="curve"/>
      <point x="60" y="111.2" type="line"/>
      <point x="60" y="48.8" type="line"/>
      <point x="350" y="48.8" type="line" smooth="yes"/>
      <point x="425.7" y="48.8"/>
      <point x="560" y="56.7"/>
      <point x="560" y="160" type="curve" smooth="yes"/>
      <point x="560" y="266.821" type="line"/>
      <point x="574.395" y="250.429"/>
      <point x="637.26" y="244.801"/>
      <point x="670.147" y="243.279" type="curve"/>
      <point x="670" y="0" type="line"/>
      <point x="930" y="0" type="line"/>
      <point x="930" y="578.8" type="line"/>
      <point x="980" y="578.8" type="line"/>
      <point x="980" y="641.2" type="line"/>
      <point x="848.743" y="641.2" type="line"/>
      <point x="845" y="656" type="line" smooth="yes"/>
      <point x="826.1" y="730.841"/>
      <point x="796.181" y="821.017"/>
      <point x="718" y="853" type="curve" smooth="yes"/>
      <point x="696" y="862"/>
      <point x="672" y="860.8"/>
      <point x="649" y="862" type="curve" smooth="yes"/>
      <point x="519" y="869" type="line" smooth="yes"/>
      <point x="479" y="871.2"/>
      <point x="453" y="866"/>
      <point x="418" y="891" type="curve"/>
      <point x="386" y="955" type="line"/>
      <point x="334" y="929" type="line"/>
      <point x="374" y="851"/>
      <point x="413.9" y="750.6"/>
      <point x="511" y="733" type="curve" smooth="yes"/>
      <point x="529.9" y="729.6"/>
      <point x="549" y="730.6"/>
      <point x="568" y="730" type="curve" smooth="yes"/>
      <point x="661" y="727" type="line" smooth="yes"/>
      <point x="690" y="726.1"/>
      <point x="742" y="729"/>
      <point x="767" y="718" type="curve"/>
      <point x="787.48" y="641.2" type="line"/>
      <point x="620" y="641.2" type="line"/>
    </contour>
  </outline>
</glyph>
<glyph name="vowelAa.dv" format="1">
  <advance width="1340"/>
  <unicode hex="0906"/>
  <outline>
    <contour>
      <point x="620" y="579" type="line"/>
      <point x="670" y="579" type="line"/>
      <point x="670" y="305" type="line"/>
      <point x="557" y="305" type="line"/>
      <point x="540" y="324"/>
      <point x="452" y="329"/>
      <point x="431" y="329" type="curve"/>
      <point x="431" y="339" type="line"/>
      <point x="492" y="349"/>
      <point x="550" y="375"/>
      <point x="550" y="443" type="curve" smooth="yes"/>
      <point x="550" y="561" type="line" smooth="yes"/>
      <point x="550" y="637"/>
      <point x="429" y="641"/>
      <point x="375" y="641" type="curve" smooth="yes"/>
      <point x="80" y="641" type="line"/>
      <point x="80" y="579" type="line"/>
      <point x="296" y="579" type="line"/>
      <point x="299" y="573"/>
      <point x="300" y="566"/>
      <point x="300" y="559" type="curve" smooth="yes"/>
      <point x="300" y="439" type="line" smooth="yes"/>
      <point x="300" y="421"/>
      <point x="295" y="402"/>
      <point x="282" y="389" type="curve"/>
      <point x="100" y="389" type="line"/>
      <point x="100" y="327" type="line"/>
      <point x="300" y="327" type="line"/>
      <point x="300" y="169" type="line" smooth="yes"/>
      <point x="300" y="149"/>
      <point x="298" y="126"/>
      <point x="283" y="111" type="curve"/>
      <point x="60" y="111" type="line"/>
      <point x="60" y="49" type="line"/>
      <point x="350" y="49" type="line" smooth="yes"/>
      <point x="426" y="49"/>
      <point x="560" y="57"/>
      <point x="560" y="160" type="curve" smooth="yes"/>
      <point x="560" y="267" type="line"/>
      <point x="574" y="251"/>
      <point x="637" y="245"/>
      <point x="670" y="243" type="curve"/>
      <point x="670" y="0" type="line"/>
      <point x="930" y="0" type="line"/>
      <point x="930" y="579" type="line"/>
      <point x="1030" y="579" type="line"/>
      <point x="1030" y="0" type="line"/>
      <point x="1290" y="0" type="line"/>
      <point x="1290" y="579" type="line"/>
      <point x="1340" y="579" type="line"/>
      <point x="1340" y="641" type="line"/>
      <point x="620" y="641" type="line"/>
    </contour>
  </outline>
</glyph>
<glyph name="vowelI.dv" format="1">
  <advance width="740"/>
  <unicode hex="0907"/>
  <outline>
    <contour>
      <point x="0" y="579" type="line"/>
      <point x="390" y="579" type="line"/>
      <point x="390" y="471" type="line"/>
      <point x="180" y="471" type="line" smooth="yes"/>
      <point x="159" y="471"/>
      <point x="50" y="466"/>
      <point x="50" y="440" type="curve" smooth="yes"/>
      <point x="50" y="280" type="line" smooth="yes"/>
      <point x="50" y="254"/>
      <point x="159" y="249"/>
      <point x="180" y="249" type="curve" smooth="yes"/>
      <point x="430" y="249" type="line"/>
      <point x="430" y="121" type="line"/>
      <point x="320" y="121" type="line"/>
      <point x="320" y="170" type="line"/>
      <point x="190" y="170" type="line" smooth="yes"/>
      <point x="169" y="170"/>
      <point x="60" y="165"/>
      <point x="60" y="139" type="curve" smooth="yes"/>
      <point x="60" y="-10" type="line"/>
      <point x="320" y="-10" type="line"/>
      <point x="320" y="59" type="line"/>
      <point x="560" y="59" type="line" smooth="yes"/>
      <point x="581" y="59"/>
      <point x="690" y="64"/>
      <point x="690" y="90" type="curve" smooth="yes"/>
      <point x="690" y="280" type="line" smooth="yes"/>
      <point x="690" y="306"/>
      <point x="581" y="311"/>
      <point x="560" y="311" type="curve" smooth="yes"/>
      <point x="310" y="311" type="line"/>
      <point x="310" y="409" type="line"/>
      <point x="520" y="409" type="line" smooth="yes"/>
      <point x="541" y="409"/>
      <point x="650" y="414"/>
      <point x="650" y="440" type="curve" smooth="yes"/>
      <point x="650" y="579" type="line"/>
      <point x="740" y="579" type="line"/>
      <point x="740" y="641" type="line"/>
      <point x="0" y="641" type="line"/>
    </contour>
  </outline>
</glyph>
<glyph name="vowelIi.dv" format="1">
  <advance width="740"/>
  <unicode hex="0908"/>
  <outline>
    <contour>
      <point x="0" y="579" type="line"/>
      <point x="390" y="579" type="line"/>
      <point x="390" y="471" type="line"/>
      <point x="180" y="471" type="line" smooth="yes"/>
      <point x="159" y="471"/>
      <point x="50" y="466"/>
      <point x="50" y="440" type="curve" smooth="yes"/>
      <point x="50" y="280" type="line" smooth="yes"/>
      <point x="50" y="254"/>
      <point x="159" y="249"/>
      <point x="180" y="249" type="curve" smooth="yes"/>
      <point x="430" y="249" type="line"/>
      <point x="430" y="121" type="line"/>
      <point x="320" y="121" type="line"/>
      <point x="320" y="170" type="line"/>
      <point x="190" y="170" type="line" smooth="yes"/>
      <point x="169" y="170"/>
      <point x="60" y="165"/>
      <point x="60" y="139" type="curve" smooth="yes"/>
      <point x="60" y="-10" type="line"/>
      <point x="320" y="-10" type="line"/>
      <point x="320" y="59" type="line"/>
      <point x="560" y="59" type="line" smooth="yes"/>
      <point x="581" y="59"/>
      <point x="690" y="64"/>
      <point x="690" y="90" type="curve" smooth="yes"/>
      <point x="690" y="280" type="line" smooth="yes"/>
      <point x="690" y="306"/>
      <point x="581" y="311"/>
      <point x="560" y="311" type="curve" smooth="yes"/>
      <point x="310" y="311" type="line"/>
      <point x="310" y="409" type="line"/>
      <point x="520" y="409" type="line" smooth="yes"/>
      <point x="541" y="409"/>
      <point x="650" y="414"/>
      <point x="650" y="440" type="curve" smooth="yes"/>
      <point x="650" y="579" type="line"/>
      <point x="740" y="579" type="line"/>
      <point x="740" y="641" type="line"/>
      <point x="575" y="641" type="line"/>
      <point x="503" y="764" type="line"/>
      <point x="675" y="764" type="line"/>
      <point x="705" y="880" type="line"/>
      <point x="482" y="880" type="line" smooth="yes"/>
      <point x="475" y="880"/>
      <point x="468" y="878"/>
      <point x="461" y="876" type="curve"/>
      <point x="428" y="864"/>
      <point x="410" y="796"/>
      <point x="410" y="765" type="curve" smooth="yes"/>
      <point x="410" y="750"/>
      <point x="413" y="739"/>
      <point x="421" y="726" type="curve"/>
      <point x="470" y="641" type="line"/>
      <point x="0" y="641" type="line"/>
    </contour>
  </outline>
</glyph>
<glyph name="vowelU.dv" format="1">
  <advance width="640"/>
  <unicode hex="0909"/>
  <outline>
    <contour>
      <point x="0" y="579" type="line"/>
      <point x="326" y="579" type="line"/>
      <point x="329" y="573"/>
      <point x="330" y="566"/>
      <point x="330" y="559" type="curve" smooth="yes"/>
      <point x="330" y="402" type="line" smooth="yes"/>
      <point x="330" y="384"/>
      <point x="325" y="365"/>
      <point x="312" y="352" type="curve"/>
      <point x="81" y="352" type="line"/>
      <point x="81" y="290" type="line"/>
      <point x="330" y="290" type="line"/>
      <point x="330" y="121" type="line" smooth="yes"/>
      <point x="330" y="101"/>
      <point x="328" y="77"/>
      <point x="313" y="62" type="curve"/>
      <point x="40" y="62" type="line"/>
      <point x="40" y="0" type="line"/>
      <point x="380" y="0" type="line" smooth="yes"/>
      <point x="456" y="0"/>
      <point x="590" y="8"/>
      <point x="590" y="111" type="curve" smooth="yes"/>
      <point x="590" y="260" type="line" smooth="yes"/>
      <point x="590" y="286"/>
      <point x="476" y="291"/>
      <point x="455" y="291" type="curve"/>
      <point x="455" y="301" type="line"/>
      <point x="518" y="310"/>
      <point x="580" y="336"/>
      <point x="580" y="406" type="curve" smooth="yes"/>
      <point x="580" y="559" type="line" smooth="yes"/>
      <point x="580" y="566"/>
      <point x="579" y="573"/>
      <point x="577" y="579" type="curve"/>
      <point x="640" y="579" type="line"/>
      <point x="640" y="641" type="line"/>
      <point x="0" y="641" type="line"/>
    </contour>
  </outline>
</glyph>
<glyph name="vowelUu.dv" format="1">
  <advance width="1010"/>
  <unicode hex="090A"/>
  <outline>
    <contour>
      <point x="0" y="578.8" type="line"/>
      <point x="325.797" y="578.8" type="line"/>
      <point x="329.013" y="572.744"/>
      <point x="330" y="565.727"/>
      <point x="330" y="559" type="curve" smooth="yes"/>
      <point x="330" y="402" type="line" smooth="yes"/>
      <point x="330" y="384.589"/>
      <point x="325.044" y="364.907"/>
      <point x="312.486" y="352.2" type="curve"/>
      <point x="81" y="352.2" type="line"/>
      <point x="81" y="289.8" type="line"/>
      <point x="330" y="289.8" type="line"/>
      <point x="330.061" y="228.8" type="line"/>
      <point x="330.188" y="192.837"/>
      <point x="330.5" y="156.886"/>
      <point x="330.5" y="121" type="curve" smooth="yes"/>
      <point x="330.5" y="101.2"/>
      <point x="328" y="77.1"/>
      <point x="313.3" y="62.2" type="curve"/>
      <point x="40" y="62.2" type="line"/>
      <point x="40" y="-0.2" type="line"/>
      <point x="380" y="-0.2" type="line" smooth="yes"/>
      <point x="455.7" y="-0.2"/>
      <point x="590" y="7.7"/>
      <point x="590" y="111" type="curve" smooth="yes"/>
      <point x="590" y="259" type="line"/>
      <point x="720" y="259" type="line"/>
      <point x="720" y="62" type="line"/>
      <point x="637" y="62" type="line"/>
      <point x="637" y="31" type="line" smooth="yes"/>
      <point x="637" y="7.8"/>
      <point x="729.1" y="3.5"/>
      <point x="747" y="3.5" type="curve" smooth="yes"/>
      <point x="830" y="3.5" type="line" smooth="yes"/>
      <point x="847.9" y="3.5"/>
      <point x="940" y="7.8"/>
      <point x="940" y="31" type="curve" smooth="yes"/>
      <point x="940" y="290" type="line" smooth="yes"/>
      <point x="940" y="313.2"/>
      <point x="847.9" y="317.5"/>
      <point x="830" y="317.5" type="curve" smooth="yes"/>
      <point x="695" y="317.5" type="line" smooth="yes"/>
      <point x="677.1" y="317.5"/>
      <point x="585" y="313.2"/>
      <point x="585" y="290" type="curve" smooth="yes"/>
      <point x="585" y="269.126" type="line"/>
      <point x="563.407" y="287.547"/>
      <point x="478.131" y="291.2"/>
      <point x="460" y="291.2" type="curve" smooth="yes"/>
      <point x="455" y="291.2" type="line"/>
      <point x="455" y="296.915" type="line"/>
      <point x="518.007" y="306.085"/>
      <point x="580" y="331.756"/>
      <point x="580" y="402" type="curve" smooth="yes"/>
      <point x="580" y="559" type="line" smooth="yes"/>
      <point x="580" y="566.234"/>
      <point x="578.911" y="572.813"/>
      <point x="576.901" y="578.8" type="curve"/>
      <point x="1010" y="578.8" type="line"/>
      <point x="1010" y="641.2" type="line"/>
      <point x="0" y="641.2" type="line"/>
    </contour>
  </outline>
</glyph>
<glyph name="vowelRu.dv" format="1">
  <advance width="1170"/>
  <unicode hex="090B"/>
  <outline>
    <contour>
      <point x="0" y="579" type="line"/>
      <point x="470" y="579" type="line"/>
      <point x="470" y="399" type="line"/>
      <point x="386" y="436"/>
      <point x="310" y="465"/>
      <point x="231" y="465" type="curve" smooth="yes"/>
      <point x="171" y="465"/>
      <point x="137" y="448"/>
      <point x="93" y="425" type="curve" smooth="yes"/>
      <point x="-20" y="366" type="line"/>
      <point x="220" y="288" type="line"/>
      <point x="234" y="295"/>
      <point x="363" y="364"/>
      <point x="363" y="364" type="curve"/>
      <point x="368" y="364"/>
      <point x="427" y="339"/>
      <point x="472" y="318" type="curve"/>
      <point x="472" y="312" type="line"/>
      <point x="313" y="294"/>
      <point x="270" y="273"/>
      <point x="211" y="205" type="curve" smooth="yes"/>
      <point x="63" y="36" type="line"/>
      <point x="277" y="24" type="line"/>
      <point x="401" y="164" type="line" smooth="yes"/>
      <point x="414" y="179"/>
      <point x="444" y="218"/>
      <point x="470" y="240" type="curve"/>
      <point x="470" y="0" type="line"/>
      <point x="730" y="0" type="line"/>
      <point x="730" y="353" type="line"/>
      <point x="747" y="334"/>
      <point x="829" y="330"/>
      <point x="847" y="330" type="curve" smooth="yes"/>
      <point x="870" y="330" type="line"/>
      <point x="871" y="109" type="line" smooth="yes"/>
      <point x="871" y="92"/>
      <point x="872" y="73"/>
      <point x="864" y="58" type="curve"/>
      <point x="770" y="58" type="line"/>
      <point x="770" y="4" type="line"/>
      <point x="910" y="4" type="line" smooth="yes"/>
      <point x="961" y="4"/>
      <point x="1050" y="13"/>
      <point x="1050" y="81" type="curve" smooth="yes"/>
      <point x="1050" y="333" type="line"/>
      <point x="1083" y="337"/>
      <point x="1120" y="345"/>
      <point x="1120" y="360" type="curve" smooth="yes"/>
      <point x="1120" y="498" type="line" smooth="yes"/>
      <point x="1120" y="524"/>
      <point x="1015" y="528"/>
      <point x="995" y="528" type="curve" smooth="yes"/>
      <point x="971" y="528"/>
      <point x="870" y="524"/>
      <point x="870" y="498" type="curve" smooth="yes"/>
      <point x="870" y="390" type="line"/>
      <point x="730" y="390" type="line"/>
      <point x="730" y="579" type="line"/>
      <point x="1170" y="579" type="line"/>
      <point x="1170" y="641" type="line"/>
      <point x="0" y="641" type="line"/>
    </contour>
  </outline>
</glyph>
<glyph name="vowelLru.dv" format="1">
  <advance width="980"/>
  <unicode hex="090C"/>
  <outline>
    <contour>
      <point x="910" y="-82" type="line"/>
      <point x="769" y="-82" type="line"/>
      <point x="760" y="-73"/>
      <point x="760" y="-51"/>
      <point x="760" y="-33" type="curve" smooth="yes"/>
      <point x="760" y="19" type="line"/>
      <point x="827" y="20"/>
      <point x="930" y="29"/>
      <point x="930" y="100" type="curve" smooth="yes"/>
      <point x="930" y="410" type="line" smooth="yes"/>
      <point x="930" y="459"/>
      <point x="881" y="479"/>
      <point x="830" y="486" type="curve"/>
      <point x="830" y="488" type="line"/>
      <point x="836" y="490"/>
      <point x="840" y="492"/>
      <point x="840" y="494" type="curve"/>
      <point x="840" y="579" type="line"/>
      <point x="980" y="579" type="line"/>
      <point x="980" y="641" type="line"/>
      <point x="0" y="641" type="line"/>
      <point x="0" y="579" type="line"/>
      <point x="740" y="579" type="line"/>
      <point x="740" y="491" type="line"/>
      <point x="625" y="491" type="line" smooth="yes"/>
      <point x="581" y="491"/>
      <point x="527" y="479"/>
      <point x="495" y="446" type="curve"/>
      <point x="495" y="454" type="line" smooth="yes"/>
      <point x="495" y="457"/>
      <point x="495" y="461"/>
      <point x="494" y="464" type="curve"/>
      <point x="482" y="487"/>
      <point x="390" y="491"/>
      <point x="365" y="491" type="curve" smooth="yes"/>
      <point x="230" y="491" type="line" smooth="yes"/>
      <point x="175" y="491"/>
      <point x="50" y="488"/>
      <point x="50" y="410" type="curve" smooth="yes"/>
      <point x="50" y="100" type="line" smooth="yes"/>
      <point x="50" y="22"/>
      <point x="175" y="19"/>
      <point x="230" y="19" type="curve" smooth="yes"/>
      <point x="440" y="19" type="line"/>
      <point x="440" y="81" type="line"/>
      <point x="314" y="81" type="line"/>
      <point x="311" y="87"/>
      <point x="310" y="94"/>
      <point x="310" y="100" type="curve" smooth="yes"/>
      <point x="310" y="410" type="line" smooth="yes"/>
      <point x="310" y="416"/>
      <point x="311" y="423"/>
      <point x="314" y="429" type="curve"/>
      <point x="481" y="429" type="line"/>
      <point x="467" y="407"/>
      <point x="457" y="382"/>
      <point x="446" y="358" type="curve"/>
      <point x="383" y="229" type="line"/>
      <point x="535" y="219" type="line"/>
      <point x="601" y="352" type="line"/>
      <point x="610" y="371"/>
      <point x="628" y="418"/>
      <point x="645" y="429" type="curve"/>
      <point x="666" y="429" type="line"/>
      <point x="669" y="423"/>
      <point x="670" y="416"/>
      <point x="670" y="410" type="curve" smooth="yes"/>
      <point x="670" y="100" type="line" smooth="yes"/>
      <point x="670" y="94"/>
      <point x="669" y="88"/>
      <point x="666" y="82" type="curve"/>
      <point x="647" y="82"/>
      <point x="580" y="77"/>
      <point x="580" y="60" type="curve" smooth="yes"/>
      <point x="580" y="-54" type="line" smooth="yes"/>
      <point x="580" y="-121"/>
      <point x="671" y="-125"/>
      <point x="720" y="-125" type="curve" smooth="yes"/>
      <point x="910" y="-125" type="line"/>
    </contour>
  </outline>
</glyph>
<glyph name="vowelChandraE.dv" format="1">
  <advance width="740"/>
  <unicode hex="090D"/>
  <outline>
    <contour>
      <point x="130" y="850" type="line"/>
      <point x="132" y="822"/>
      <point x="130.9" y="791"/>
      <point x="137" y="763" type="curve" smooth="yes"/>
      <point x="149.9" y="704"/>
      <point x="218" y="691"/>
      <point x="270" y="691" type="curve" smooth="yes"/>
      <point x="520" y="691" type="line" smooth="yes"/>
      <point x="572" y="691"/>
      <point x="640.1" y="704"/>
      <point x="653" y="763" type="curve" smooth="yes"/>
      <point x="659.1" y="791"/>
      <point x="658" y="822"/>
      <point x="660" y="850" type="curve"/>
      <point x="500" y="852" type="line"/>
      <point x="498" y="827"/>
      <point x="498" y="771"/>
      <point x="487" y="751" type="curve"/>
      <point x="303" y="751" type="line"/>
      <point x="292" y="771"/>
      <point x="292" y="827"/>
      <point x="290" y="852" type="curve"/>
    </contour>
    <contour>
      <point x="0" y="578.8" type="line"/>
      <point x="50" y="578.8" type="line"/>
      <point x="50" y="282" type="line" smooth="yes"/>
      <point x="50" y="222"/>
      <point x="69.1" y="179"/>
      <point x="89" y="124" type="curve" smooth="yes"/>
      <point x="135" y="-3" type="line"/>
      <point x="395" y="3" type="line"/>
      <point x="346" y="136" type="line" smooth="yes"/>
      <point x="334.2" y="168.1"/>
      <point x="320.9" y="200"/>
      <point x="315" y="234" type="curve" smooth="yes"/>
      <point x="306.9" y="281"/>
      <point x="310" y="329"/>
      <point x="310" y="377" type="curve" smooth="yes"/>
      <point x="310" y="578.8" type="line"/>
      <point x="430" y="578.8" type="line"/>
      <point x="430" y="283" type="line"/>
      <point x="320" y="283" type="line"/>
      <point x="319.8" y="257.9" type="line" smooth="yes"/>
      <point x="319.8" y="254.7"/>
      <point x="319.7" y="250.9"/>
      <point x="321.1" y="247.9" type="curve"/>
      <point x="332.3" y="225.2"/>
      <point x="425.5" y="220.8"/>
      <point x="450" y="220.8" type="curve" smooth="yes"/>
      <point x="560" y="220.8" type="line" smooth="yes"/>
      <point x="580.8" y="220.8"/>
      <point x="690" y="225.6"/>
      <point x="690" y="252" type="curve" smooth="yes"/>
      <point x="690" y="578.8" type="line"/>
      <point x="740" y="578.8" type="line"/>
      <point x="740" y="641.2" type="line"/>
      <point x="0" y="641.2" type="line"/>
    </contour>
  </outline>
</glyph>
<glyph name="vowelShortE.dv" format="1">
  <advance width="740"/>
  <unicode hex="090E"/>
  <outline>
    <contour>
      <point x="0" y="578.8" type="line"/>
      <point x="50" y="578.8" type="line"/>
      <point x="50" y="282" type="line" smooth="yes"/>
      <point x="50" y="222"/>
      <point x="69.1" y="179"/>
      <point x="89" y="124" type="curve" smooth="yes"/>
      <point x="135" y="-3" type="line"/>
      <point x="395" y="3" type="line"/>
      <point x="346" y="136" type="line" smooth="yes"/>
      <point x="334.2" y="168.1"/>
      <point x="320.9" y="200"/>
      <point x="315" y="234" type="curve" smooth="yes"/>
      <point x="306.9" y="281"/>
      <point x="310" y="329"/>
      <point x="310" y="377" type="curve" smooth="yes"/>
      <point x="310" y="578.8" type="line"/>
      <point x="430" y="578.8" type="line"/>
      <point x="430" y="283" type="line"/>
      <point x="320" y="283" type="line"/>
      <point x="319.8" y="257.9" type="line" smooth="yes"/>
      <point x="319.8" y="254.7"/>
      <point x="319.7" y="250.9"/>
      <point x="321.1" y="247.9" type="curve"/>
      <point x="332.3" y="225.2"/>
      <point x="425.5" y="220.8"/>
      <point x="450" y="220.8" type="curve" smooth="yes"/>
      <point x="560" y="220.8" type="line" smooth="yes"/>
      <point x="580.8" y="220.8"/>
      <point x="690" y="225.6"/>
      <point x="690" y="252" type="curve" smooth="yes"/>
      <point x="690" y="578.8" type="line"/>
      <point x="740" y="578.8" type="line"/>
      <point x="740" y="641.2" type="line"/>
      <point x="608.743" y="641.2" type="line"/>
      <point x="605" y="656" type="line" smooth="yes"/>
      <point x="586.1" y="730.841"/>
      <point x="556.181" y="821.017"/>
      <point x="478" y="853" type="curve" smooth="yes"/>
      <point x="456" y="862"/>
      <point x="432" y="860.8"/>
      <point x="409" y="862" type="curve" smooth="yes"/>
      <point x="279" y="869" type="line" smooth="yes"/>
      <point x="239" y="871.2"/>
      <point x="213" y="866"/>
      <point x="178" y="891" type="curve"/>
      <point x="146" y="955" type="line"/>
      <point x="94" y="929" type="line"/>
      <point x="134" y="851"/>
      <point x="173.9" y="750.6"/>
      <point x="271" y="733" type="curve" smooth="yes"/>
      <point x="289.9" y="729.6"/>
      <point x="309" y="730.6"/>
      <point x="328" y="730" type="curve" smooth="yes"/>
      <point x="421" y="727" type="line" smooth="yes"/>
      <point x="450" y="726.1"/>
      <point x="502" y="729"/>
      <point x="527" y="718" type="curve"/>
      <point x="547.48" y="641.2" type="line"/>
      <point x="0" y="641.2" type="line"/>
    </contour>
  </outline>
</glyph>
<glyph name="vowelE.dv" format="1">
  <advance width="740"/>
  <unicode hex="090F"/>
  <outline>
    <contour>
      <point x="0" y="579" type="line"/>
      <point x="50" y="579" type="line"/>
      <point x="50" y="282" type="line" smooth="yes"/>
      <point x="50" y="222"/>
      <point x="69" y="179"/>
      <point x="89" y="124" type="curve" smooth="yes"/>
      <point x="135" y="-3" type="line"/>
      <point x="395" y="3" type="line"/>
      <point x="330" y="181" type="line" smooth="yes"/>
      <point x="309" y="237"/>
      <point x="310" y="251"/>
      <point x="310" y="377" type="curve" smooth="yes"/>
      <point x="310" y="579" type="line"/>
      <point x="430" y="579" type="line"/>
      <point x="430" y="283" type="line"/>
      <point x="320" y="283" type="line"/>
      <point x="320" y="248" type="line"/>
      <point x="332" y="225"/>
      <point x="425" y="221"/>
      <point x="450" y="221" type="curve" smooth="yes"/>
      <point x="560" y="221" type="line" smooth="yes"/>
      <point x="581" y="221"/>
      <point x="690" y="226"/>
      <point x="690" y="252" type="curve" smooth="yes"/>
      <point x="690" y="579" type="line"/>
      <point x="740" y="579" type="line"/>
      <point x="740" y="641" type="line"/>
      <point x="0" y="641" type="line"/>
    </contour>
  </outline>
</glyph>
<glyph name="vowelAi.dv" format="1">
  <advance width="740"/>
  <unicode hex="0910"/>
  <outline>
    <contour>
      <point x="0" y="578.8" type="line"/>
      <point x="50" y="578.8" type="line"/>
      <point x="50" y="282" type="line" smooth="yes"/>
      <point x="50" y="222"/>
      <point x="69.1" y="179"/>
      <point x="89" y="124" type="curve" smooth="yes"/>
      <point x="135" y="-3" type="line"/>
      <point x="395" y="3" type="line"/>
      <point x="346" y="136" type="line" smooth="yes"/>
      <point x="334.2" y="168.1"/>
      <point x="320.9" y="200"/>
      <point x="315" y="234" type="curve" smooth="yes"/>
      <point x="306.9" y="281"/>
      <point x="310" y="329"/>
      <point x="310" y="377" type="curve" smooth="yes"/>
      <point x="310" y="578.8" type="line"/>
      <point x="430" y="578.8" type="line"/>
      <point x="430" y="283" type="line"/>
      <point x="320" y="283" type="line"/>
      <point x="319.8" y="257.9" type="line" smooth="yes"/>
      <point x="319.8" y="254.7"/>
      <point x="319.7" y="250.9"/>
      <point x="321.1" y="247.9" type="curve"/>
      <point x="332.3" y="225.2"/>
      <point x="425.5" y="220.8"/>
      <point x="450" y="220.8" type="curve" smooth="yes"/>
      <point x="560" y="220.8" type="line" smooth="yes"/>
      <point x="580.8" y="220.8"/>
      <point x="690" y="225.6"/>
      <point x="690" y="252" type="curve" smooth="yes"/>
      <point x="690" y="578.8" type="line"/>
      <point x="740" y="578.8" type="line"/>
      <point x="740" y="641.2" type="line"/>
      <point x="605.873" y="641.2" type="line"/>
      <point x="590" y="704" type="line" smooth="yes"/>
      <point x="583.9" y="728"/>
      <point x="578.1" y="753.1"/>
      <point x="569" y="777" type="curve" smooth="yes"/>
      <point x="533.1" y="871.1"/>
      <point x="471.9" y="878.5"/>
      <point x="386" y="901" type="curve" smooth="yes"/>
      <point x="241" y="939" type="line"/>
      <point x="259" y="781" type="line"/>
      <point x="414" y="746" type="line" smooth="yes"/>
      <point x="454.9" y="736.8"/>
      <point x="505.3" y="735.3"/>
      <point x="533" y="699" type="curve" smooth="yes"/>
      <point x="534.4" y="697.2"/>
      <point x="536.1" y="695.1"/>
      <point x="537" y="693" type="curve" smooth="yes"/>
      <point x="542.1" y="681.1"/>
      <point x="543.7" y="666.9"/>
      <point x="547" y="654" type="curve" smooth="yes"/>
      <point x="550.313" y="641.2" type="line"/>
      <point x="0" y="641.2" type="line"/>
    </contour>
  </outline>
</glyph>
